<?xml version="1.0" encoding="UTF-8" standalone="no"?>
<!DOCTYPE svg PUBLIC "-//W3C//DTD SVG 1.1//EN"
 "http://www.w3.org/Graphics/SVG/1.1/DTD/svg11.dtd">
<!-- Generated by graphviz version 2.43.0 (0)
 -->
<!-- Title: solver/FE/Basis/BasisFactory.h Pages: 1 -->
<svg width="1033pt" height="302pt"
 viewBox="0.00 0.00 1032.50 302.00" xmlns="http://www.w3.org/2000/svg" xmlns:xlink="http://www.w3.org/1999/xlink">
<g id="graph0" class="graph" transform="scale(1 1) rotate(0) translate(4 298)">
<title>solver/FE/Basis/BasisFactory.h</title>
<!-- Node1 -->
<g id="Node000001" class="node">
<title>Node1</title>
<g id="a_Node000001"><a xlink:title="Runtime creation of basis families.">
<polygon fill="#999999" stroke="#666666" points="794.5,-294 631.5,-294 631.5,-275 794.5,-275 794.5,-294"/>
<text text-anchor="middle" x="713" y="-282" font-family="Helvetica,sans-Serif" font-size="10.00">solver/FE/Basis/BasisFactory.h</text>
</a>
</g>
</g>
<!-- Node2 -->
<g id="Node000002" class="node">
<title>Node2</title>
<g id="a_Node000002"><a xlink:href="_basis_function_8h_source.html" target="_top" xlink:title=" ">
<polygon fill="white" stroke="#666666" points="413.5,-239 320.5,-239 320.5,-220 413.5,-220 413.5,-239"/>
<text text-anchor="middle" x="367" y="-227" font-family="Helvetica,sans-Serif" font-size="10.00">BasisFunction.h</text>
</a>
</g>
</g>
<!-- Node1&#45;&gt;Node2 -->
<g id="edge1_Node000001_Node000002" class="edge">
<title>Node1&#45;&gt;Node2</title>
<g id="a_edge1_Node000001_Node000002"><a xlink:title=" ">
<path fill="none" stroke="#63b8ff" d="M657.41,-274.98C593.22,-265.15 488.2,-249.07 423.59,-239.17"/>
<polygon fill="#63b8ff" stroke="#63b8ff" points="423.99,-235.69 413.58,-237.63 422.93,-242.61 423.99,-235.69"/>
</a>
</g>
</g>
<!-- Node11 -->
<g id="Node000011" class="node">
<title>Node11</title>
<g id="a_Node000011"><a xlink:title=" ">
<polygon fill="#e0e0e0" stroke="#999999" points="373,-19 329,-19 329,0 373,0 373,-19"/>
<text text-anchor="middle" x="351" y="-7" font-family="Helvetica,sans-Serif" font-size="10.00">string</text>
</a>
</g>
</g>
<!-- Node1&#45;&gt;Node11 -->
<g id="edge41_Node000001_Node000011" class="edge">
<title>Node1&#45;&gt;Node11</title>
<g id="a_edge41_Node000001_Node000011"><a xlink:title=" ">
<path fill="none" stroke="#63b8ff" d="M704.63,-274.74C683.52,-253.1 625.6,-196.64 567,-165 520.62,-139.96 498.04,-157.97 454,-129 432.33,-114.75 385.96,-56.2 363.58,-27.09"/>
<polygon fill="#63b8ff" stroke="#63b8ff" points="366.32,-24.9 357.47,-19.08 360.76,-29.15 366.32,-24.9"/>
</a>
</g>
</g>
<!-- Node15 -->
<g id="Node000015" class="node">
<title>Node15</title>
<g id="a_Node000015"><a xlink:title=" ">
<polygon fill="#e0e0e0" stroke="#999999" points="1024.5,-19 977.5,-19 977.5,0 1024.5,0 1024.5,-19"/>
<text text-anchor="middle" x="1001" y="-7" font-family="Helvetica,sans-Serif" font-size="10.00">vector</text>
</a>
</g>
</g>
<!-- Node1&#45;&gt;Node15 -->
<g id="edge42_Node000001_Node000015" class="edge">
<title>Node1&#45;&gt;Node15</title>
<g id="a_edge42_Node000001_Node000015"><a xlink:title=" ">
<path fill="none" stroke="#63b8ff" d="M713,-274.82C713,-256.48 713,-212.44 713,-175.5 713,-175.5 713,-175.5 713,-118.5 713,-91.6 891.47,-40.12 967.42,-19.44"/>
<polygon fill="#63b8ff" stroke="#63b8ff" points="968.69,-22.72 977.43,-16.73 966.86,-15.96 968.69,-22.72"/>
</a>
</g>
</g>
<!-- Node26 -->
<g id="Node000026" class="node">
<title>Node26</title>
<g id="a_Node000026"><a xlink:title=" ">
<polygon fill="#e0e0e0" stroke="#999999" points="799,-239 741,-239 741,-220 799,-220 799,-239"/>
<text text-anchor="middle" x="770" y="-227" font-family="Helvetica,sans-Serif" font-size="10.00">memory</text>
</a>
</g>
</g>
<!-- Node1&#45;&gt;Node26 -->
<g id="edge39_Node000001_Node000026" class="edge">
<title>Node1&#45;&gt;Node26</title>
<g id="a_edge39_Node000001_Node000026"><a xlink:title=" ">
<path fill="none" stroke="#63b8ff" d="M722.16,-274.98C730.5,-267.23 743.03,-255.58 753.18,-246.14"/>
<polygon fill="#63b8ff" stroke="#63b8ff" points="755.74,-248.54 760.68,-239.17 750.97,-243.42 755.74,-248.54"/>
</a>
</g>
</g>
<!-- Node27 -->
<g id="Node000027" class="node">
<title>Node27</title>
<g id="a_Node000027"><a xlink:title=" ">
<polygon fill="#e0e0e0" stroke="#999999" points="873,-239 817,-239 817,-220 873,-220 873,-239"/>
<text text-anchor="middle" x="845" y="-227" font-family="Helvetica,sans-Serif" font-size="10.00">optional</text>
</a>
</g>
</g>
<!-- Node1&#45;&gt;Node27 -->
<g id="edge40_Node000001_Node000027" class="edge">
<title>Node1&#45;&gt;Node27</title>
<g id="a_edge40_Node000001_Node000027"><a xlink:title=" ">
<path fill="none" stroke="#63b8ff" d="M734.21,-274.98C755.73,-266.34 789.28,-252.87 813.83,-243.02"/>
<polygon fill="#63b8ff" stroke="#63b8ff" points="815.43,-246.14 823.41,-239.17 812.82,-239.65 815.43,-246.14"/>
</a>
</g>
</g>
<!-- Node3 -->
<g id="Node000003" class="node">
<title>Node3</title>
<g id="a_Node000003"><a xlink:href="_basis_exceptions_8h_source.html" target="_top" xlink:title=" ">
<polygon fill="white" stroke="#666666" points="558.5,-184 453.5,-184 453.5,-165 558.5,-165 558.5,-184"/>
<text text-anchor="middle" x="506" y="-172" font-family="Helvetica,sans-Serif" font-size="10.00">BasisExceptions.h</text>
</a>
</g>
</g>
<!-- Node2&#45;&gt;Node3 -->
<g id="edge2_Node000002_Node000003" class="edge">
<title>Node2&#45;&gt;Node3</title>
<g id="a_edge2_Node000002_Node000003"><a xlink:title=" ">
<path fill="none" stroke="#63b8ff" d="M389.33,-219.98C412.2,-211.27 447.96,-197.63 473.86,-187.75"/>
<polygon fill="#63b8ff" stroke="#63b8ff" points="475.16,-191 483.26,-184.17 472.67,-184.46 475.16,-191"/>
</a>
</g>
</g>
<!-- Node2&#45;&gt;Node15 -->
<g id="edge38_Node000002_Node000015" class="edge">
<title>Node2&#45;&gt;Node15</title>
<g id="a_edge38_Node000002_Node000015"><a xlink:title=" ">
<path fill="none" stroke="#63b8ff" d="M413.6,-225.41C455.83,-220.96 518.68,-210.18 567,-184 639.13,-144.93 625.25,-90.92 699,-55 804.97,-3.39 847.97,-40.51 967.44,-19.03"/>
<polygon fill="#63b8ff" stroke="#63b8ff" points="968.14,-22.46 977.31,-17.15 966.84,-15.58 968.14,-22.46"/>
</a>
</g>
</g>
<!-- Node17 -->
<g id="Node000017" class="node">
<title>Node17</title>
<g id="a_Node000017"><a xlink:href="_basis_traits_8h.html" target="_top" xlink:title="Reference&#45;topology vocabulary (BasisTopology) and the internal ElementType/topology/order maps.">
<polygon fill="white" stroke="#666666" points="197,-184 119,-184 119,-165 197,-165 197,-184"/>
<text text-anchor="middle" x="158" y="-172" font-family="Helvetica,sans-Serif" font-size="10.00">BasisTraits.h</text>
</a>
</g>
</g>
<!-- Node2&#45;&gt;Node17 -->
<g id="edge19_Node000002_Node000017" class="edge">
<title>Node2&#45;&gt;Node17</title>
<g id="a_edge19_Node000002_Node000017"><a xlink:title=" ">
<path fill="none" stroke="#63b8ff" d="M333.42,-219.98C297.65,-210.91 240.88,-196.52 201.66,-186.57"/>
<polygon fill="#63b8ff" stroke="#63b8ff" points="202.4,-183.15 191.84,-184.08 200.68,-189.93 202.4,-183.15"/>
</a>
</g>
</g>
<!-- Node18 -->
<g id="Node000018" class="node">
<title>Node18</title>
<g id="a_Node000018"><a xlink:href="_types_8h.html" target="_top" xlink:title="Fundamental type definitions for the finite element library.">
<polygon fill="white" stroke="#666666" points="158.5,-129 105.5,-129 105.5,-110 158.5,-110 158.5,-129"/>
<text text-anchor="middle" x="132" y="-117" font-family="Helvetica,sans-Serif" font-size="10.00">Types.h</text>
</a>
</g>
</g>
<!-- Node2&#45;&gt;Node18 -->
<g id="edge35_Node000002_Node000018" class="edge">
<title>Node2&#45;&gt;Node18</title>
<g id="a_edge35_Node000002_Node000018"><a xlink:title=" ">
<path fill="none" stroke="#63b8ff" d="M320.27,-227.34C253.61,-224.59 136.35,-215.31 110,-184 98.78,-170.67 108.13,-151.29 117.87,-137.45"/>
<polygon fill="#63b8ff" stroke="#63b8ff" points="120.83,-139.35 124.12,-129.28 115.27,-135.1 120.83,-139.35"/>
</a>
</g>
</g>
<!-- Node20 -->
<g id="Node000020" class="node">
<title>Node20</title>
<g id="a_Node000020"><a xlink:title=" ">
<polygon fill="#e0e0e0" stroke="#999999" points="289.5,-74 236.5,-74 236.5,-55 289.5,-55 289.5,-74"/>
<text text-anchor="middle" x="263" y="-62" font-family="Helvetica,sans-Serif" font-size="10.00">cstddef</text>
</a>
</g>
</g>
<!-- Node2&#45;&gt;Node20 -->
<g id="edge36_Node000002_Node000020" class="edge">
<title>Node2&#45;&gt;Node20</title>
<g id="a_edge36_Node000002_Node000020"><a xlink:title=" ">
<path fill="none" stroke="#63b8ff" d="M320.19,-224.51C293.14,-219.52 261.15,-208.44 244,-184 222.65,-153.57 240.29,-108 252.94,-83.17"/>
<polygon fill="#63b8ff" stroke="#63b8ff" points="256.12,-84.65 257.77,-74.18 249.95,-81.33 256.12,-84.65"/>
</a>
</g>
</g>
<!-- Node22 -->
<g id="Node000022" class="node">
<title>Node22</title>
<g id="a_Node000022"><a xlink:href="_matrix_8h.html" target="_top" xlink:title="Fixed&#45;size matrix types for FE computations, backed by Eigen.">
<polygon fill="white" stroke="#666666" points="338.5,-184 253.5,-184 253.5,-165 338.5,-165 338.5,-184"/>
<text text-anchor="middle" x="296" y="-172" font-family="Helvetica,sans-Serif" font-size="10.00">Math/Matrix.h</text>
</a>
</g>
</g>
<!-- Node2&#45;&gt;Node22 -->
<g id="edge28_Node000002_Node000022" class="edge">
<title>Node2&#45;&gt;Node22</title>
<g id="a_edge28_Node000002_Node000022"><a xlink:title=" ">
<path fill="none" stroke="#63b8ff" d="M355.59,-219.98C344.89,-212 328.66,-199.88 315.84,-190.31"/>
<polygon fill="#63b8ff" stroke="#63b8ff" points="317.72,-187.35 307.61,-184.17 313.53,-192.96 317.72,-187.35"/>
</a>
</g>
</g>
<!-- Node23 -->
<g id="Node000023" class="node">
<title>Node23</title>
<g id="a_Node000023"><a xlink:href="_f_e_2_math_2_vector_8h.html" target="_top" xlink:title="Fixed&#45;size vector types for FE computations, backed by Eigen.">
<polygon fill="white" stroke="#666666" points="347,-129 291,-129 291,-110 347,-110 347,-129"/>
<text text-anchor="middle" x="319" y="-117" font-family="Helvetica,sans-Serif" font-size="10.00">Vector.h</text>
</a>
</g>
</g>
<!-- Node2&#45;&gt;Node23 -->
<g id="edge34_Node000002_Node000023" class="edge">
<title>Node2&#45;&gt;Node23</title>
<g id="a_edge34_Node000002_Node000023"><a xlink:title=" ">
<path fill="none" stroke="#63b8ff" d="M364.97,-219.61C361.93,-207.08 355.64,-183.67 347,-165 342.65,-155.59 336.65,-145.77 331.32,-137.76"/>
<polygon fill="#63b8ff" stroke="#63b8ff" points="334.06,-135.57 325.51,-129.32 328.29,-139.54 334.06,-135.57"/>
</a>
</g>
</g>
<!-- Node25 -->
<g id="Node000025" class="node">
<title>Node25</title>
<g id="a_Node000025"><a xlink:title=" ">
<polygon fill="#e0e0e0" stroke="#999999" points="435,-184 395,-184 395,-165 435,-165 435,-184"/>
<text text-anchor="middle" x="415" y="-172" font-family="Helvetica,sans-Serif" font-size="10.00">span</text>
</a>
</g>
</g>
<!-- Node2&#45;&gt;Node25 -->
<g id="edge37_Node000002_Node000025" class="edge">
<title>Node2&#45;&gt;Node25</title>
<g id="a_edge37_Node000002_Node000025"><a xlink:title=" ">
<path fill="none" stroke="#63b8ff" d="M374.93,-219.75C381.85,-212.11 392.07,-200.82 400.45,-191.56"/>
<polygon fill="#63b8ff" stroke="#63b8ff" points="403.1,-193.85 407.22,-184.09 397.91,-189.15 403.1,-193.85"/>
</a>
</g>
</g>
<!-- Node4 -->
<g id="Node000004" class="node">
<title>Node4</title>
<g id="a_Node000004"><a xlink:href="_f_e_exception_8h.html" target="_top" xlink:title="Exception hierarchy for error handling in the FE library.">
<polygon fill="white" stroke="#666666" points="549,-129 463,-129 463,-110 549,-110 549,-129"/>
<text text-anchor="middle" x="506" y="-117" font-family="Helvetica,sans-Serif" font-size="10.00">FEException.h</text>
</a>
</g>
</g>
<!-- Node3&#45;&gt;Node4 -->
<g id="edge3_Node000003_Node000004" class="edge">
<title>Node3&#45;&gt;Node4</title>
<g id="a_edge3_Node000003_Node000004"><a xlink:title=" ">
<path fill="none" stroke="#63b8ff" d="M506,-164.75C506,-157.8 506,-147.85 506,-139.13"/>
<polygon fill="#63b8ff" stroke="#63b8ff" points="509.5,-139.09 506,-129.09 502.5,-139.09 509.5,-139.09"/>
</a>
</g>
</g>
<!-- Node5 -->
<g id="Node000005" class="node">
<title>Node5</title>
<g id="a_Node000005"><a xlink:href="_exception_8h_source.html" target="_top" xlink:title=" ">
<polygon fill="white" stroke="#666666" points="646.5,-74 547.5,-74 547.5,-55 646.5,-55 646.5,-74"/>
<text text-anchor="middle" x="597" y="-62" font-family="Helvetica,sans-Serif" font-size="10.00">Core/Exception.h</text>
</a>
</g>
</g>
<!-- Node4&#45;&gt;Node5 -->
<g id="edge4_Node000004_Node000005" class="edge">
<title>Node4&#45;&gt;Node5</title>
<g id="a_edge4_Node000004_Node000005"><a xlink:title=" ">
<path fill="none" stroke="#63b8ff" d="M520.62,-109.98C534.86,-101.69 556.75,-88.94 573.45,-79.22"/>
<polygon fill="#63b8ff" stroke="#63b8ff" points="575.23,-82.23 582.11,-74.17 571.71,-76.18 575.23,-82.23"/>
</a>
</g>
</g>
<!-- Node10 -->
<g id="Node000010" class="node">
<title>Node10</title>
<g id="a_Node000010"><a xlink:title=" ">
<polygon fill="#e0e0e0" stroke="#999999" points="447,-19 391,-19 391,0 447,0 447,-19"/>
<text text-anchor="middle" x="419" y="-7" font-family="Helvetica,sans-Serif" font-size="10.00">sstream</text>
</a>
</g>
</g>
<!-- Node4&#45;&gt;Node10 -->
<g id="edge16_Node000004_Node000010" class="edge">
<title>Node4&#45;&gt;Node10</title>
<g id="a_edge16_Node000004_Node000010"><a xlink:title=" ">
<path fill="none" stroke="#63b8ff" d="M499.48,-109.77C490.21,-97.43 472.62,-74.24 457,-55 449.32,-45.54 440.49,-35.17 433.27,-26.82"/>
<polygon fill="#63b8ff" stroke="#63b8ff" points="435.9,-24.51 426.7,-19.26 430.62,-29.1 435.9,-24.51"/>
</a>
</g>
</g>
<!-- Node4&#45;&gt;Node11 -->
<g id="edge17_Node000004_Node000011" class="edge">
<title>Node4&#45;&gt;Node11</title>
<g id="a_edge17_Node000004_Node000011"><a xlink:title=" ">
<path fill="none" stroke="#63b8ff" d="M494.59,-109.89C478.1,-97.5 446.53,-74.04 419,-55 403.91,-44.57 386.61,-33.26 373.24,-24.65"/>
<polygon fill="#63b8ff" stroke="#63b8ff" points="374.99,-21.61 364.68,-19.16 371.21,-27.51 374.99,-21.61"/>
</a>
</g>
</g>
<!-- Node14 -->
<g id="Node000014" class="node">
<title>Node14</title>
<g id="a_Node000014"><a xlink:title=" ">
<polygon fill="#e0e0e0" stroke="#999999" points="510.5,-19 465.5,-19 465.5,0 510.5,0 510.5,-19"/>
<text text-anchor="middle" x="488" y="-7" font-family="Helvetica,sans-Serif" font-size="10.00">utility</text>
</a>
</g>
</g>
<!-- Node4&#45;&gt;Node14 -->
<g id="edge18_Node000004_Node000014" class="edge">
<title>Node4&#45;&gt;Node14</title>
<g id="a_edge18_Node000004_Node000014"><a xlink:title=" ">
<path fill="none" stroke="#63b8ff" d="M504.53,-109.66C501.61,-92.17 495.05,-52.8 491.13,-29.27"/>
<polygon fill="#63b8ff" stroke="#63b8ff" points="494.54,-28.45 489.44,-19.16 487.63,-29.6 494.54,-28.45"/>
</a>
</g>
</g>
<!-- Node6 -->
<g id="Node000006" class="node">
<title>Node6</title>
<g id="a_Node000006"><a xlink:title=" ">
<polygon fill="#e0e0e0" stroke="#999999" points="197,-19 147,-19 147,0 197,0 197,-19"/>
<text text-anchor="middle" x="172" y="-7" font-family="Helvetica,sans-Serif" font-size="10.00">cstdint</text>
</a>
</g>
</g>
<!-- Node5&#45;&gt;Node6 -->
<g id="edge5_Node000005_Node000006" class="edge">
<title>Node5&#45;&gt;Node6</title>
<g id="a_edge5_Node000005_Node000006"><a xlink:title=" ">
<path fill="none" stroke="#63b8ff" d="M547.3,-58.33C475.55,-50.71 338.87,-35.54 223,-19 217.86,-18.27 212.43,-17.43 207.11,-16.57"/>
<polygon fill="#63b8ff" stroke="#63b8ff" points="207.56,-13.1 197.13,-14.93 206.42,-20.01 207.56,-13.1"/>
</a>
</g>
</g>
<!-- Node7 -->
<g id="Node000007" class="node">
<title>Node7</title>
<g id="a_Node000007"><a xlink:title=" ">
<polygon fill="#e0e0e0" stroke="#999999" points="577.5,-19 528.5,-19 528.5,0 577.5,0 577.5,-19"/>
<text text-anchor="middle" x="553" y="-7" font-family="Helvetica,sans-Serif" font-size="10.00">cstdlib</text>
</a>
</g>
</g>
<!-- Node5&#45;&gt;Node7 -->
<g id="edge6_Node000005_Node000007" class="edge">
<title>Node5&#45;&gt;Node7</title>
<g id="a_edge6_Node000005_Node000007"><a xlink:title=" ">
<path fill="none" stroke="#63b8ff" d="M589.73,-54.75C583.46,-47.18 574.21,-36.05 566.57,-26.84"/>
<polygon fill="#63b8ff" stroke="#63b8ff" points="569.21,-24.55 560.13,-19.09 563.83,-29.02 569.21,-24.55"/>
</a>
</g>
</g>
<!-- Node8 -->
<g id="Node000008" class="node">
<title>Node8</title>
<g id="a_Node000008"><a xlink:title=" ">
<polygon fill="#e0e0e0" stroke="#999999" points="660.5,-19 595.5,-19 595.5,0 660.5,0 660.5,-19"/>
<text text-anchor="middle" x="628" y="-7" font-family="Helvetica,sans-Serif" font-size="10.00">exception</text>
</a>
</g>
</g>
<!-- Node5&#45;&gt;Node8 -->
<g id="edge7_Node000005_Node000008" class="edge">
<title>Node5&#45;&gt;Node8</title>
<g id="a_edge7_Node000005_Node000008"><a xlink:title=" ">
<path fill="none" stroke="#63b8ff" d="M602.12,-54.75C606.36,-47.49 612.53,-36.95 617.78,-27.98"/>
<polygon fill="#63b8ff" stroke="#63b8ff" points="620.95,-29.49 622.98,-19.09 614.91,-25.95 620.95,-29.49"/>
</a>
</g>
</g>
<!-- Node9 -->
<g id="Node000009" class="node">
<title>Node9</title>
<g id="a_Node000009"><a xlink:title=" ">
<polygon fill="#e0e0e0" stroke="#999999" points="739,-19 679,-19 679,0 739,0 739,-19"/>
<text text-anchor="middle" x="709" y="-7" font-family="Helvetica,sans-Serif" font-size="10.00">iostream</text>
</a>
</g>
</g>
<!-- Node5&#45;&gt;Node9 -->
<g id="edge8_Node000005_Node000009" class="edge">
<title>Node5&#45;&gt;Node9</title>
<g id="a_edge8_Node000005_Node000009"><a xlink:title=" ">
<path fill="none" stroke="#63b8ff" d="M614.99,-54.98C632.93,-46.5 660.72,-33.35 681.43,-23.54"/>
<polygon fill="#63b8ff" stroke="#63b8ff" points="683.14,-26.61 690.68,-19.17 680.14,-20.28 683.14,-26.61"/>
</a>
</g>
</g>
<!-- Node5&#45;&gt;Node10 -->
<g id="edge9_Node000005_Node000010" class="edge">
<title>Node5&#45;&gt;Node10</title>
<g id="a_edge9_Node000005_Node000010"><a xlink:title=" ">
<path fill="none" stroke="#63b8ff" d="M568.4,-54.98C538.21,-45.99 490.46,-31.78 457.09,-21.84"/>
<polygon fill="#63b8ff" stroke="#63b8ff" points="457.82,-18.41 447.23,-18.91 455.82,-25.11 457.82,-18.41"/>
</a>
</g>
</g>
<!-- Node5&#45;&gt;Node11 -->
<g id="edge10_Node000005_Node000011" class="edge">
<title>Node5&#45;&gt;Node11</title>
<g id="a_edge10_Node000005_Node000011"><a xlink:title=" ">
<path fill="none" stroke="#63b8ff" d="M551.51,-54.96C510,-46.96 446.74,-34.3 383.11,-19.15"/>
<polygon fill="#63b8ff" stroke="#63b8ff" points="383.85,-15.73 373.31,-16.8 382.21,-22.54 383.85,-15.73"/>
</a>
</g>
</g>
<!-- Node12 -->
<g id="Node000012" class="node">
<title>Node12</title>
<g id="a_Node000012"><a xlink:title=" ">
<polygon fill="#e0e0e0" stroke="#999999" points="830.5,-19 757.5,-19 757.5,0 830.5,0 830.5,-19"/>
<text text-anchor="middle" x="794" y="-7" font-family="Helvetica,sans-Serif" font-size="10.00">string_view</text>
</a>
</g>
</g>
<!-- Node5&#45;&gt;Node12 -->
<g id="edge11_Node000005_Node000012" class="edge">
<title>Node5&#45;&gt;Node12</title>
<g id="a_edge11_Node000005_Node000012"><a xlink:title=" ">
<path fill="none" stroke="#63b8ff" d="M628.65,-54.98C662.16,-45.97 715.2,-31.7 752.14,-21.76"/>
<polygon fill="#63b8ff" stroke="#63b8ff" points="753.35,-25.06 762.1,-19.08 751.53,-18.3 753.35,-25.06"/>
</a>
</g>
</g>
<!-- Node13 -->
<g id="Node000013" class="node">
<title>Node13</title>
<g id="a_Node000013"><a xlink:title=" ">
<polygon fill="#e0e0e0" stroke="#999999" points="301.5,-19 232.5,-19 232.5,0 301.5,0 301.5,-19"/>
<text text-anchor="middle" x="267" y="-7" font-family="Helvetica,sans-Serif" font-size="10.00">type_traits</text>
</a>
</g>
</g>
<!-- Node5&#45;&gt;Node13 -->
<g id="edge12_Node000005_Node000013" class="edge">
<title>Node5&#45;&gt;Node13</title>
<g id="a_edge12_Node000005_Node000013"><a xlink:title=" ">
<path fill="none" stroke="#63b8ff" d="M547.24,-55.51C483.41,-45.26 373.63,-27.63 312.12,-17.75"/>
<polygon fill="#63b8ff" stroke="#63b8ff" points="312.38,-14.24 301.95,-16.11 311.27,-21.16 312.38,-14.24"/>
</a>
</g>
</g>
<!-- Node5&#45;&gt;Node14 -->
<g id="edge13_Node000005_Node000014" class="edge">
<title>Node5&#45;&gt;Node14</title>
<g id="a_edge13_Node000005_Node000014"><a xlink:title=" ">
<path fill="none" stroke="#63b8ff" d="M579.49,-54.98C562.03,-46.5 534.99,-33.35 514.83,-23.54"/>
<polygon fill="#63b8ff" stroke="#63b8ff" points="516.36,-20.4 505.83,-19.17 513.29,-26.69 516.36,-20.4"/>
</a>
</g>
</g>
<!-- Node5&#45;&gt;Node15 -->
<g id="edge14_Node000005_Node000015" class="edge">
<title>Node5&#45;&gt;Node15</title>
<g id="a_edge14_Node000005_Node000015"><a xlink:title=" ">
<path fill="none" stroke="#63b8ff" d="M646.6,-56.83C651.47,-56.2 656.33,-55.58 661,-55 794.55,-38.33 831.87,-44.45 967.39,-19.08"/>
<polygon fill="#63b8ff" stroke="#63b8ff" points="968.15,-22.5 977.32,-17.19 966.84,-15.62 968.15,-22.5"/>
</a>
</g>
</g>
<!-- Node16 -->
<g id="Node000016" class="node">
<title>Node16</title>
<g id="a_Node000016"><a xlink:title=" ">
<polygon fill="#e0e0e0" stroke="#999999" points="959.5,-19 848.5,-19 848.5,0 959.5,0 959.5,-19"/>
<text text-anchor="middle" x="904" y="-7" font-family="Helvetica,sans-Serif" font-size="10.00">PlatformSupport.inl</text>
</a>
</g>
</g>
<!-- Node5&#45;&gt;Node16 -->
<g id="edge15_Node000005_Node000016" class="edge">
<title>Node5&#45;&gt;Node16</title>
<g id="a_edge15_Node000005_Node000016"><a xlink:title=" ">
<path fill="none" stroke="#63b8ff" d="M646.32,-54.98C700.29,-45.67 786.78,-30.74 844.48,-20.78"/>
<polygon fill="#63b8ff" stroke="#63b8ff" points="845.28,-24.19 854.54,-19.04 844.09,-17.29 845.28,-24.19"/>
</a>
</g>
</g>
<!-- Node17&#45;&gt;Node18 -->
<g id="edge20_Node000017_Node000018" class="edge">
<title>Node17&#45;&gt;Node18</title>
<g id="a_edge20_Node000017_Node000018"><a xlink:title=" ">
<path fill="none" stroke="#63b8ff" d="M153.71,-164.75C150.19,-157.57 145.09,-147.18 140.72,-138.27"/>
<polygon fill="#63b8ff" stroke="#63b8ff" points="143.76,-136.53 136.21,-129.09 137.48,-139.61 143.76,-136.53"/>
</a>
</g>
</g>
<!-- Node17&#45;&gt;Node20 -->
<g id="edge27_Node000017_Node000020" class="edge">
<title>Node17&#45;&gt;Node20</title>
<g id="a_edge27_Node000017_Node000020"><a xlink:title=" ">
<path fill="none" stroke="#63b8ff" d="M164.44,-164.9C174.01,-152.31 192.84,-128.39 211,-110 221.31,-99.57 233.76,-88.85 243.9,-80.55"/>
<polygon fill="#63b8ff" stroke="#63b8ff" points="246.19,-83.2 251.77,-74.2 241.79,-77.75 246.19,-83.2"/>
</a>
</g>
</g>
<!-- Node18&#45;&gt;Node6 -->
<g id="edge23_Node000018_Node000006" class="edge">
<title>Node18&#45;&gt;Node6</title>
<g id="a_edge23_Node000018_Node000006"><a xlink:title=" ">
<path fill="none" stroke="#63b8ff" d="M135.27,-109.66C141.81,-92.01 156.6,-52.09 165.28,-28.64"/>
<polygon fill="#63b8ff" stroke="#63b8ff" points="168.6,-29.75 168.79,-19.16 162.04,-27.32 168.6,-29.75"/>
</a>
</g>
</g>
<!-- Node18&#45;&gt;Node11 -->
<g id="edge24_Node000018_Node000011" class="edge">
<title>Node18&#45;&gt;Node11</title>
<g id="a_edge24_Node000018_Node000011"><a xlink:title=" ">
<path fill="none" stroke="#63b8ff" d="M143.99,-109.95C165.53,-94.68 210.08,-63.53 227,-55 256.98,-39.89 293.34,-27.48 318.92,-19.64"/>
<polygon fill="#63b8ff" stroke="#63b8ff" points="320.26,-22.89 328.83,-16.66 318.24,-16.19 320.26,-22.89"/>
</a>
</g>
</g>
<!-- Node18&#45;&gt;Node13 -->
<g id="edge25_Node000018_Node000013" class="edge">
<title>Node18&#45;&gt;Node13</title>
<g id="a_edge25_Node000018_Node000013"><a xlink:title=" ">
<path fill="none" stroke="#63b8ff" d="M139.41,-109.6C150.47,-96.65 172.3,-72.27 194,-55 208.76,-43.25 226.87,-32.19 241.36,-24.04"/>
<polygon fill="#63b8ff" stroke="#63b8ff" points="243.21,-27.01 250.28,-19.12 239.83,-20.88 243.21,-27.01"/>
</a>
</g>
</g>
<!-- Node19 -->
<g id="Node000019" class="node">
<title>Node19</title>
<g id="a_Node000019"><a xlink:title=" ">
<polygon fill="#e0e0e0" stroke="#999999" points="42,-74 0,-74 0,-55 42,-55 42,-74"/>
<text text-anchor="middle" x="21" y="-62" font-family="Helvetica,sans-Serif" font-size="10.00">array</text>
</a>
</g>
</g>
<!-- Node18&#45;&gt;Node19 -->
<g id="edge21_Node000018_Node000019" class="edge">
<title>Node18&#45;&gt;Node19</title>
<g id="a_edge21_Node000018_Node000019"><a xlink:title=" ">
<path fill="none" stroke="#63b8ff" d="M114.17,-109.98C96.39,-101.5 68.85,-88.35 48.32,-78.54"/>
<polygon fill="#63b8ff" stroke="#63b8ff" points="49.69,-75.32 39.16,-74.17 46.67,-81.64 49.69,-75.32"/>
</a>
</g>
</g>
<!-- Node18&#45;&gt;Node20 -->
<g id="edge22_Node000018_Node000020" class="edge">
<title>Node18&#45;&gt;Node20</title>
<g id="a_edge22_Node000018_Node000020"><a xlink:title=" ">
<path fill="none" stroke="#63b8ff" d="M153.05,-109.98C174.41,-101.34 207.7,-87.87 232.06,-78.02"/>
<polygon fill="#63b8ff" stroke="#63b8ff" points="233.61,-81.17 241.57,-74.17 230.99,-74.68 233.61,-81.17"/>
</a>
</g>
</g>
<!-- Node21 -->
<g id="Node000021" class="node">
<title>Node21</title>
<g id="a_Node000021"><a xlink:title=" ">
<polygon fill="#e0e0e0" stroke="#999999" points="104,-74 60,-74 60,-55 104,-55 104,-74"/>
<text text-anchor="middle" x="82" y="-62" font-family="Helvetica,sans-Serif" font-size="10.00">limits</text>
</a>
</g>
</g>
<!-- Node18&#45;&gt;Node21 -->
<g id="edge26_Node000018_Node000021" class="edge">
<title>Node18&#45;&gt;Node21</title>
<g id="a_edge26_Node000018_Node000021"><a xlink:title=" ">
<path fill="none" stroke="#63b8ff" d="M123.74,-109.75C116.54,-102.11 105.89,-90.82 97.15,-81.56"/>
<polygon fill="#63b8ff" stroke="#63b8ff" points="99.51,-78.96 90.1,-74.09 94.42,-83.76 99.51,-78.96"/>
</a>
</g>
</g>
<!-- Node22&#45;&gt;Node20 -->
<g id="edge33_Node000022_Node000020" class="edge">
<title>Node22&#45;&gt;Node20</title>
<g id="a_edge33_Node000022_Node000020"><a xlink:title=" ">
<path fill="none" stroke="#63b8ff" d="M293.28,-164.98C290.43,-156.03 285.85,-141.54 282,-129 277.35,-113.85 272.21,-96.63 268.45,-83.95"/>
<polygon fill="#63b8ff" stroke="#63b8ff" points="271.74,-82.74 265.54,-74.14 265.02,-84.72 271.74,-82.74"/>
</a>
</g>
</g>
<!-- Node22&#45;&gt;Node23 -->
<g id="edge29_Node000022_Node000023" class="edge">
<title>Node22&#45;&gt;Node23</title>
<g id="a_edge29_Node000022_Node000023"><a xlink:title=" ">
<path fill="none" stroke="#63b8ff" d="M299.8,-164.75C302.91,-157.57 307.42,-147.18 311.29,-138.27"/>
<polygon fill="#63b8ff" stroke="#63b8ff" points="314.5,-139.66 315.27,-129.09 308.08,-136.87 314.5,-139.66"/>
</a>
</g>
</g>
<!-- Node24 -->
<g id="Node000024" class="node">
<title>Node24</title>
<g id="a_Node000024"><a xlink:title=" ">
<polygon fill="#e0e0e0" stroke="#999999" points="376.5,-74 307.5,-74 307.5,-55 376.5,-55 376.5,-74"/>
<text text-anchor="middle" x="342" y="-62" font-family="Helvetica,sans-Serif" font-size="10.00">Eigen/Core</text>
</a>
</g>
</g>
<!-- Node22&#45;&gt;Node24 -->
<g id="edge32_Node000022_Node000024" class="edge">
<title>Node22&#45;&gt;Node24</title>
<g id="a_edge32_Node000022_Node000024"><a xlink:title=" ">
<path fill="none" stroke="#63b8ff" d="M315.58,-164.98C329.67,-157.68 347.6,-145.68 356,-129 363.28,-114.54 358.01,-96.35 351.96,-83.14"/>
<polygon fill="#63b8ff" stroke="#63b8ff" points="355.05,-81.49 347.38,-74.17 348.81,-84.67 355.05,-81.49"/>
</a>
</g>
</g>
<!-- Node23&#45;&gt;Node20 -->
<g id="edge31_Node000023_Node000020" class="edge">
<title>Node23&#45;&gt;Node20</title>
<g id="a_edge31_Node000023_Node000020"><a xlink:title=" ">
<path fill="none" stroke="#63b8ff" d="M310,-109.98C301.81,-102.23 289.49,-90.58 279.53,-81.14"/>
<polygon fill="#63b8ff" stroke="#63b8ff" points="281.83,-78.5 272.16,-74.17 277.02,-83.59 281.83,-78.5"/>
</a>
</g>
</g>
<!-- Node23&#45;&gt;Node24 -->
<g id="edge30_Node000023_Node000024" class="edge">
<title>Node23&#45;&gt;Node24</title>
<g id="a_edge30_Node000023_Node000024"><a xlink:title=" ">
<path fill="none" stroke="#63b8ff" d="M322.8,-109.75C325.91,-102.57 330.42,-92.18 334.29,-83.27"/>
<polygon fill="#63b8ff" stroke="#63b8ff" points="337.5,-84.66 338.27,-74.09 331.08,-81.87 337.5,-84.66"/>
</a>
</g>
</g>
</g>
</svg>
