<?xml version="1.0" encoding="UTF-8" standalone="no"?>
<!DOCTYPE svg PUBLIC "-//W3C//DTD SVG 1.1//EN"
 "http://www.w3.org/Graphics/SVG/1.1/DTD/svg11.dtd">
<!-- Generated by graphviz version 2.43.0 (0)
 -->
<!-- Title: solver/FE/Basis/SerendipityBasis.h Pages: 1 -->
<svg width="912pt" height="313pt"
 viewBox="0.00 0.00 911.50 313.00" xmlns="http://www.w3.org/2000/svg" xmlns:xlink="http://www.w3.org/1999/xlink">
<g id="graph0" class="graph" transform="scale(1 1) rotate(0) translate(4 309)">
<title>solver/FE/Basis/SerendipityBasis.h</title>
<!-- Node1 -->
<g id="Node000001" class="node">
<title>Node1</title>
<g id="a_Node000001"><a xlink:title="Reduced&#45;degree&#45;of&#45;freedom serendipity bases.">
<polygon fill="#999999" stroke="#666666" points="406.5,-305 257.5,-305 257.5,-275 406.5,-275 406.5,-305"/>
<text text-anchor="start" x="265.5" y="-293" font-family="Helvetica,sans-Serif" font-size="10.00">solver/FE/Basis/Serendipity</text>
<text text-anchor="middle" x="332" y="-282" font-family="Helvetica,sans-Serif" font-size="10.00">Basis.h</text>
</a>
</g>
</g>
<!-- Node2 -->
<g id="Node000002" class="node">
<title>Node2</title>
<g id="a_Node000002"><a xlink:href="_basis_function_8h_source.html" target="_top" xlink:title=" ">
<polygon fill="white" stroke="#666666" points="378.5,-239 285.5,-239 285.5,-220 378.5,-220 378.5,-239"/>
<text text-anchor="middle" x="332" y="-227" font-family="Helvetica,sans-Serif" font-size="10.00">BasisFunction.h</text>
</a>
</g>
</g>
<!-- Node1&#45;&gt;Node2 -->
<g id="edge1_Node000001_Node000002" class="edge">
<title>Node1&#45;&gt;Node2</title>
<g id="a_edge1_Node000001_Node000002"><a xlink:title=" ">
<path fill="none" stroke="#63b8ff" d="M332,-274.84C332,-267.21 332,-257.7 332,-249.45"/>
<polygon fill="#63b8ff" stroke="#63b8ff" points="335.5,-249.27 332,-239.27 328.5,-249.27 335.5,-249.27"/>
</a>
</g>
</g>
<!-- Node19 -->
<g id="Node000019" class="node">
<title>Node19</title>
<g id="a_Node000019"><a xlink:title=" ">
<polygon fill="#e0e0e0" stroke="#999999" points="42,-74 0,-74 0,-55 42,-55 42,-74"/>
<text text-anchor="middle" x="21" y="-62" font-family="Helvetica,sans-Serif" font-size="10.00">array</text>
</a>
</g>
</g>
<!-- Node1&#45;&gt;Node19 -->
<g id="edge39_Node000001_Node000019" class="edge">
<title>Node1&#45;&gt;Node19</title>
<g id="a_edge39_Node000001_Node000019"><a xlink:title=" ">
<path fill="none" stroke="#63b8ff" d="M280.87,-274.94C230.59,-259.17 153.76,-229.64 100,-184 66.2,-155.31 41,-108.68 28.92,-83.31"/>
<polygon fill="#63b8ff" stroke="#63b8ff" points="32.06,-81.76 24.69,-74.14 25.7,-84.69 32.06,-81.76"/>
</a>
</g>
</g>
<!-- Node25 -->
<g id="Node000025" class="node">
<title>Node25</title>
<g id="a_Node000025"><a xlink:title=" ">
<polygon fill="#e0e0e0" stroke="#999999" points="603,-184 563,-184 563,-165 603,-165 603,-184"/>
<text text-anchor="middle" x="583" y="-172" font-family="Helvetica,sans-Serif" font-size="10.00">span</text>
</a>
</g>
</g>
<!-- Node1&#45;&gt;Node25 -->
<g id="edge40_Node000001_Node000025" class="edge">
<title>Node1&#45;&gt;Node25</title>
<g id="a_edge40_Node000001_Node000025"><a xlink:title=" ">
<path fill="none" stroke="#63b8ff" d="M363.03,-274.97C412.13,-252.76 507.03,-209.85 554.51,-188.38"/>
<polygon fill="#63b8ff" stroke="#63b8ff" points="556.21,-191.45 563.88,-184.14 553.33,-185.08 556.21,-191.45"/>
</a>
</g>
</g>
<!-- Node3 -->
<g id="Node000003" class="node">
<title>Node3</title>
<g id="a_Node000003"><a xlink:href="_basis_exceptions_8h_source.html" target="_top" xlink:title=" ">
<polygon fill="white" stroke="#666666" points="544.5,-184 439.5,-184 439.5,-165 544.5,-165 544.5,-184"/>
<text text-anchor="middle" x="492" y="-172" font-family="Helvetica,sans-Serif" font-size="10.00">BasisExceptions.h</text>
</a>
</g>
</g>
<!-- Node2&#45;&gt;Node3 -->
<g id="edge2_Node000002_Node000003" class="edge">
<title>Node2&#45;&gt;Node3</title>
<g id="a_edge2_Node000002_Node000003"><a xlink:title=" ">
<path fill="none" stroke="#63b8ff" d="M357.71,-219.98C384.45,-211.13 426.53,-197.19 456.45,-187.28"/>
<polygon fill="#63b8ff" stroke="#63b8ff" points="457.7,-190.55 466.09,-184.08 455.5,-183.9 457.7,-190.55"/>
</a>
</g>
</g>
<!-- Node15 -->
<g id="Node000015" class="node">
<title>Node15</title>
<g id="a_Node000015"><a xlink:title=" ">
<polygon fill="#e0e0e0" stroke="#999999" points="316.5,-19 269.5,-19 269.5,0 316.5,0 316.5,-19"/>
<text text-anchor="middle" x="293" y="-7" font-family="Helvetica,sans-Serif" font-size="10.00">vector</text>
</a>
</g>
</g>
<!-- Node2&#45;&gt;Node15 -->
<g id="edge38_Node000002_Node000015" class="edge">
<title>Node2&#45;&gt;Node15</title>
<g id="a_edge38_Node000002_Node000015"><a xlink:title=" ">
<path fill="none" stroke="#63b8ff" d="M339.81,-219.82C362.87,-193.11 426.71,-110.64 389,-55 381.4,-43.79 350.72,-30.73 326.06,-21.67"/>
<polygon fill="#63b8ff" stroke="#63b8ff" points="327.22,-18.37 316.62,-18.29 324.85,-24.96 327.22,-18.37"/>
</a>
</g>
</g>
<!-- Node17 -->
<g id="Node000017" class="node">
<title>Node17</title>
<g id="a_Node000017"><a xlink:href="_basis_traits_8h.html" target="_top" xlink:title="Reference&#45;topology vocabulary (BasisTopology) and the internal ElementType/topology/order maps.">
<polygon fill="white" stroke="#666666" points="196,-184 118,-184 118,-165 196,-165 196,-184"/>
<text text-anchor="middle" x="157" y="-172" font-family="Helvetica,sans-Serif" font-size="10.00">BasisTraits.h</text>
</a>
</g>
</g>
<!-- Node2&#45;&gt;Node17 -->
<g id="edge19_Node000002_Node000017" class="edge">
<title>Node2&#45;&gt;Node17</title>
<g id="a_edge19_Node000002_Node000017"><a xlink:title=" ">
<path fill="none" stroke="#63b8ff" d="M303.88,-219.98C274.38,-211.05 227.81,-196.94 195.03,-187.02"/>
<polygon fill="#63b8ff" stroke="#63b8ff" points="195.92,-183.63 185.34,-184.08 193.89,-190.33 195.92,-183.63"/>
</a>
</g>
</g>
<!-- Node18 -->
<g id="Node000018" class="node">
<title>Node18</title>
<g id="a_Node000018"><a xlink:href="_types_8h.html" target="_top" xlink:title="Fundamental type definitions for the finite element library.">
<polygon fill="white" stroke="#666666" points="148.5,-129 95.5,-129 95.5,-110 148.5,-110 148.5,-129"/>
<text text-anchor="middle" x="122" y="-117" font-family="Helvetica,sans-Serif" font-size="10.00">Types.h</text>
</a>
</g>
</g>
<!-- Node2&#45;&gt;Node18 -->
<g id="edge35_Node000002_Node000018" class="edge">
<title>Node2&#45;&gt;Node18</title>
<g id="a_edge35_Node000002_Node000018"><a xlink:title=" ">
<path fill="none" stroke="#63b8ff" d="M285.48,-225.96C226.8,-221.67 130.87,-210.67 109,-184 98.55,-171.26 104.31,-152.31 111.15,-138.43"/>
<polygon fill="#63b8ff" stroke="#63b8ff" points="114.38,-139.83 116.11,-129.38 108.24,-136.47 114.38,-139.83"/>
</a>
</g>
</g>
<!-- Node20 -->
<g id="Node000020" class="node">
<title>Node20</title>
<g id="a_Node000020"><a xlink:title=" ">
<polygon fill="#e0e0e0" stroke="#999999" points="289.5,-74 236.5,-74 236.5,-55 289.5,-55 289.5,-74"/>
<text text-anchor="middle" x="263" y="-62" font-family="Helvetica,sans-Serif" font-size="10.00">cstddef</text>
</a>
</g>
</g>
<!-- Node2&#45;&gt;Node20 -->
<g id="edge36_Node000002_Node000020" class="edge">
<title>Node2&#45;&gt;Node20</title>
<g id="a_edge36_Node000002_Node000020"><a xlink:title=" ">
<path fill="none" stroke="#63b8ff" d="M296.56,-219.99C277.74,-213.48 256.24,-202.38 245,-184 225.71,-152.47 241.86,-107.65 253.55,-83.15"/>
<polygon fill="#63b8ff" stroke="#63b8ff" points="256.79,-84.5 258.17,-74 250.54,-81.35 256.79,-84.5"/>
</a>
</g>
</g>
<!-- Node22 -->
<g id="Node000022" class="node">
<title>Node22</title>
<g id="a_Node000022"><a xlink:href="_matrix_8h.html" target="_top" xlink:title="Fixed&#45;size matrix types for FE computations, backed by Eigen.">
<polygon fill="white" stroke="#666666" points="339.5,-184 254.5,-184 254.5,-165 339.5,-165 339.5,-184"/>
<text text-anchor="middle" x="297" y="-172" font-family="Helvetica,sans-Serif" font-size="10.00">Math/Matrix.h</text>
</a>
</g>
</g>
<!-- Node2&#45;&gt;Node22 -->
<g id="edge28_Node000002_Node000022" class="edge">
<title>Node2&#45;&gt;Node22</title>
<g id="a_edge28_Node000002_Node000022"><a xlink:title=" ">
<path fill="none" stroke="#63b8ff" d="M326.22,-219.75C321.38,-212.42 314.32,-201.73 308.36,-192.7"/>
<polygon fill="#63b8ff" stroke="#63b8ff" points="311.1,-190.5 302.67,-184.09 305.26,-194.36 311.1,-190.5"/>
</a>
</g>
</g>
<!-- Node23 -->
<g id="Node000023" class="node">
<title>Node23</title>
<g id="a_Node000023"><a xlink:href="_f_e_2_math_2_vector_8h.html" target="_top" xlink:title="Fixed&#45;size vector types for FE computations, backed by Eigen.">
<polygon fill="white" stroke="#666666" points="383,-129 327,-129 327,-110 383,-110 383,-129"/>
<text text-anchor="middle" x="355" y="-117" font-family="Helvetica,sans-Serif" font-size="10.00">Vector.h</text>
</a>
</g>
</g>
<!-- Node2&#45;&gt;Node23 -->
<g id="edge34_Node000002_Node000023" class="edge">
<title>Node2&#45;&gt;Node23</title>
<g id="a_edge34_Node000002_Node000023"><a xlink:title=" ">
<path fill="none" stroke="#63b8ff" d="M335.81,-219.82C339.53,-210.98 345.04,-196.8 348,-184 351.41,-169.27 353.17,-152.23 354.08,-139.51"/>
<polygon fill="#63b8ff" stroke="#63b8ff" points="357.59,-139.43 354.69,-129.24 350.6,-139.01 357.59,-139.43"/>
</a>
</g>
</g>
<!-- Node2&#45;&gt;Node25 -->
<g id="edge37_Node000002_Node000025" class="edge">
<title>Node2&#45;&gt;Node25</title>
<g id="a_edge37_Node000002_Node000025"><a xlink:title=" ">
<path fill="none" stroke="#63b8ff" d="M378.79,-220.17C423.69,-211.91 493.28,-198.45 553,-184 553.1,-183.98 553.2,-183.95 553.3,-183.93"/>
<polygon fill="#63b8ff" stroke="#63b8ff" points="553.93,-187.38 562.72,-181.47 552.16,-180.61 553.93,-187.38"/>
</a>
</g>
</g>
<!-- Node4 -->
<g id="Node000004" class="node">
<title>Node4</title>
<g id="a_Node000004"><a xlink:href="_f_e_exception_8h.html" target="_top" xlink:title="Exception hierarchy for error handling in the FE library.">
<polygon fill="white" stroke="#666666" points="570,-129 484,-129 484,-110 570,-110 570,-129"/>
<text text-anchor="middle" x="527" y="-117" font-family="Helvetica,sans-Serif" font-size="10.00">FEException.h</text>
</a>
</g>
</g>
<!-- Node3&#45;&gt;Node4 -->
<g id="edge3_Node000003_Node000004" class="edge">
<title>Node3&#45;&gt;Node4</title>
<g id="a_edge3_Node000003_Node000004"><a xlink:title=" ">
<path fill="none" stroke="#63b8ff" d="M497.78,-164.75C502.62,-157.42 509.68,-146.73 515.64,-137.7"/>
<polygon fill="#63b8ff" stroke="#63b8ff" points="518.74,-139.36 521.33,-129.09 512.9,-135.5 518.74,-139.36"/>
</a>
</g>
</g>
<!-- Node5 -->
<g id="Node000005" class="node">
<title>Node5</title>
<g id="a_Node000005"><a xlink:href="_exception_8h_source.html" target="_top" xlink:title=" ">
<polygon fill="white" stroke="#666666" points="576.5,-74 477.5,-74 477.5,-55 576.5,-55 576.5,-74"/>
<text text-anchor="middle" x="527" y="-62" font-family="Helvetica,sans-Serif" font-size="10.00">Core/Exception.h</text>
</a>
</g>
</g>
<!-- Node4&#45;&gt;Node5 -->
<g id="edge4_Node000004_Node000005" class="edge">
<title>Node4&#45;&gt;Node5</title>
<g id="a_edge4_Node000004_Node000005"><a xlink:title=" ">
<path fill="none" stroke="#63b8ff" d="M527,-109.75C527,-102.8 527,-92.85 527,-84.13"/>
<polygon fill="#63b8ff" stroke="#63b8ff" points="530.5,-84.09 527,-74.09 523.5,-84.09 530.5,-84.09"/>
</a>
</g>
</g>
<!-- Node10 -->
<g id="Node000010" class="node">
<title>Node10</title>
<g id="a_Node000010"><a xlink:title=" ">
<polygon fill="#e0e0e0" stroke="#999999" points="840,-19 784,-19 784,0 840,0 840,-19"/>
<text text-anchor="middle" x="812" y="-7" font-family="Helvetica,sans-Serif" font-size="10.00">sstream</text>
</a>
</g>
</g>
<!-- Node4&#45;&gt;Node10 -->
<g id="edge16_Node000004_Node000010" class="edge">
<title>Node4&#45;&gt;Node10</title>
<g id="a_edge16_Node000004_Node000010"><a xlink:title=" ">
<path fill="none" stroke="#63b8ff" d="M549.84,-109.84C600.41,-90.68 721.94,-44.63 780.03,-22.62"/>
<polygon fill="#63b8ff" stroke="#63b8ff" points="781.34,-25.86 789.45,-19.05 778.85,-19.32 781.34,-25.86"/>
</a>
</g>
</g>
<!-- Node11 -->
<g id="Node000011" class="node">
<title>Node11</title>
<g id="a_Node000011"><a xlink:title=" ">
<polygon fill="#e0e0e0" stroke="#999999" points="251,-19 207,-19 207,0 251,0 251,-19"/>
<text text-anchor="middle" x="229" y="-7" font-family="Helvetica,sans-Serif" font-size="10.00">string</text>
</a>
</g>
</g>
<!-- Node4&#45;&gt;Node11 -->
<g id="edge17_Node000004_Node000011" class="edge">
<title>Node4&#45;&gt;Node11</title>
<g id="a_edge17_Node000004_Node000011"><a xlink:title=" ">
<path fill="none" stroke="#63b8ff" d="M510.37,-109.79C484.8,-96.64 434.07,-71.52 389,-55 385.92,-53.87 306.57,-31.92 260.79,-19.27"/>
<polygon fill="#63b8ff" stroke="#63b8ff" points="261.6,-15.87 251.03,-16.58 259.74,-22.61 261.6,-15.87"/>
</a>
</g>
</g>
<!-- Node14 -->
<g id="Node000014" class="node">
<title>Node14</title>
<g id="a_Node000014"><a xlink:title=" ">
<polygon fill="#e0e0e0" stroke="#999999" points="903.5,-19 858.5,-19 858.5,0 903.5,0 903.5,-19"/>
<text text-anchor="middle" x="881" y="-7" font-family="Helvetica,sans-Serif" font-size="10.00">utility</text>
</a>
</g>
</g>
<!-- Node4&#45;&gt;Node14 -->
<g id="edge18_Node000004_Node000014" class="edge">
<title>Node4&#45;&gt;Node14</title>
<g id="a_edge18_Node000004_Node000014"><a xlink:title=" ">
<path fill="none" stroke="#63b8ff" d="M558.37,-109.96C590.13,-101.23 640.62,-87.14 684,-74 742.25,-56.36 809.65,-34.27 848.6,-21.34"/>
<polygon fill="#63b8ff" stroke="#63b8ff" points="849.95,-24.58 858.33,-18.1 847.74,-17.93 849.95,-24.58"/>
</a>
</g>
</g>
<!-- Node6 -->
<g id="Node000006" class="node">
<title>Node6</title>
<g id="a_Node000006"><a xlink:title=" ">
<polygon fill="#e0e0e0" stroke="#999999" points="189,-19 139,-19 139,0 189,0 189,-19"/>
<text text-anchor="middle" x="164" y="-7" font-family="Helvetica,sans-Serif" font-size="10.00">cstdint</text>
</a>
</g>
</g>
<!-- Node5&#45;&gt;Node6 -->
<g id="edge5_Node000005_Node000006" class="edge">
<title>Node5&#45;&gt;Node6</title>
<g id="a_edge5_Node000005_Node000006"><a xlink:title=" ">
<path fill="none" stroke="#63b8ff" d="M477.4,-58.52C414.77,-51.85 303.57,-38.74 199.25,-19.05"/>
<polygon fill="#63b8ff" stroke="#63b8ff" points="199.66,-15.57 189.18,-17.12 198.35,-22.44 199.66,-15.57"/>
</a>
</g>
</g>
<!-- Node7 -->
<g id="Node000007" class="node">
<title>Node7</title>
<g id="a_Node000007"><a xlink:title=" ">
<polygon fill="#e0e0e0" stroke="#999999" points="765.5,-19 716.5,-19 716.5,0 765.5,0 765.5,-19"/>
<text text-anchor="middle" x="741" y="-7" font-family="Helvetica,sans-Serif" font-size="10.00">cstdlib</text>
</a>
</g>
</g>
<!-- Node5&#45;&gt;Node7 -->
<g id="edge6_Node000005_Node000007" class="edge">
<title>Node5&#45;&gt;Node7</title>
<g id="a_edge6_Node000005_Node000007"><a xlink:title=" ">
<path fill="none" stroke="#63b8ff" d="M561.51,-55C595.77,-46.55 650.04,-33.15 706.64,-19.08"/>
<polygon fill="#63b8ff" stroke="#63b8ff" points="707.63,-22.45 716.49,-16.64 705.94,-15.65 707.63,-22.45"/>
</a>
</g>
</g>
<!-- Node8 -->
<g id="Node000008" class="node">
<title>Node8</title>
<g id="a_Node000008"><a xlink:title=" ">
<polygon fill="#e0e0e0" stroke="#999999" points="399.5,-19 334.5,-19 334.5,0 399.5,0 399.5,-19"/>
<text text-anchor="middle" x="367" y="-7" font-family="Helvetica,sans-Serif" font-size="10.00">exception</text>
</a>
</g>
</g>
<!-- Node5&#45;&gt;Node8 -->
<g id="edge7_Node000005_Node000008" class="edge">
<title>Node5&#45;&gt;Node8</title>
<g id="a_edge7_Node000005_Node000008"><a xlink:title=" ">
<path fill="none" stroke="#63b8ff" d="M501.29,-54.98C474.55,-46.13 432.47,-32.19 402.55,-22.28"/>
<polygon fill="#63b8ff" stroke="#63b8ff" points="403.5,-18.9 392.91,-19.08 401.3,-25.55 403.5,-18.9"/>
</a>
</g>
</g>
<!-- Node9 -->
<g id="Node000009" class="node">
<title>Node9</title>
<g id="a_Node000009"><a xlink:title=" ">
<polygon fill="#e0e0e0" stroke="#999999" points="478,-19 418,-19 418,0 478,0 478,-19"/>
<text text-anchor="middle" x="448" y="-7" font-family="Helvetica,sans-Serif" font-size="10.00">iostream</text>
</a>
</g>
</g>
<!-- Node5&#45;&gt;Node9 -->
<g id="edge8_Node000005_Node000009" class="edge">
<title>Node5&#45;&gt;Node9</title>
<g id="a_edge8_Node000005_Node000009"><a xlink:title=" ">
<path fill="none" stroke="#63b8ff" d="M514.31,-54.98C502.17,-46.84 483.64,-34.41 469.25,-24.76"/>
<polygon fill="#63b8ff" stroke="#63b8ff" points="471.18,-21.84 460.92,-19.17 467.28,-27.65 471.18,-21.84"/>
</a>
</g>
</g>
<!-- Node5&#45;&gt;Node10 -->
<g id="edge9_Node000005_Node000010" class="edge">
<title>Node5&#45;&gt;Node10</title>
<g id="a_edge9_Node000005_Node000010"><a xlink:title=" ">
<path fill="none" stroke="#63b8ff" d="M576.54,-55.33C624.54,-47.26 699.63,-34.2 773.77,-19.17"/>
<polygon fill="#63b8ff" stroke="#63b8ff" points="774.65,-22.57 783.75,-17.14 773.25,-15.71 774.65,-22.57"/>
</a>
</g>
</g>
<!-- Node5&#45;&gt;Node11 -->
<g id="edge10_Node000005_Node000011" class="edge">
<title>Node5&#45;&gt;Node11</title>
<g id="a_edge10_Node000005_Node000011"><a xlink:title=" ">
<path fill="none" stroke="#63b8ff" d="M477.5,-56.8C425.78,-49.45 342.13,-36.6 261.14,-19.07"/>
<polygon fill="#63b8ff" stroke="#63b8ff" points="261.8,-15.63 251.28,-16.9 260.3,-22.46 261.8,-15.63"/>
</a>
</g>
</g>
<!-- Node12 -->
<g id="Node000012" class="node">
<title>Node12</title>
<g id="a_Node000012"><a xlink:title=" ">
<polygon fill="#e0e0e0" stroke="#999999" points="569.5,-19 496.5,-19 496.5,0 569.5,0 569.5,-19"/>
<text text-anchor="middle" x="533" y="-7" font-family="Helvetica,sans-Serif" font-size="10.00">string_view</text>
</a>
</g>
</g>
<!-- Node5&#45;&gt;Node12 -->
<g id="edge11_Node000005_Node000012" class="edge">
<title>Node5&#45;&gt;Node12</title>
<g id="a_edge11_Node000005_Node000012"><a xlink:title=" ">
<path fill="none" stroke="#63b8ff" d="M527.99,-54.75C528.78,-47.8 529.9,-37.85 530.89,-29.13"/>
<polygon fill="#63b8ff" stroke="#63b8ff" points="534.38,-29.42 532.03,-19.09 527.42,-28.63 534.38,-29.42"/>
</a>
</g>
</g>
<!-- Node13 -->
<g id="Node000013" class="node">
<title>Node13</title>
<g id="a_Node000013"><a xlink:title=" ">
<polygon fill="#e0e0e0" stroke="#999999" points="115.5,-19 46.5,-19 46.5,0 115.5,0 115.5,-19"/>
<text text-anchor="middle" x="81" y="-7" font-family="Helvetica,sans-Serif" font-size="10.00">type_traits</text>
</a>
</g>
</g>
<!-- Node5&#45;&gt;Node13 -->
<g id="edge12_Node000005_Node000013" class="edge">
<title>Node5&#45;&gt;Node13</title>
<g id="a_edge12_Node000005_Node000013"><a xlink:title=" ">
<path fill="none" stroke="#63b8ff" d="M477.36,-58.9C402.09,-51.71 254.62,-36.78 130,-19 128.7,-18.81 127.39,-18.62 126.06,-18.42"/>
<polygon fill="#63b8ff" stroke="#63b8ff" points="126.18,-14.9 115.76,-16.8 125.09,-21.81 126.18,-14.9"/>
</a>
</g>
</g>
<!-- Node5&#45;&gt;Node14 -->
<g id="edge13_Node000005_Node000014" class="edge">
<title>Node5&#45;&gt;Node14</title>
<g id="a_edge13_Node000005_Node000014"><a xlink:title=" ">
<path fill="none" stroke="#63b8ff" d="M576.69,-58.54C638.23,-51.98 746.4,-39.06 848.5,-18.86"/>
<polygon fill="#63b8ff" stroke="#63b8ff" points="849.24,-22.28 858.35,-16.88 847.86,-15.42 849.24,-22.28"/>
</a>
</g>
</g>
<!-- Node5&#45;&gt;Node15 -->
<g id="edge14_Node000005_Node000015" class="edge">
<title>Node5&#45;&gt;Node15</title>
<g id="a_edge14_Node000005_Node000015"><a xlink:title=" ">
<path fill="none" stroke="#63b8ff" d="M485.87,-54.98C447.13,-46.83 387.22,-33.93 326.82,-19.37"/>
<polygon fill="#63b8ff" stroke="#63b8ff" points="327.28,-15.88 316.74,-16.93 325.63,-22.68 327.28,-15.88"/>
</a>
</g>
</g>
<!-- Node16 -->
<g id="Node000016" class="node">
<title>Node16</title>
<g id="a_Node000016"><a xlink:title=" ">
<polygon fill="#e0e0e0" stroke="#999999" points="698.5,-19 587.5,-19 587.5,0 698.5,0 698.5,-19"/>
<text text-anchor="middle" x="643" y="-7" font-family="Helvetica,sans-Serif" font-size="10.00">PlatformSupport.inl</text>
</a>
</g>
</g>
<!-- Node5&#45;&gt;Node16 -->
<g id="edge15_Node000005_Node000016" class="edge">
<title>Node5&#45;&gt;Node16</title>
<g id="a_edge15_Node000005_Node000016"><a xlink:title=" ">
<path fill="none" stroke="#63b8ff" d="M545.64,-54.98C564.3,-46.46 593.25,-33.23 614.74,-23.41"/>
<polygon fill="#63b8ff" stroke="#63b8ff" points="616.38,-26.51 624.02,-19.17 613.47,-20.14 616.38,-26.51"/>
</a>
</g>
</g>
<!-- Node17&#45;&gt;Node18 -->
<g id="edge20_Node000017_Node000018" class="edge">
<title>Node17&#45;&gt;Node18</title>
<g id="a_edge20_Node000017_Node000018"><a xlink:title=" ">
<path fill="none" stroke="#63b8ff" d="M151.22,-164.75C146.38,-157.42 139.32,-146.73 133.36,-137.7"/>
<polygon fill="#63b8ff" stroke="#63b8ff" points="136.1,-135.5 127.67,-129.09 130.26,-139.36 136.1,-135.5"/>
</a>
</g>
</g>
<!-- Node17&#45;&gt;Node20 -->
<g id="edge27_Node000017_Node000020" class="edge">
<title>Node17&#45;&gt;Node20</title>
<g id="a_edge27_Node000017_Node000020"><a xlink:title=" ">
<path fill="none" stroke="#63b8ff" d="M163.24,-164.84C172.54,-152.18 190.89,-128.16 209,-110 219.59,-99.38 232.52,-88.66 243.07,-80.4"/>
<polygon fill="#63b8ff" stroke="#63b8ff" points="245.48,-82.96 251.28,-74.09 241.21,-77.41 245.48,-82.96"/>
</a>
</g>
</g>
<!-- Node18&#45;&gt;Node6 -->
<g id="edge23_Node000018_Node000006" class="edge">
<title>Node18&#45;&gt;Node6</title>
<g id="a_edge23_Node000018_Node000006"><a xlink:title=" ">
<path fill="none" stroke="#63b8ff" d="M129.06,-109.85C135.71,-101.27 145.46,-87.48 151,-74 156.95,-59.51 160.28,-42 162.07,-29.04"/>
<polygon fill="#63b8ff" stroke="#63b8ff" points="165.56,-29.36 163.28,-19.01 158.61,-28.52 165.56,-29.36"/>
</a>
</g>
</g>
<!-- Node18&#45;&gt;Node11 -->
<g id="edge24_Node000018_Node000011" class="edge">
<title>Node18&#45;&gt;Node11</title>
<g id="a_edge24_Node000018_Node000011"><a xlink:title=" ">
<path fill="none" stroke="#63b8ff" d="M131.51,-109.79C141.11,-100.92 156.29,-86.72 169,-74 184.65,-58.33 201.97,-39.88 213.96,-26.92"/>
<polygon fill="#63b8ff" stroke="#63b8ff" points="216.8,-29 221,-19.27 211.65,-24.26 216.8,-29"/>
</a>
</g>
</g>
<!-- Node18&#45;&gt;Node13 -->
<g id="edge25_Node000018_Node000013" class="edge">
<title>Node18&#45;&gt;Node13</title>
<g id="a_edge25_Node000018_Node000013"><a xlink:title=" ">
<path fill="none" stroke="#63b8ff" d="M113.39,-109.81C105.62,-101.4 94.59,-87.92 89,-74 83.24,-59.64 81.38,-42.12 80.88,-29.12"/>
<polygon fill="#63b8ff" stroke="#63b8ff" points="84.38,-29.01 80.73,-19.06 77.38,-29.11 84.38,-29.01"/>
</a>
</g>
</g>
<!-- Node18&#45;&gt;Node19 -->
<g id="edge21_Node000018_Node000019" class="edge">
<title>Node18&#45;&gt;Node19</title>
<g id="a_edge21_Node000018_Node000019"><a xlink:title=" ">
<path fill="none" stroke="#63b8ff" d="M105.77,-109.98C89.82,-101.61 65.22,-88.7 46.62,-78.95"/>
<polygon fill="#63b8ff" stroke="#63b8ff" points="48,-75.72 37.52,-74.17 44.75,-81.92 48,-75.72"/>
</a>
</g>
</g>
<!-- Node18&#45;&gt;Node20 -->
<g id="edge22_Node000018_Node000020" class="edge">
<title>Node18&#45;&gt;Node20</title>
<g id="a_edge22_Node000018_Node000020"><a xlink:title=" ">
<path fill="none" stroke="#63b8ff" d="M144.65,-109.98C167.85,-101.27 204.12,-87.63 230.4,-77.75"/>
<polygon fill="#63b8ff" stroke="#63b8ff" points="231.8,-80.97 239.93,-74.17 229.34,-74.41 231.8,-80.97"/>
</a>
</g>
</g>
<!-- Node21 -->
<g id="Node000021" class="node">
<title>Node21</title>
<g id="a_Node000021"><a xlink:title=" ">
<polygon fill="#e0e0e0" stroke="#999999" points="142,-74 98,-74 98,-55 142,-55 142,-74"/>
<text text-anchor="middle" x="120" y="-62" font-family="Helvetica,sans-Serif" font-size="10.00">limits</text>
</a>
</g>
</g>
<!-- Node18&#45;&gt;Node21 -->
<g id="edge26_Node000018_Node000021" class="edge">
<title>Node18&#45;&gt;Node21</title>
<g id="a_edge26_Node000018_Node000021"><a xlink:title=" ">
<path fill="none" stroke="#63b8ff" d="M121.67,-109.75C121.41,-102.8 121.03,-92.85 120.7,-84.13"/>
<polygon fill="#63b8ff" stroke="#63b8ff" points="124.2,-83.95 120.32,-74.09 117.2,-84.21 124.2,-83.95"/>
</a>
</g>
</g>
<!-- Node22&#45;&gt;Node20 -->
<g id="edge33_Node000022_Node000020" class="edge">
<title>Node22&#45;&gt;Node20</title>
<g id="a_edge33_Node000022_Node000020"><a xlink:title=" ">
<path fill="none" stroke="#63b8ff" d="M294.22,-164.66C288.69,-147.09 276.21,-107.45 268.81,-83.95"/>
<polygon fill="#63b8ff" stroke="#63b8ff" points="272.07,-82.65 265.73,-74.16 265.39,-84.75 272.07,-82.65"/>
</a>
</g>
</g>
<!-- Node22&#45;&gt;Node23 -->
<g id="edge29_Node000022_Node000023" class="edge">
<title>Node22&#45;&gt;Node23</title>
<g id="a_edge29_Node000022_Node000023"><a xlink:title=" ">
<path fill="none" stroke="#63b8ff" d="M306.32,-164.98C314.81,-157.23 327.56,-145.58 337.88,-136.14"/>
<polygon fill="#63b8ff" stroke="#63b8ff" points="340.49,-138.5 345.51,-129.17 335.77,-133.33 340.49,-138.5"/>
</a>
</g>
</g>
<!-- Node24 -->
<g id="Node000024" class="node">
<title>Node24</title>
<g id="a_Node000024"><a xlink:title=" ">
<polygon fill="#e0e0e0" stroke="#999999" points="380.5,-74 311.5,-74 311.5,-55 380.5,-55 380.5,-74"/>
<text text-anchor="middle" x="346" y="-62" font-family="Helvetica,sans-Serif" font-size="10.00">Eigen/Core</text>
</a>
</g>
</g>
<!-- Node22&#45;&gt;Node24 -->
<g id="edge32_Node000022_Node000024" class="edge">
<title>Node22&#45;&gt;Node24</title>
<g id="a_edge32_Node000022_Node000024"><a xlink:title=" ">
<path fill="none" stroke="#63b8ff" d="M299.21,-164.61C302.48,-152.09 309.19,-128.7 318,-110 322.48,-100.51 328.58,-90.56 333.95,-82.49"/>
<polygon fill="#63b8ff" stroke="#63b8ff" points="336.99,-84.23 339.77,-74.01 331.22,-80.27 336.99,-84.23"/>
</a>
</g>
</g>
<!-- Node23&#45;&gt;Node20 -->
<g id="edge31_Node000023_Node000020" class="edge">
<title>Node23&#45;&gt;Node20</title>
<g id="a_edge31_Node000023_Node000020"><a xlink:title=" ">
<path fill="none" stroke="#63b8ff" d="M340.22,-109.98C325.82,-101.69 303.69,-88.94 286.81,-79.22"/>
<polygon fill="#63b8ff" stroke="#63b8ff" points="288.46,-76.13 278.05,-74.17 284.97,-82.19 288.46,-76.13"/>
</a>
</g>
</g>
<!-- Node23&#45;&gt;Node24 -->
<g id="edge30_Node000023_Node000024" class="edge">
<title>Node23&#45;&gt;Node24</title>
<g id="a_edge30_Node000023_Node000024"><a xlink:title=" ">
<path fill="none" stroke="#63b8ff" d="M353.51,-109.75C352.33,-102.8 350.64,-92.85 349.16,-84.13"/>
<polygon fill="#63b8ff" stroke="#63b8ff" points="352.58,-83.36 347.46,-74.09 345.68,-84.53 352.58,-83.36"/>
</a>
</g>
</g>
</g>
</svg>
