<?xml version="1.0" encoding="UTF-8" standalone="no"?>
<!DOCTYPE svg PUBLIC "-//W3C//DTD SVG 1.1//EN"
 "http://www.w3.org/Graphics/SVG/1.1/DTD/svg11.dtd">
<!-- Generated by graphviz version 2.43.0 (0)
 -->
<!-- Title: CappingSurfaceGeometryException Pages: 1 -->
<svg width="198pt" height="137pt"
 viewBox="0.00 0.00 198.00 137.00" xmlns="http://www.w3.org/2000/svg" xmlns:xlink="http://www.w3.org/1999/xlink">
<g id="graph0" class="graph" transform="scale(1 1) rotate(0) translate(4 133)">
<title>CappingSurfaceGeometryException</title>
<!-- Node1 -->
<g id="Node000001" class="node">
<title>Node1</title>
<g id="a_Node000001"><a xlink:title="Geometry or Jacobian error during cap surface integration.">
<polygon fill="#999999" stroke="#666666" points="190,-19 0,-19 0,0 190,0 190,-19"/>
<text text-anchor="middle" x="95" y="-7" font-family="Helvetica,sans-Serif" font-size="10.00">CappingSurfaceGeometryException</text>
</a>
</g>
</g>
<!-- Node2 -->
<g id="Node000002" class="node">
<title>Node2</title>
<g id="a_Node000002"><a xlink:href="class_capping_surface_base_exception.html" target="_top" xlink:title="Base exception for capping surface (cap VTP) errors.">
<polygon fill="white" stroke="#666666" points="177.5,-74 12.5,-74 12.5,-55 177.5,-55 177.5,-74"/>
<text text-anchor="middle" x="95" y="-62" font-family="Helvetica,sans-Serif" font-size="10.00">CappingSurfaceBaseException</text>
</a>
</g>
</g>
<!-- Node2&#45;&gt;Node1 -->
<g id="edge1_Node000001_Node000002" class="edge">
<title>Node2&#45;&gt;Node1</title>
<g id="a_edge1_Node000001_Node000002"><a xlink:title=" ">
<path fill="none" stroke="#63b8ff" d="M95,-44.66C95,-35.93 95,-25.99 95,-19.09"/>
<polygon fill="#63b8ff" stroke="#63b8ff" points="91.5,-44.75 95,-54.75 98.5,-44.75 91.5,-44.75"/>
</a>
</g>
</g>
<!-- Node3 -->
<g id="Node000003" class="node">
<title>Node3</title>
<g id="a_Node000003"><a xlink:title=" ">
<polygon fill="white" stroke="#666666" points="138,-129 52,-129 52,-110 138,-110 138,-129"/>
<text text-anchor="middle" x="95" y="-117" font-family="Helvetica,sans-Serif" font-size="10.00">std::exception</text>
</a>
</g>
</g>
<!-- Node3&#45;&gt;Node2 -->
<g id="edge2_Node000002_Node000003" class="edge">
<title>Node3&#45;&gt;Node2</title>
<g id="a_edge2_Node000002_Node000003"><a xlink:title=" ">
<path fill="none" stroke="#63b8ff" d="M95,-99.66C95,-90.93 95,-80.99 95,-74.09"/>
<polygon fill="#63b8ff" stroke="#63b8ff" points="91.5,-99.75 95,-109.75 98.5,-99.75 91.5,-99.75"/>
</a>
</g>
</g>
</g>
</svg>
