<?xml version="1.0" encoding="UTF-8" standalone="no"?>
<!DOCTYPE svg PUBLIC "-//W3C//DTD SVG 1.1//EN"
 "http://www.w3.org/Graphics/SVG/1.1/DTD/svg11.dtd">
<!-- Generated by graphviz version 2.43.0 (0)
 -->
<!-- Title: ActiveStressModelParameters Pages: 1 -->
<svg width="672pt" height="124pt"
 viewBox="0.00 0.00 672.00 123.50" xmlns="http://www.w3.org/2000/svg" xmlns:xlink="http://www.w3.org/1999/xlink">
<g id="graph0" class="graph" transform="scale(1 1) rotate(0) translate(4 119.5)">
<title>ActiveStressModelParameters</title>
<!-- Node1 -->
<g id="Node000001" class="node">
<title>Node1</title>
<g id="a_Node000001"><a xlink:title="Parameters for a generic active stress model.">
<polygon fill="#999999" stroke="#666666" points="288,-72.5 125,-72.5 125,-53.5 288,-53.5 288,-72.5"/>
<text text-anchor="middle" x="206.5" y="-60.5" font-family="Helvetica,sans-Serif" font-size="10.00">ActiveStressModelParameters</text>
</a>
</g>
</g>
<!-- Node3 -->
<g id="Node000003" class="node">
<title>Node3</title>
<g id="a_Node000003"><a xlink:href="class_active_stress_o_d_e_1_1_parameters.html" target="_top" xlink:title="Model parameters class.">
<polygon fill="white" stroke="#666666" points="486,-115.5 326,-115.5 326,-96.5 486,-96.5 486,-115.5"/>
<text text-anchor="middle" x="406" y="-103.5" font-family="Helvetica,sans-Serif" font-size="10.00">ActiveStressODE::Parameters</text>
</a>
</g>
</g>
<!-- Node1&#45;&gt;Node3 -->
<g id="edge2_Node000001_Node000003" class="edge">
<title>Node1&#45;&gt;Node3</title>
<g id="a_edge2_Node000001_Node000003"><a xlink:title=" ">
<path fill="none" stroke="#63b8ff" d="M261.24,-74.7C292.65,-81.54 331.78,-90.06 361.29,-96.48"/>
<polygon fill="#63b8ff" stroke="#63b8ff" points="261.85,-71.25 251.33,-72.54 260.36,-78.09 261.85,-71.25"/>
</a>
</g>
</g>
<!-- Node5 -->
<g id="Node000005" class="node">
<title>Node5</title>
<g id="a_Node000005"><a xlink:href="class_uniform_steady_active_stress_1_1_parameters.html" target="_top" xlink:title="Model parameters class.">
<polygon fill="white" stroke="#666666" points="481.5,-78 330.5,-78 330.5,-48 481.5,-48 481.5,-78"/>
<text text-anchor="start" x="338.5" y="-66" font-family="Helvetica,sans-Serif" font-size="10.00">UniformSteadyActiveStress</text>
<text text-anchor="middle" x="406" y="-55" font-family="Helvetica,sans-Serif" font-size="10.00">::Parameters</text>
</a>
</g>
</g>
<!-- Node1&#45;&gt;Node5 -->
<g id="edge4_Node000001_Node000005" class="edge">
<title>Node1&#45;&gt;Node5</title>
<g id="a_edge4_Node000001_Node000005"><a xlink:title=" ">
<path fill="none" stroke="#63b8ff" d="M298.34,-63C309.06,-63 319.91,-63 330.37,-63"/>
<polygon fill="#63b8ff" stroke="#63b8ff" points="298.12,-59.5 288.12,-63 298.12,-66.5 298.12,-59.5"/>
</a>
</g>
</g>
<!-- Node6 -->
<g id="Node000006" class="node">
<title>Node6</title>
<g id="a_Node000006"><a xlink:href="class_uniform_unsteady_active_stress_1_1_parameters.html" target="_top" xlink:title="Model parameters class.">
<polygon fill="white" stroke="#666666" points="488,-30 324,-30 324,0 488,0 488,-30"/>
<text text-anchor="start" x="332" y="-18" font-family="Helvetica,sans-Serif" font-size="10.00">UniformUnsteadyActiveStress</text>
<text text-anchor="middle" x="406" y="-7" font-family="Helvetica,sans-Serif" font-size="10.00">::Parameters</text>
</a>
</g>
</g>
<!-- Node1&#45;&gt;Node6 -->
<g id="edge5_Node000001_Node000006" class="edge">
<title>Node1&#45;&gt;Node6</title>
<g id="a_edge5_Node000001_Node000006"><a xlink:title=" ">
<path fill="none" stroke="#63b8ff" d="M257.02,-50.96C283.09,-44.63 315.31,-36.8 343.02,-30.06"/>
<polygon fill="#63b8ff" stroke="#63b8ff" points="255.88,-47.64 246.99,-53.4 257.54,-54.44 255.88,-47.64"/>
</a>
</g>
</g>
<!-- Node2 -->
<g id="Node000002" class="node">
<title>Node2</title>
<g id="a_Node000002"><a xlink:href="class_parameter_lists.html" target="_top" xlink:title="Defines parameter name and value, and stores them in maps for settng values from XML.">
<polygon fill="white" stroke="#666666" points="89,-72.5 0,-72.5 0,-53.5 89,-53.5 89,-72.5"/>
<text text-anchor="middle" x="44.5" y="-60.5" font-family="Helvetica,sans-Serif" font-size="10.00">ParameterLists</text>
</a>
</g>
</g>
<!-- Node2&#45;&gt;Node1 -->
<g id="edge1_Node000001_Node000002" class="edge">
<title>Node2&#45;&gt;Node1</title>
<g id="a_edge1_Node000001_Node000002"><a xlink:title=" ">
<path fill="none" stroke="#63b8ff" d="M99.39,-63C107.62,-63 116.26,-63 124.91,-63"/>
<polygon fill="#63b8ff" stroke="#63b8ff" points="99.22,-59.5 89.22,-63 99.22,-66.5 99.22,-59.5"/>
</a>
</g>
</g>
<!-- Node4 -->
<g id="Node000004" class="node">
<title>Node4</title>
<g id="a_Node000004"><a xlink:href="class_nash_panfilov_1_1_parameters.html" target="_top" xlink:title="Model parameters class.">
<polygon fill="white" stroke="#666666" points="664,-115.5 524,-115.5 524,-96.5 664,-96.5 664,-115.5"/>
<text text-anchor="middle" x="594" y="-103.5" font-family="Helvetica,sans-Serif" font-size="10.00">NashPanfilov::Parameters</text>
</a>
</g>
</g>
<!-- Node3&#45;&gt;Node4 -->
<g id="edge3_Node000003_Node000004" class="edge">
<title>Node3&#45;&gt;Node4</title>
<g id="a_edge3_Node000003_Node000004"><a xlink:title=" ">
<path fill="none" stroke="#63b8ff" d="M496.21,-106C505.52,-106 514.88,-106 523.91,-106"/>
<polygon fill="#63b8ff" stroke="#63b8ff" points="496.15,-102.5 486.15,-106 496.15,-109.5 496.15,-102.5"/>
</a>
</g>
</g>
</g>
</svg>
