<?xml version="1.0" encoding="UTF-8" standalone="no"?>
<!DOCTYPE svg PUBLIC "-//W3C//DTD SVG 1.1//EN"
 "http://www.w3.org/Graphics/SVG/1.1/DTD/svg11.dtd">
<!-- Generated by graphviz version 2.43.0 (0)
 -->
<!-- Title: svmp::CoreException Pages: 1 -->
<svg width="628pt" height="249pt"
 viewBox="0.00 0.00 628.00 249.00" xmlns="http://www.w3.org/2000/svg" xmlns:xlink="http://www.w3.org/1999/xlink">
<g id="graph0" class="graph" transform="scale(1 1) rotate(0) translate(4 245)">
<title>svmp::CoreException</title>
<!-- Node1 -->
<g id="Node000001" class="node">
<title>Node1</title>
<g id="a_Node000001"><a xlink:title=" ">
<polygon fill="#999999" stroke="#666666" points="400,-130 280,-130 280,-111 400,-111 400,-130"/>
<text text-anchor="middle" x="340" y="-118" font-family="Helvetica,sans-Serif" font-size="10.00">svmp::CoreException</text>
</a>
</g>
</g>
<!-- Node4 -->
<g id="Node000004" class="node">
<title>Node4</title>
<g id="a_Node000004"><a xlink:href="classsvmp_1_1_dependency_exception.html" target="_top" xlink:title="A required dependency is missing or failed to load.">
<polygon fill="white" stroke="#666666" points="607,-241 449,-241 449,-222 607,-222 607,-241"/>
<text text-anchor="middle" x="528" y="-229" font-family="Helvetica,sans-Serif" font-size="10.00">svmp::DependencyException</text>
</a>
</g>
</g>
<!-- Node1&#45;&gt;Node4 -->
<g id="edge3_Node000001_Node000004" class="edge">
<title>Node1&#45;&gt;Node4</title>
<g id="a_edge3_Node000001_Node000004"><a xlink:title=" ">
<path fill="none" stroke="#63b8ff" d="M354.03,-138.51C370.56,-159.94 401.16,-195.14 436,-213.5 442.41,-216.88 449.38,-219.63 456.51,-221.86"/>
<polygon fill="#63b8ff" stroke="#63b8ff" points="356.63,-136.15 347.83,-130.25 351.03,-140.35 356.63,-136.15"/>
</a>
</g>
</g>
<!-- Node5 -->
<g id="Node000005" class="node">
<title>Node5</title>
<g id="a_Node000005"><a xlink:href="classsvmp_1_1_file_format_exception.html" target="_top" xlink:title="An exception raised when a file cannot be parsed or has an invalid format.">
<polygon fill="white" stroke="#666666" points="602.5,-204 453.5,-204 453.5,-185 602.5,-185 602.5,-204"/>
<text text-anchor="middle" x="528" y="-192" font-family="Helvetica,sans-Serif" font-size="10.00">svmp::FileFormatException</text>
</a>
</g>
</g>
<!-- Node1&#45;&gt;Node5 -->
<g id="edge4_Node000001_Node000005" class="edge">
<title>Node1&#45;&gt;Node5</title>
<g id="a_edge4_Node000001_Node000005"><a xlink:title=" ">
<path fill="none" stroke="#63b8ff" d="M362.43,-135.99C381.01,-148.72 409.09,-166.25 436,-176.5 444.88,-179.88 454.5,-182.66 464.05,-184.94"/>
<polygon fill="#63b8ff" stroke="#63b8ff" points="364.31,-133.04 354.11,-130.19 360.31,-138.78 364.31,-133.04"/>
</a>
</g>
</g>
<!-- Node6 -->
<g id="Node000006" class="node">
<title>Node6</title>
<g id="a_Node000006"><a xlink:href="classsvmp_1_1_file_not_found_exception.html" target="_top" xlink:title="An exception raised when a file cannot be opened.">
<polygon fill="white" stroke="#666666" points="608.5,-167 447.5,-167 447.5,-148 608.5,-148 608.5,-167"/>
<text text-anchor="middle" x="528" y="-155" font-family="Helvetica,sans-Serif" font-size="10.00">svmp::FileNotFoundException</text>
</a>
</g>
</g>
<!-- Node1&#45;&gt;Node6 -->
<g id="edge5_Node000001_Node000006" class="edge">
<title>Node1&#45;&gt;Node6</title>
<g id="a_edge5_Node000001_Node000006"><a xlink:title=" ">
<path fill="none" stroke="#63b8ff" d="M398.94,-132.11C411.18,-134.55 424.01,-137.12 436,-139.5 449.9,-142.26 465,-145.26 478.82,-147.99"/>
<polygon fill="#63b8ff" stroke="#63b8ff" points="399.33,-128.62 388.84,-130.09 397.96,-135.48 399.33,-128.62"/>
</a>
</g>
</g>
<!-- Node7 -->
<g id="Node000007" class="node">
<title>Node7</title>
<g id="a_Node000007"><a xlink:href="classsvmp_1_1_index_out_of_range_exception.html" target="_top" xlink:title="An index is outside its valid range.">
<polygon fill="white" stroke="#666666" points="620,-130 436,-130 436,-111 620,-111 620,-130"/>
<text text-anchor="middle" x="528" y="-118" font-family="Helvetica,sans-Serif" font-size="10.00">svmp::IndexOutOfRangeException</text>
</a>
</g>
</g>
<!-- Node1&#45;&gt;Node7 -->
<g id="edge6_Node000001_Node000007" class="edge">
<title>Node1&#45;&gt;Node7</title>
<g id="a_edge6_Node000001_Node000007"><a xlink:title=" ">
<path fill="none" stroke="#63b8ff" d="M410.15,-120.5C418.52,-120.5 427.16,-120.5 435.78,-120.5"/>
<polygon fill="#63b8ff" stroke="#63b8ff" points="410.11,-117 400.11,-120.5 410.11,-124 410.11,-117"/>
</a>
</g>
</g>
<!-- Node8 -->
<g id="Node000008" class="node">
<title>Node8</title>
<g id="a_Node000008"><a xlink:href="classsvmp_1_1_internal_error_exception.html" target="_top" xlink:title="Internal error exception.">
<polygon fill="white" stroke="#666666" points="607,-93 449,-93 449,-74 607,-74 607,-93"/>
<text text-anchor="middle" x="528" y="-81" font-family="Helvetica,sans-Serif" font-size="10.00">svmp::InternalErrorException</text>
</a>
</g>
</g>
<!-- Node1&#45;&gt;Node8 -->
<g id="edge7_Node000001_Node000008" class="edge">
<title>Node1&#45;&gt;Node8</title>
<g id="a_edge7_Node000001_Node000008"><a xlink:title=" ">
<path fill="none" stroke="#63b8ff" d="M398.94,-108.89C411.18,-106.45 424.01,-103.88 436,-101.5 449.9,-98.74 465,-95.74 478.82,-93.01"/>
<polygon fill="#63b8ff" stroke="#63b8ff" points="397.96,-105.52 388.84,-110.91 399.33,-112.38 397.96,-105.52"/>
</a>
</g>
</g>
<!-- Node9 -->
<g id="Node000009" class="node">
<title>Node9</title>
<g id="a_Node000009"><a xlink:href="classsvmp_1_1_not_implemented_exception.html" target="_top" xlink:title="A requested operation or feature is not implemented.">
<polygon fill="white" stroke="#666666" points="618,-56 438,-56 438,-37 618,-37 618,-56"/>
<text text-anchor="middle" x="528" y="-44" font-family="Helvetica,sans-Serif" font-size="10.00">svmp::NotImplementedException</text>
</a>
</g>
</g>
<!-- Node1&#45;&gt;Node9 -->
<g id="edge8_Node000001_Node000009" class="edge">
<title>Node1&#45;&gt;Node9</title>
<g id="a_edge8_Node000001_Node000009"><a xlink:title=" ">
<path fill="none" stroke="#63b8ff" d="M362.43,-105.01C381.01,-92.28 409.09,-74.75 436,-64.5 444.88,-61.12 454.5,-58.34 464.05,-56.06"/>
<polygon fill="#63b8ff" stroke="#63b8ff" points="360.31,-102.22 354.11,-110.81 364.31,-107.96 360.31,-102.22"/>
</a>
</g>
</g>
<!-- Node10 -->
<g id="Node000010" class="node">
<title>Node10</title>
<g id="a_Node000010"><a xlink:href="classsvmp_1_1_parse_exception.html" target="_top" xlink:title="A parsing or input&#45;format error.">
<polygon fill="white" stroke="#666666" points="590,-19 466,-19 466,0 590,0 590,-19"/>
<text text-anchor="middle" x="528" y="-7" font-family="Helvetica,sans-Serif" font-size="10.00">svmp::ParseException</text>
</a>
</g>
</g>
<!-- Node1&#45;&gt;Node10 -->
<g id="edge9_Node000001_Node000010" class="edge">
<title>Node1&#45;&gt;Node10</title>
<g id="a_edge9_Node000001_Node000010"><a xlink:title=" ">
<path fill="none" stroke="#63b8ff" d="M354.03,-102.49C370.56,-81.06 401.16,-45.86 436,-27.5 445.12,-22.69 455.36,-19.17 465.61,-16.58"/>
<polygon fill="#63b8ff" stroke="#63b8ff" points="351.03,-100.65 347.83,-110.75 356.63,-104.85 351.03,-100.65"/>
</a>
</g>
</g>
<!-- Node2 -->
<g id="Node000002" class="node">
<title>Node2</title>
<g id="a_Node000002"><a xlink:href="classsvmp_1_1_exception_base.html" target="_top" xlink:title=" ">
<polygon fill="white" stroke="#bfbfbf" points="244,-130 122,-130 122,-111 244,-111 244,-130"/>
<text text-anchor="middle" x="183" y="-118" font-family="Helvetica,sans-Serif" font-size="10.00">svmp::ExceptionBase</text>
</a>
</g>
</g>
<!-- Node2&#45;&gt;Node1 -->
<g id="edge1_Node000001_Node000002" class="edge">
<title>Node2&#45;&gt;Node1</title>
<g id="a_edge1_Node000001_Node000002"><a xlink:title=" ">
<path fill="none" stroke="#63b8ff" d="M254.58,-120.5C263.01,-120.5 271.56,-120.5 279.81,-120.5"/>
<polygon fill="#63b8ff" stroke="#63b8ff" points="254.37,-117 244.37,-120.5 254.37,-124 254.37,-117"/>
</a>
</g>
</g>
<!-- Node3 -->
<g id="Node000003" class="node">
<title>Node3</title>
<g id="a_Node000003"><a xlink:title=" ">
<polygon fill="white" stroke="#666666" points="86,-130 0,-130 0,-111 86,-111 86,-130"/>
<text text-anchor="middle" x="43" y="-118" font-family="Helvetica,sans-Serif" font-size="10.00">std::exception</text>
</a>
</g>
</g>
<!-- Node3&#45;&gt;Node2 -->
<g id="edge2_Node000002_Node000003" class="edge">
<title>Node3&#45;&gt;Node2</title>
<g id="a_edge2_Node000002_Node000003"><a xlink:title=" ">
<path fill="none" stroke="#63b8ff" d="M96.16,-120.5C104.54,-120.5 113.27,-120.5 121.82,-120.5"/>
<polygon fill="#63b8ff" stroke="#63b8ff" points="96.15,-117 86.15,-120.5 96.15,-124 96.15,-117"/>
</a>
</g>
</g>
</g>
</svg>
