<?xml version="1.0" encoding="UTF-8" standalone="no"?>
<!DOCTYPE svg PUBLIC "-//W3C//DTD SVG 1.1//EN"
 "http://www.w3.org/Graphics/SVG/1.1/DTD/svg11.dtd">
<!-- Generated by graphviz version 2.43.0 (0)
 -->
<!-- Title: CappingSurfaceBaseException Pages: 1 -->
<svg width="521pt" height="369pt"
 viewBox="0.00 0.00 521.00 369.00" xmlns="http://www.w3.org/2000/svg" xmlns:xlink="http://www.w3.org/1999/xlink">
<g id="graph0" class="graph" transform="scale(1 1) rotate(0) translate(4 365)">
<title>CappingSurfaceBaseException</title>
<!-- Node1 -->
<g id="Node000001" class="node">
<title>Node1</title>
<g id="a_Node000001"><a xlink:title="Base exception for capping surface (cap VTP) errors.">
<polygon fill="#999999" stroke="#666666" points="287,-201 122,-201 122,-182 287,-182 287,-201"/>
<text text-anchor="middle" x="204.5" y="-189" font-family="Helvetica,sans-Serif" font-size="10.00">CappingSurfaceBaseException</text>
</a>
</g>
</g>
<!-- Node3 -->
<g id="Node000003" class="node">
<title>Node3</title>
<g id="a_Node000003"><a xlink:href="class_capping_surface_assembly_exception.html" target="_top" xlink:title="Inconsistent cap connectivity or assembly indexing.">
<polygon fill="white" stroke="#666666" points="512.5,-361 323.5,-361 323.5,-342 512.5,-342 512.5,-361"/>
<text text-anchor="middle" x="418" y="-349" font-family="Helvetica,sans-Serif" font-size="10.00">CappingSurfaceAssemblyException</text>
</a>
</g>
</g>
<!-- Node1&#45;&gt;Node3 -->
<g id="edge2_Node000001_Node000003" class="edge">
<title>Node1&#45;&gt;Node3</title>
<g id="a_edge2_Node000001_Node000003"><a xlink:title=" ">
<path fill="none" stroke="#63b8ff" d="M215.09,-209.9C232.26,-240.85 271.32,-302.91 323,-333.5 328.72,-336.88 334.95,-339.65 341.38,-341.91"/>
<polygon fill="#63b8ff" stroke="#63b8ff" points="218.13,-208.17 210.3,-201.03 211.97,-211.49 218.13,-208.17"/>
</a>
</g>
</g>
<!-- Node4 -->
<g id="Node000004" class="node">
<title>Node4</title>
<g id="a_Node000004"><a xlink:href="class_capping_surface_copy_exception.html" target="_top" xlink:title="Failure copying a CappingSurface or its internal face.">
<polygon fill="white" stroke="#666666" points="501,-324 335,-324 335,-305 501,-305 501,-324"/>
<text text-anchor="middle" x="418" y="-312" font-family="Helvetica,sans-Serif" font-size="10.00">CappingSurfaceCopyException</text>
</a>
</g>
</g>
<!-- Node1&#45;&gt;Node4 -->
<g id="edge3_Node000001_Node000004" class="edge">
<title>Node1&#45;&gt;Node4</title>
<g id="a_edge3_Node000001_Node000004"><a xlink:title=" ">
<path fill="none" stroke="#63b8ff" d="M219.75,-208.87C240.08,-232.41 279.78,-273.98 323,-295.5 330.75,-299.36 339.23,-302.43 347.82,-304.88"/>
<polygon fill="#63b8ff" stroke="#63b8ff" points="222.29,-206.45 213.16,-201.08 216.95,-210.97 222.29,-206.45"/>
</a>
</g>
</g>
<!-- Node5 -->
<g id="Node000005" class="node">
<title>Node5</title>
<g id="a_Node000005"><a xlink:href="class_capping_surface_coupling_topology_exception.html" target="_top" xlink:title="Cap mesh shares no nodes with the coupled boundary face.">
<polygon fill="white" stroke="#666666" points="507.5,-286.5 328.5,-286.5 328.5,-256.5 507.5,-256.5 507.5,-286.5"/>
<text text-anchor="start" x="336.5" y="-274.5" font-family="Helvetica,sans-Serif" font-size="10.00">CappingSurfaceCouplingTopology</text>
<text text-anchor="middle" x="418" y="-263.5" font-family="Helvetica,sans-Serif" font-size="10.00">Exception</text>
</a>
</g>
</g>
<!-- Node1&#45;&gt;Node5 -->
<g id="edge4_Node000001_Node000005" class="edge">
<title>Node1&#45;&gt;Node5</title>
<g id="a_edge4_Node000001_Node000005"><a xlink:title=" ">
<path fill="none" stroke="#63b8ff" d="M231.91,-205.92C255.31,-218.25 290.69,-235.8 323,-247.5 332.03,-250.77 341.69,-253.77 351.27,-256.46"/>
<polygon fill="#63b8ff" stroke="#63b8ff" points="233.42,-202.76 222.95,-201.15 230.13,-208.94 233.42,-202.76"/>
</a>
</g>
</g>
<!-- Node6 -->
<g id="Node000006" class="node">
<title>Node6</title>
<g id="a_Node000006"><a xlink:href="class_capping_surface_file_exception.html" target="_top" xlink:title="Cap VTP file cannot be opened.">
<polygon fill="white" stroke="#666666" points="497,-238 339,-238 339,-219 497,-219 497,-238"/>
<text text-anchor="middle" x="418" y="-226" font-family="Helvetica,sans-Serif" font-size="10.00">CappingSurfaceFileException</text>
</a>
</g>
</g>
<!-- Node1&#45;&gt;Node6 -->
<g id="edge5_Node000001_Node000006" class="edge">
<title>Node1&#45;&gt;Node6</title>
<g id="a_edge5_Node000001_Node000006"><a xlink:title=" ">
<path fill="none" stroke="#63b8ff" d="M270.17,-202.81C299.65,-207.97 334.19,-214.01 362.35,-218.94"/>
<polygon fill="#63b8ff" stroke="#63b8ff" points="270.42,-199.3 259.97,-201.03 269.21,-206.2 270.42,-199.3"/>
</a>
</g>
</g>
<!-- Node7 -->
<g id="Node000007" class="node">
<title>Node7</title>
<g id="a_Node000007"><a xlink:href="class_capping_surface_geometry_exception.html" target="_top" xlink:title="Geometry or Jacobian error during cap surface integration.">
<polygon fill="white" stroke="#666666" points="513,-201 323,-201 323,-182 513,-182 513,-201"/>
<text text-anchor="middle" x="418" y="-189" font-family="Helvetica,sans-Serif" font-size="10.00">CappingSurfaceGeometryException</text>
</a>
</g>
</g>
<!-- Node1&#45;&gt;Node7 -->
<g id="edge6_Node000001_Node000007" class="edge">
<title>Node1&#45;&gt;Node7</title>
<g id="a_edge6_Node000001_Node000007"><a xlink:title=" ">
<path fill="none" stroke="#63b8ff" d="M297.44,-191.5C305.84,-191.5 314.35,-191.5 322.77,-191.5"/>
<polygon fill="#63b8ff" stroke="#63b8ff" points="297.27,-188 287.27,-191.5 297.27,-195 297.27,-188"/>
</a>
</g>
</g>
<!-- Node8 -->
<g id="Node000008" class="node">
<title>Node8</title>
<g id="a_Node000008"><a xlink:href="class_capping_surface_invalid_element_nodes_exception.html" target="_top" xlink:title="Cap VTP connectivity does not match expected TRI3 topology.">
<polygon fill="white" stroke="#666666" points="501.5,-163.5 334.5,-163.5 334.5,-133.5 501.5,-133.5 501.5,-163.5"/>
<text text-anchor="start" x="342.5" y="-151.5" font-family="Helvetica,sans-Serif" font-size="10.00">CappingSurfaceInvalidElement</text>
<text text-anchor="middle" x="418" y="-140.5" font-family="Helvetica,sans-Serif" font-size="10.00">NodesException</text>
</a>
</g>
</g>
<!-- Node1&#45;&gt;Node8 -->
<g id="edge7_Node000001_Node000008" class="edge">
<title>Node1&#45;&gt;Node8</title>
<g id="a_edge7_Node000001_Node000008"><a xlink:title=" ">
<path fill="none" stroke="#63b8ff" d="M262.42,-179.93C287.26,-174.88 316.7,-168.89 343.19,-163.51"/>
<polygon fill="#63b8ff" stroke="#63b8ff" points="261.54,-176.53 252.44,-181.96 262.94,-183.39 261.54,-176.53"/>
</a>
</g>
</g>
<!-- Node9 -->
<g id="Node000009" class="node">
<title>Node9</title>
<g id="a_Node000009"><a xlink:href="class_capping_surface_quadrature_exception.html" target="_top" xlink:title="Cap face quadrature (shape functions on TRI3) setup failed.">
<polygon fill="white" stroke="#666666" points="492,-115.5 344,-115.5 344,-85.5 492,-85.5 492,-115.5"/>
<text text-anchor="start" x="352" y="-103.5" font-family="Helvetica,sans-Serif" font-size="10.00">CappingSurfaceQuadrature</text>
<text text-anchor="middle" x="418" y="-92.5" font-family="Helvetica,sans-Serif" font-size="10.00">Exception</text>
</a>
</g>
</g>
<!-- Node1&#45;&gt;Node9 -->
<g id="edge8_Node000001_Node000009" class="edge">
<title>Node1&#45;&gt;Node9</title>
<g id="a_edge8_Node000001_Node000009"><a xlink:title=" ">
<path fill="none" stroke="#63b8ff" d="M227.69,-176.43C250.66,-161.42 288.02,-138.64 323,-124.5 331.28,-121.15 340.15,-118.17 349.03,-115.53"/>
<polygon fill="#63b8ff" stroke="#63b8ff" points="225.75,-173.52 219.35,-181.96 229.62,-179.35 225.75,-173.52"/>
</a>
</g>
</g>
<!-- Node10 -->
<g id="Node000010" class="node">
<title>Node10</title>
<g id="a_Node000010"><a xlink:href="class_capping_surface_unsupported_cell_exception.html" target="_top" xlink:title="Cap VTP uses an unsupported cell type (only TRI3 is supported).">
<polygon fill="white" stroke="#666666" points="495.5,-67.5 340.5,-67.5 340.5,-37.5 495.5,-37.5 495.5,-67.5"/>
<text text-anchor="start" x="348.5" y="-55.5" font-family="Helvetica,sans-Serif" font-size="10.00">CappingSurfaceUnsupported</text>
<text text-anchor="middle" x="418" y="-44.5" font-family="Helvetica,sans-Serif" font-size="10.00">CellException</text>
</a>
</g>
</g>
<!-- Node1&#45;&gt;Node10 -->
<g id="edge9_Node000001_Node000010" class="edge">
<title>Node1&#45;&gt;Node10</title>
<g id="a_edge9_Node000001_Node000010"><a xlink:title=" ">
<path fill="none" stroke="#63b8ff" d="M218.64,-173.69C238.41,-148.2 278.27,-101.66 323,-76.5 329.17,-73.03 335.84,-70.06 342.69,-67.5"/>
<polygon fill="#63b8ff" stroke="#63b8ff" points="215.78,-171.67 212.52,-181.75 221.35,-175.91 215.78,-171.67"/>
</a>
</g>
</g>
<!-- Node11 -->
<g id="Node000011" class="node">
<title>Node11</title>
<g id="a_Node000011"><a xlink:href="class_capping_surface_vtp_exception.html" target="_top" xlink:title="VTP read, parse, or validation error during cap load.">
<polygon fill="white" stroke="#666666" points="497,-19 339,-19 339,0 497,0 497,-19"/>
<text text-anchor="middle" x="418" y="-7" font-family="Helvetica,sans-Serif" font-size="10.00">CappingSurfaceVtpException</text>
</a>
</g>
</g>
<!-- Node1&#45;&gt;Node11 -->
<g id="edge10_Node000001_Node000011" class="edge">
<title>Node1&#45;&gt;Node11</title>
<g id="a_edge10_Node000001_Node000011"><a xlink:title=" ">
<path fill="none" stroke="#63b8ff" d="M213.5,-172.41C229.07,-137.74 266.94,-64.66 323,-28.5 329.02,-24.62 335.66,-21.51 342.56,-19.01"/>
<polygon fill="#63b8ff" stroke="#63b8ff" points="210.17,-171.29 209.38,-181.86 216.58,-174.09 210.17,-171.29"/>
</a>
</g>
</g>
<!-- Node2 -->
<g id="Node000002" class="node">
<title>Node2</title>
<g id="a_Node000002"><a xlink:title=" ">
<polygon fill="white" stroke="#666666" points="86,-201 0,-201 0,-182 86,-182 86,-201"/>
<text text-anchor="middle" x="43" y="-189" font-family="Helvetica,sans-Serif" font-size="10.00">std::exception</text>
</a>
</g>
</g>
<!-- Node2&#45;&gt;Node1 -->
<g id="edge1_Node000001_Node000002" class="edge">
<title>Node2&#45;&gt;Node1</title>
<g id="a_edge1_Node000001_Node000002"><a xlink:title=" ">
<path fill="none" stroke="#63b8ff" d="M96.4,-191.5C104.56,-191.5 113.16,-191.5 121.78,-191.5"/>
<polygon fill="#63b8ff" stroke="#63b8ff" points="96.32,-188 86.32,-191.5 96.32,-195 96.32,-188"/>
</a>
</g>
</g>
</g>
</svg>
