<?xml version="1.0" encoding="UTF-8" standalone="no"?>
<!DOCTYPE svg PUBLIC "-//W3C//DTD SVG 1.1//EN"
 "http://www.w3.org/Graphics/SVG/1.1/DTD/svg11.dtd">
<!-- Generated by graphviz version 2.43.0 (0)
 -->
<!-- Title: ParameterLists Pages: 1 -->
<svg width="326pt" height="1778pt"
 viewBox="0.00 0.00 326.00 1778.00" xmlns="http://www.w3.org/2000/svg" xmlns:xlink="http://www.w3.org/1999/xlink">
<g id="graph0" class="graph" transform="scale(1 1) rotate(0) translate(4 1774)">
<title>ParameterLists</title>
<!-- Node1 -->
<g id="Node000001" class="node">
<title>Node1</title>
<g id="a_Node000001"><a xlink:title="Defines parameter name and value, and stores them in maps for settng values from XML.">
<polygon fill="#999999" stroke="#666666" points="89,-888 0,-888 0,-869 89,-869 89,-888"/>
<text text-anchor="middle" x="44.5" y="-876" font-family="Helvetica,sans-Serif" font-size="10.00">ParameterLists</text>
</a>
</g>
</g>
<!-- Node2 -->
<g id="Node000002" class="node">
<title>Node2</title>
<g id="a_Node000002"><a xlink:href="class_active_stress_model_parameters.html" target="_top" xlink:title="Parameters for a generic active stress model.">
<polygon fill="#fff0f0" stroke="red" points="303,-1770 140,-1770 140,-1751 303,-1751 303,-1770"/>
<text text-anchor="middle" x="221.5" y="-1758" font-family="Helvetica,sans-Serif" font-size="10.00">ActiveStressModelParameters</text>
</a>
</g>
</g>
<!-- Node1&#45;&gt;Node2 -->
<g id="edge1_Node000001_Node000002" class="edge">
<title>Node1&#45;&gt;Node2</title>
<g id="a_edge1_Node000001_Node000002"><a xlink:title=" ">
<path fill="none" stroke="#63b8ff" d="M45.92,-898.51C48.72,-1022.07 66.27,-1677.93 125,-1742.5 129.2,-1747.12 134.18,-1750.78 139.63,-1753.66"/>
<polygon fill="#63b8ff" stroke="#63b8ff" points="49.42,-898.18 45.7,-888.26 42.42,-898.33 49.42,-898.18"/>
</a>
</g>
</g>
<!-- Node7 -->
<g id="Node000007" class="node">
<title>Node7</title>
<g id="a_Node000007"><a xlink:href="class_active_stress_parameters.html" target="_top" xlink:title="Parameters for active stress models.">
<polygon fill="white" stroke="#666666" points="288,-1733 155,-1733 155,-1714 288,-1714 288,-1733"/>
<text text-anchor="middle" x="221.5" y="-1721" font-family="Helvetica,sans-Serif" font-size="10.00">ActiveStressParameters</text>
</a>
</g>
</g>
<!-- Node1&#45;&gt;Node7 -->
<g id="edge2_Node000001_Node000007" class="edge">
<title>Node1&#45;&gt;Node7</title>
<g id="a_edge2_Node000001_Node000007"><a xlink:title=" ">
<path fill="none" stroke="#63b8ff" d="M46.01,-898.39C49.25,-1018.51 68.75,-1643.92 125,-1705.5 132.85,-1714.1 143.41,-1719.37 154.64,-1722.48"/>
<polygon fill="#63b8ff" stroke="#63b8ff" points="49.5,-898.02 45.74,-888.11 42.5,-898.2 49.5,-898.02"/>
</a>
</g>
</g>
<!-- Node8 -->
<g id="Node000008" class="node">
<title>Node8</title>
<g id="a_Node000008"><a xlink:href="class_body_force_parameters.html" target="_top" xlink:title="Body force over a mesh using the &quot;Add_BF&quot; command.">
<polygon fill="white" stroke="#666666" points="283,-1696 160,-1696 160,-1677 283,-1677 283,-1696"/>
<text text-anchor="middle" x="221.5" y="-1684" font-family="Helvetica,sans-Serif" font-size="10.00">BodyForceParameters</text>
</a>
</g>
</g>
<!-- Node1&#45;&gt;Node8 -->
<g id="edge3_Node000001_Node000008" class="edge">
<title>Node1&#45;&gt;Node8</title>
<g id="a_edge3_Node000001_Node000008"><a xlink:title=" ">
<path fill="none" stroke="#63b8ff" d="M46.1,-898.23C49.79,-1014.77 71.23,-1609.89 125,-1668.5 134.01,-1678.32 146.55,-1683.8 159.59,-1686.67"/>
<polygon fill="#63b8ff" stroke="#63b8ff" points="49.59,-898.11 45.78,-888.22 42.6,-898.33 49.59,-898.11"/>
</a>
</g>
</g>
<!-- Node9 -->
<g id="Node000009" class="node">
<title>Node9</title>
<g id="a_Node000009"><a xlink:href="class_boundary_condition_parameters.html" target="_top" xlink:title="The BoundaryConditionParameters stores paramaters for various type of boundary conditions under the A...">
<polygon fill="white" stroke="#666666" points="304,-1659 139,-1659 139,-1640 304,-1640 304,-1659"/>
<text text-anchor="middle" x="221.5" y="-1647" font-family="Helvetica,sans-Serif" font-size="10.00">BoundaryConditionParameters</text>
</a>
</g>
</g>
<!-- Node1&#45;&gt;Node9 -->
<g id="edge4_Node000001_Node000009" class="edge">
<title>Node1&#45;&gt;Node9</title>
<g id="a_edge4_Node000001_Node000009"><a xlink:title=" ">
<path fill="none" stroke="#63b8ff" d="M46.2,-898.35C50.4,-1011.88 73.74,-1575.9 125,-1631.5 129,-1635.84 133.7,-1639.33 138.82,-1642.12"/>
<polygon fill="#63b8ff" stroke="#63b8ff" points="49.69,-897.89 45.83,-888.03 42.69,-898.15 49.69,-897.89"/>
</a>
</g>
</g>
<!-- Node10 -->
<g id="Node000010" class="node">
<title>Node10</title>
<g id="a_Node000010"><a xlink:href="class_boundary_condition_r_c_r_parameters.html" target="_top" xlink:title="RCR values for Neumann BC type.">
<polygon fill="white" stroke="#666666" points="314,-1622 129,-1622 129,-1603 314,-1603 314,-1622"/>
<text text-anchor="middle" x="221.5" y="-1610" font-family="Helvetica,sans-Serif" font-size="10.00">BoundaryConditionRCRParameters</text>
</a>
</g>
</g>
<!-- Node1&#45;&gt;Node10 -->
<g id="edge5_Node000001_Node000010" class="edge">
<title>Node1&#45;&gt;Node10</title>
<g id="a_edge5_Node000001_Node000010"><a xlink:title=" ">
<path fill="none" stroke="#63b8ff" d="M46.3,-898.06C50.98,-1007.59 76.19,-1541.85 125,-1594.5 127.98,-1597.72 131.34,-1600.47 134.98,-1602.81"/>
<polygon fill="#63b8ff" stroke="#63b8ff" points="49.8,-897.91 45.88,-888.07 42.81,-898.2 49.8,-897.91"/>
</a>
</g>
</g>
<!-- Node11 -->
<g id="Node000011" class="node">
<title>Node11</title>
<g id="a_Node000011"><a xlink:href="class_c_a_n_n_parameters.html" target="_top" xlink:title="The CANNParameters class stores the parameters table rows for xml element &quot;Constitutive_model type=CA...">
<polygon fill="white" stroke="#666666" points="272,-1585 171,-1585 171,-1566 272,-1566 272,-1585"/>
<text text-anchor="middle" x="221.5" y="-1573" font-family="Helvetica,sans-Serif" font-size="10.00">CANNParameters</text>
</a>
</g>
</g>
<!-- Node1&#45;&gt;Node11 -->
<g id="edge6_Node000001_Node000011" class="edge">
<title>Node1&#45;&gt;Node11</title>
<g id="a_edge6_Node000001_Node000011"><a xlink:title=" ">
<path fill="none" stroke="#63b8ff" d="M46.44,-898.37C51.69,-1005.15 78.72,-1507.88 125,-1557.5 136.62,-1569.96 153.94,-1575.39 170.65,-1577.4"/>
<polygon fill="#63b8ff" stroke="#63b8ff" points="49.94,-898.13 45.96,-888.32 42.94,-898.47 49.94,-898.13"/>
</a>
</g>
</g>
<!-- Node12 -->
<g id="Node000012" class="node">
<title>Node12</title>
<g id="a_Node000012"><a xlink:href="class_c_a_n_n_row_parameters.html" target="_top" xlink:title="The CANNRowParameters class is used to store the parameters for each row of the CANN table for the xm...">
<polygon fill="white" stroke="#666666" points="282.5,-1548 160.5,-1548 160.5,-1529 282.5,-1529 282.5,-1548"/>
<text text-anchor="middle" x="221.5" y="-1536" font-family="Helvetica,sans-Serif" font-size="10.00">CANNRowParameters</text>
</a>
</g>
</g>
<!-- Node1&#45;&gt;Node12 -->
<g id="edge7_Node000001_Node000012" class="edge">
<title>Node1&#45;&gt;Node12</title>
<g id="a_edge7_Node000001_Node000012"><a xlink:title=" ">
<path fill="none" stroke="#63b8ff" d="M46.59,-898.56C52.42,-1002.19 81.24,-1473.88 125,-1520.5 134.24,-1530.34 147.03,-1535.79 160.25,-1538.63"/>
<polygon fill="#63b8ff" stroke="#63b8ff" points="50.07,-898.06 46.02,-888.26 43.08,-898.44 50.07,-898.06"/>
</a>
</g>
</g>
<!-- Node13 -->
<g id="Node000013" class="node">
<title>Node13</title>
<g id="a_Node000013"><a xlink:href="class_constitutive_model_parameters.html" target="_top" xlink:title="The ConstitutiveModelParameters class store parameters for various constitutive models.">
<polygon fill="white" stroke="#666666" points="302,-1511 141,-1511 141,-1492 302,-1492 302,-1511"/>
<text text-anchor="middle" x="221.5" y="-1499" font-family="Helvetica,sans-Serif" font-size="10.00">ConstitutiveModelParameters</text>
</a>
</g>
</g>
<!-- Node1&#45;&gt;Node13 -->
<g id="edge8_Node000001_Node000013" class="edge">
<title>Node1&#45;&gt;Node13</title>
<g id="a_edge8_Node000001_Node000013"><a xlink:title=" ">
<path fill="none" stroke="#63b8ff" d="M45.12,-898.41C43.76,-993.07 42.89,-1396.69 125,-1483.5 129.52,-1488.28 134.88,-1492.02 140.72,-1494.93"/>
<polygon fill="#63b8ff" stroke="#63b8ff" points="48.63,-898.28 45.29,-888.22 41.63,-898.16 48.63,-898.28"/>
</a>
</g>
</g>
<!-- Node14 -->
<g id="Node000014" class="node">
<title>Node14</title>
<g id="a_Node000014"><a xlink:href="class_contact_parameters.html" target="_top" xlink:title="The ContactParameters class stores parameters for the &#39;Contact&#39;&#39; XML element used to specify paramete...">
<polygon fill="white" stroke="#666666" points="276.5,-1474 166.5,-1474 166.5,-1455 276.5,-1455 276.5,-1474"/>
<text text-anchor="middle" x="221.5" y="-1462" font-family="Helvetica,sans-Serif" font-size="10.00">ContactParameters</text>
</a>
</g>
</g>
<!-- Node1&#45;&gt;Node14 -->
<g id="edge9_Node000001_Node000014" class="edge">
<title>Node1&#45;&gt;Node14</title>
<g id="a_edge9_Node000001_Node000014"><a xlink:title=" ">
<path fill="none" stroke="#63b8ff" d="M45.31,-898.32C44.87,-989.27 47.8,-1365.57 125,-1446.5 135.71,-1457.73 151.06,-1463.22 166.33,-1465.63"/>
<polygon fill="#63b8ff" stroke="#63b8ff" points="48.81,-898.08 45.38,-888.06 41.81,-898.03 48.81,-898.08"/>
</a>
</g>
</g>
<!-- Node15 -->
<g id="Node000015" class="node">
<title>Node15</title>
<g id="a_Node000015"><a xlink:href="class_couple_gen_b_c_parameters.html" target="_top" xlink:title="Coupling to GenBC.">
<polygon fill="white" stroke="#666666" points="291,-1437 152,-1437 152,-1418 291,-1418 291,-1437"/>
<text text-anchor="middle" x="221.5" y="-1425" font-family="Helvetica,sans-Serif" font-size="10.00">CoupleGenBCParameters</text>
</a>
</g>
</g>
<!-- Node1&#45;&gt;Node15 -->
<g id="edge10_Node000001_Node000015" class="edge">
<title>Node1&#45;&gt;Node15</title>
<g id="a_edge10_Node000001_Node000015"><a xlink:title=" ">
<path fill="none" stroke="#63b8ff" d="M45.53,-898.41C46.06,-985.82 52.75,-1334.48 125,-1409.5 132.26,-1417.03 141.6,-1421.98 151.59,-1425.14"/>
<polygon fill="#63b8ff" stroke="#63b8ff" points="49.02,-898.25 45.48,-888.27 42.02,-898.28 49.02,-898.25"/>
</a>
</g>
</g>
<!-- Node16 -->
<g id="Node000016" class="node">
<title>Node16</title>
<g id="a_Node000016"><a xlink:href="class_coupling_interface_parameters.html" target="_top" xlink:title="svZeroDSolver coupling options under Add_BC (with Time_dependence Coupled).">
<polygon fill="white" stroke="#666666" points="300.5,-1400 142.5,-1400 142.5,-1381 300.5,-1381 300.5,-1400"/>
<text text-anchor="middle" x="221.5" y="-1388" font-family="Helvetica,sans-Serif" font-size="10.00">CouplingInterfaceParameters</text>
</a>
</g>
</g>
<!-- Node1&#45;&gt;Node16 -->
<g id="edge11_Node000001_Node000016" class="edge">
<title>Node1&#45;&gt;Node16</title>
<g id="a_edge11_Node000001_Node000016"><a xlink:title=" ">
<path fill="none" stroke="#63b8ff" d="M45.77,-898.61C47.34,-982.49 57.72,-1303.4 125,-1372.5 129.94,-1377.58 135.84,-1381.47 142.23,-1384.44"/>
<polygon fill="#63b8ff" stroke="#63b8ff" points="49.27,-898.34 45.61,-888.39 42.27,-898.45 49.27,-898.34"/>
</a>
</g>
</g>
<!-- Node17 -->
<g id="Node000017" class="node">
<title>Node17</title>
<g id="a_Node000017"><a xlink:href="class_directional_distribution_parameters.html" target="_top" xlink:title="The DirectionalDistributionParameters class stores directional distribution parameters for active str...">
<polygon fill="white" stroke="#666666" points="312.5,-1363 130.5,-1363 130.5,-1344 312.5,-1344 312.5,-1363"/>
<text text-anchor="middle" x="221.5" y="-1351" font-family="Helvetica,sans-Serif" font-size="10.00">DirectionalDistributionParameters</text>
</a>
</g>
</g>
<!-- Node1&#45;&gt;Node17 -->
<g id="edge12_Node000001_Node000017" class="edge">
<title>Node1&#45;&gt;Node17</title>
<g id="a_edge12_Node000001_Node000017"><a xlink:title=" ">
<path fill="none" stroke="#63b8ff" d="M46.04,-898.1C48.65,-977.26 62.48,-1272.1 125,-1335.5 128.2,-1338.74 131.78,-1341.5 135.64,-1343.85"/>
<polygon fill="#63b8ff" stroke="#63b8ff" points="49.54,-897.93 45.74,-888.04 42.54,-898.15 49.54,-897.93"/>
</a>
</g>
</g>
<!-- Node18 -->
<g id="Node000018" class="node">
<title>Node18</title>
<g id="a_Node000018"><a xlink:href="class_domain_parameters.html" target="_top" xlink:title="The DomainParameters class stores parameters for the XML &#39;Domain&#39; element to specify properties for s...">
<polygon fill="white" stroke="#666666" points="276.5,-1326 166.5,-1326 166.5,-1307 276.5,-1307 276.5,-1326"/>
<text text-anchor="middle" x="221.5" y="-1314" font-family="Helvetica,sans-Serif" font-size="10.00">DomainParameters</text>
</a>
</g>
</g>
<!-- Node1&#45;&gt;Node18 -->
<g id="edge13_Node000001_Node000018" class="edge">
<title>Node1&#45;&gt;Node18</title>
<g id="a_edge13_Node000001_Node000018"><a xlink:title=" ">
<path fill="none" stroke="#63b8ff" d="M46.39,-898.41C50.16,-973.87 67.45,-1240.99 125,-1298.5 135.86,-1309.35 151.07,-1314.76 166.16,-1317.23"/>
<polygon fill="#63b8ff" stroke="#63b8ff" points="49.86,-897.82 45.89,-888 42.87,-898.16 49.86,-897.82"/>
</a>
</g>
</g>
<!-- Node19 -->
<g id="Node000019" class="node">
<title>Node19</title>
<g id="a_Node000019"><a xlink:href="class_e_c_g_leads_parameters.html" target="_top" xlink:title=" ">
<polygon fill="white" stroke="#bfbfbf" points="282,-1289 161,-1289 161,-1270 282,-1270 282,-1289"/>
<text text-anchor="middle" x="221.5" y="-1277" font-family="Helvetica,sans-Serif" font-size="10.00">ECGLeadsParameters</text>
</a>
</g>
</g>
<!-- Node1&#45;&gt;Node19 -->
<g id="edge14_Node000001_Node000019" class="edge">
<title>Node1&#45;&gt;Node19</title>
<g id="a_edge14_Node000001_Node000019"><a xlink:title=" ">
<path fill="none" stroke="#63b8ff" d="M46.78,-898.47C51.78,-969.7 72.33,-1209.78 125,-1261.5 134.63,-1270.96 147.57,-1276.26 160.81,-1279.08"/>
<polygon fill="#63b8ff" stroke="#63b8ff" points="50.26,-897.95 46.09,-888.21 43.27,-898.42 50.26,-897.95"/>
</a>
</g>
</g>
<!-- Node20 -->
<g id="Node000020" class="node">
<title>Node20</title>
<g id="a_Node000020"><a xlink:href="class_equation_parameters.html" target="_top" xlink:title="The EquationParameters class stores parameters for the &#39;Add_equation&#39; XML element used to specify an ...">
<polygon fill="white" stroke="#666666" points="279,-1252 164,-1252 164,-1233 279,-1233 279,-1252"/>
<text text-anchor="middle" x="221.5" y="-1240" font-family="Helvetica,sans-Serif" font-size="10.00">EquationParameters</text>
</a>
</g>
</g>
<!-- Node1&#45;&gt;Node20 -->
<g id="edge15_Node000001_Node000020" class="edge">
<title>Node1&#45;&gt;Node20</title>
<g id="a_edge15_Node000001_Node000020"><a xlink:title=" ">
<path fill="none" stroke="#63b8ff" d="M47.24,-898.25C53.51,-964.69 77.11,-1178.47 125,-1224.5 135.46,-1234.56 149.67,-1239.89 163.93,-1242.53"/>
<polygon fill="#63b8ff" stroke="#63b8ff" points="50.72,-897.9 46.33,-888.26 43.75,-898.54 50.72,-897.9"/>
</a>
</g>
</g>
<!-- Node21 -->
<g id="Node000021" class="node">
<title>Node21</title>
<g id="a_Node000021"><a xlink:href="class_face_parameters.html" target="_top" xlink:title="The FaceParameters class is used to store parameters for the &#39;Add_face&#39; XML element.">
<polygon fill="white" stroke="#666666" points="268.5,-1215 174.5,-1215 174.5,-1196 268.5,-1196 268.5,-1215"/>
<text text-anchor="middle" x="221.5" y="-1203" font-family="Helvetica,sans-Serif" font-size="10.00">FaceParameters</text>
</a>
</g>
</g>
<!-- Node1&#45;&gt;Node21 -->
<g id="edge16_Node000001_Node000021" class="edge">
<title>Node1&#45;&gt;Node21</title>
<g id="a_edge16_Node000001_Node000021"><a xlink:title=" ">
<path fill="none" stroke="#63b8ff" d="M47.88,-898.42C55.66,-960.08 82.3,-1146.14 125,-1186.5 138.14,-1198.93 156.98,-1204.28 174.46,-1206.31"/>
<polygon fill="#63b8ff" stroke="#63b8ff" points="51.31,-897.61 46.61,-888.12 44.36,-898.47 51.31,-897.61"/>
</a>
</g>
</g>
<!-- Node22 -->
<g id="Node000022" class="node">
<title>Node22</title>
<g id="a_Node000022"><a xlink:href="class_fluid_viscosity_carreau_yasuda_parameters.html" target="_top" xlink:title=" ">
<polygon fill="white" stroke="#bfbfbf" points="300,-1177.5 143,-1177.5 143,-1147.5 300,-1147.5 300,-1177.5"/>
<text text-anchor="start" x="151" y="-1165.5" font-family="Helvetica,sans-Serif" font-size="10.00">FluidViscosityCarreauYasuda</text>
<text text-anchor="middle" x="221.5" y="-1154.5" font-family="Helvetica,sans-Serif" font-size="10.00">Parameters</text>
</a>
</g>
</g>
<!-- Node1&#45;&gt;Node22 -->
<g id="edge17_Node000001_Node000022" class="edge">
<title>Node1&#45;&gt;Node22</title>
<g id="a_edge17_Node000001_Node000022"><a xlink:title=" ">
<path fill="none" stroke="#63b8ff" d="M45.37,-898.35C46.2,-946.85 55.33,-1072.26 125,-1138.5 130.2,-1143.45 136.27,-1147.42 142.78,-1150.6"/>
<polygon fill="#63b8ff" stroke="#63b8ff" points="48.87,-898.21 45.31,-888.23 41.87,-898.26 48.87,-898.21"/>
</a>
</g>
</g>
<!-- Node23 -->
<g id="Node000023" class="node">
<title>Node23</title>
<g id="a_Node000023"><a xlink:href="class_fluid_viscosity_cassons_parameters.html" target="_top" xlink:title=" ">
<polygon fill="white" stroke="#bfbfbf" points="312,-1129 131,-1129 131,-1110 312,-1110 312,-1129"/>
<text text-anchor="middle" x="221.5" y="-1117" font-family="Helvetica,sans-Serif" font-size="10.00">FluidViscosityCassonsParameters</text>
</a>
</g>
</g>
<!-- Node1&#45;&gt;Node23 -->
<g id="edge18_Node000001_Node000023" class="edge">
<title>Node1&#45;&gt;Node23</title>
<g id="a_edge18_Node000001_Node000023"><a xlink:title=" ">
<path fill="none" stroke="#63b8ff" d="M46.29,-898.42C49.19,-942.42 62.63,-1048.18 125,-1101.5 128.85,-1104.79 133.1,-1107.55 137.62,-1109.87"/>
<polygon fill="#63b8ff" stroke="#63b8ff" points="49.79,-898.21 45.75,-888.41 42.8,-898.59 49.79,-898.21"/>
</a>
</g>
</g>
<!-- Node24 -->
<g id="Node000024" class="node">
<title>Node24</title>
<g id="a_Node000024"><a xlink:href="class_fluid_viscosity_newtonian_parameters.html" target="_top" xlink:title=" ">
<polygon fill="white" stroke="#bfbfbf" points="318,-1092 125,-1092 125,-1073 318,-1073 318,-1092"/>
<text text-anchor="middle" x="221.5" y="-1080" font-family="Helvetica,sans-Serif" font-size="10.00">FluidViscosityNewtonianParameters</text>
</a>
</g>
</g>
<!-- Node1&#45;&gt;Node24 -->
<g id="edge19_Node000001_Node000024" class="edge">
<title>Node1&#45;&gt;Node24</title>
<g id="a_edge19_Node000001_Node000024"><a xlink:title=" ">
<path fill="none" stroke="#63b8ff" d="M47.89,-898.48C53.63,-937.08 71.9,-1021.86 125,-1064.5 129.08,-1067.77 133.57,-1070.52 138.31,-1072.82"/>
<polygon fill="#63b8ff" stroke="#63b8ff" points="51.29,-897.52 46.49,-888.08 44.35,-898.46 51.29,-897.52"/>
</a>
</g>
</g>
<!-- Node25 -->
<g id="Node000025" class="node">
<title>Node25</title>
<g id="a_Node000025"><a xlink:href="class_fluid_viscosity_parameters.html" target="_top" xlink:title=" ">
<polygon fill="white" stroke="#bfbfbf" points="291.5,-1055 151.5,-1055 151.5,-1036 291.5,-1036 291.5,-1055"/>
<text text-anchor="middle" x="221.5" y="-1043" font-family="Helvetica,sans-Serif" font-size="10.00">FluidViscosityParameters</text>
</a>
</g>
</g>
<!-- Node1&#45;&gt;Node25 -->
<g id="edge20_Node000001_Node000025" class="edge">
<title>Node1&#45;&gt;Node25</title>
<g id="a_edge20_Node000001_Node000025"><a xlink:title=" ">
<path fill="none" stroke="#63b8ff" d="M50.09,-898.09C58.77,-930.53 80.82,-995.05 125,-1027.5 132.75,-1033.19 141.78,-1037.24 151.15,-1040.1"/>
<polygon fill="#63b8ff" stroke="#63b8ff" points="53.4,-896.9 47.56,-888.05 46.61,-898.61 53.4,-896.9"/>
</a>
</g>
</g>
<!-- Node26 -->
<g id="Node000026" class="node">
<title>Node26</title>
<g id="a_Node000026"><a xlink:href="class_general_simulation_parameters.html" target="_top" xlink:title="The GeneralSimulationParameters class stores paramaters for the &#39;GeneralSimulationParameters&#39; XML ele...">
<polygon fill="white" stroke="#666666" points="303,-1018 140,-1018 140,-999 303,-999 303,-1018"/>
<text text-anchor="middle" x="221.5" y="-1006" font-family="Helvetica,sans-Serif" font-size="10.00">GeneralSimulationParameters</text>
</a>
</g>
</g>
<!-- Node1&#45;&gt;Node26 -->
<g id="edge21_Node000001_Node000026" class="edge">
<title>Node1&#45;&gt;Node26</title>
<g id="a_edge21_Node000001_Node000026"><a xlink:title=" ">
<path fill="none" stroke="#63b8ff" d="M53.46,-897.56C65.16,-923.08 89.53,-967.77 125,-990.5 130.26,-993.87 135.99,-996.64 141.95,-998.91"/>
<polygon fill="#63b8ff" stroke="#63b8ff" points="56.57,-895.95 49.34,-888.21 50.17,-898.77 56.57,-895.95"/>
</a>
</g>
</g>
<!-- Node27 -->
<g id="Node000027" class="node">
<title>Node27</title>
<g id="a_Node000027"><a xlink:href="class_guccione_parameters.html" target="_top" xlink:title=" ">
<polygon fill="white" stroke="#bfbfbf" points="280,-981 163,-981 163,-962 280,-962 280,-981"/>
<text text-anchor="middle" x="221.5" y="-969" font-family="Helvetica,sans-Serif" font-size="10.00">GuccioneParameters</text>
</a>
</g>
</g>
<!-- Node1&#45;&gt;Node27 -->
<g id="edge22_Node000001_Node000027" class="edge">
<title>Node1&#45;&gt;Node27</title>
<g id="a_edge22_Node000001_Node000027"><a xlink:title=" ">
<path fill="none" stroke="#63b8ff" d="M59.22,-896.38C73.63,-913.83 97.93,-939.71 125,-953.5 136.65,-959.44 150,-963.43 162.95,-966.11"/>
<polygon fill="#63b8ff" stroke="#63b8ff" points="61.6,-893.76 52.62,-888.14 56.13,-898.13 61.6,-893.76"/>
</a>
</g>
</g>
<!-- Node28 -->
<g id="Node000028" class="node">
<title>Node28</title>
<g id="a_Node000028"><a xlink:href="class_holzapfel_gasser_ogden_parameters.html" target="_top" xlink:title=" ">
<polygon fill="white" stroke="#bfbfbf" points="313.5,-944 129.5,-944 129.5,-925 313.5,-925 313.5,-944"/>
<text text-anchor="middle" x="221.5" y="-932" font-family="Helvetica,sans-Serif" font-size="10.00">HolzapfelGasserOgdenParameters</text>
</a>
</g>
</g>
<!-- Node1&#45;&gt;Node28 -->
<g id="edge23_Node000001_Node000028" class="edge">
<title>Node1&#45;&gt;Node28</title>
<g id="a_edge23_Node000001_Node000028"><a xlink:title=" ">
<path fill="none" stroke="#63b8ff" d="M71.16,-892.87C86.4,-900.86 106.34,-910.4 125,-916.5 135.26,-919.86 146.36,-922.66 157.24,-924.98"/>
<polygon fill="#63b8ff" stroke="#63b8ff" points="72.8,-889.78 62.34,-888.14 69.5,-895.94 72.8,-889.78"/>
</a>
</g>
</g>
<!-- Node29 -->
<g id="Node000029" class="node">
<title>Node29</title>
<g id="a_Node000029"><a xlink:href="class_holzapfel_parameters.html" target="_top" xlink:title=" ">
<polygon fill="white" stroke="#bfbfbf" points="281,-907 162,-907 162,-888 281,-888 281,-907"/>
<text text-anchor="middle" x="221.5" y="-895" font-family="Helvetica,sans-Serif" font-size="10.00">HolzapfelParameters</text>
</a>
</g>
</g>
<!-- Node1&#45;&gt;Node29 -->
<g id="edge24_Node000001_Node000029" class="edge">
<title>Node1&#45;&gt;Node29</title>
<g id="a_edge24_Node000001_Node000029"><a xlink:title=" ">
<path fill="none" stroke="#63b8ff" d="M99.29,-884.34C119.1,-886.49 141.63,-888.94 161.85,-891.13"/>
<polygon fill="#63b8ff" stroke="#63b8ff" points="99.53,-880.85 89.21,-883.25 98.77,-887.8 99.53,-880.85"/>
</a>
</g>
</g>
<!-- Node30 -->
<g id="Node000030" class="node">
<title>Node30</title>
<g id="a_Node000030"><a xlink:href="class_ionic_initial_state_parameters.html" target="_top" xlink:title="Generic ionic model initial conditions parameters.">
<polygon fill="white" stroke="#666666" points="296,-870 147,-870 147,-851 296,-851 296,-870"/>
<text text-anchor="middle" x="221.5" y="-858" font-family="Helvetica,sans-Serif" font-size="10.00">IonicInitialStateParameters</text>
</a>
</g>
</g>
<!-- Node1&#45;&gt;Node30 -->
<g id="edge25_Node000001_Node000030" class="edge">
<title>Node1&#45;&gt;Node30</title>
<g id="a_edge25_Node000001_Node000030"><a xlink:title=" ">
<path fill="none" stroke="#63b8ff" d="M99.31,-872.97C114.29,-871.42 130.82,-869.72 146.74,-868.09"/>
<polygon fill="#63b8ff" stroke="#63b8ff" points="98.8,-869.5 89.21,-874 99.51,-876.46 98.8,-869.5"/>
</a>
</g>
</g>
<!-- Node31 -->
<g id="Node000031" class="node">
<title>Node31</title>
<g id="a_Node000031"><a xlink:href="class_ionic_model_parameters.html" target="_top" xlink:title="Parameters for a generic ionic model.">
<polygon fill="#fff0f0" stroke="red" points="284,-833 159,-833 159,-814 284,-814 284,-833"/>
<text text-anchor="middle" x="221.5" y="-821" font-family="Helvetica,sans-Serif" font-size="10.00">IonicModelParameters</text>
</a>
</g>
</g>
<!-- Node1&#45;&gt;Node31 -->
<g id="edge26_Node000001_Node000031" class="edge">
<title>Node1&#45;&gt;Node31</title>
<g id="a_edge26_Node000001_Node000031"><a xlink:title=" ">
<path fill="none" stroke="#63b8ff" d="M72.6,-864.36C87.69,-856.97 107.01,-848.28 125,-842.5 136.67,-838.75 149.39,-835.6 161.63,-833.01"/>
<polygon fill="#63b8ff" stroke="#63b8ff" points="70.72,-861.39 63.35,-868.99 73.85,-867.65 70.72,-861.39"/>
</a>
</g>
</g>
<!-- Node36 -->
<g id="Node000036" class="node">
<title>Node36</title>
<g id="a_Node000036"><a xlink:href="class_lee_sacks_parameters.html" target="_top" xlink:title=" ">
<polygon fill="white" stroke="#bfbfbf" points="280.5,-796 162.5,-796 162.5,-777 280.5,-777 280.5,-796"/>
<text text-anchor="middle" x="221.5" y="-784" font-family="Helvetica,sans-Serif" font-size="10.00">LeeSacksParameters</text>
</a>
</g>
</g>
<!-- Node1&#45;&gt;Node36 -->
<g id="edge27_Node000001_Node000036" class="edge">
<title>Node1&#45;&gt;Node36</title>
<g id="a_edge27_Node000001_Node000036"><a xlink:title=" ">
<path fill="none" stroke="#63b8ff" d="M59.58,-860.88C74.12,-843.95 98.39,-819 125,-805.5 136.53,-799.65 149.7,-795.6 162.5,-792.79"/>
<polygon fill="#63b8ff" stroke="#63b8ff" points="56.61,-858.98 52.9,-868.9 61.99,-863.46 56.61,-858.98"/>
</a>
</g>
</g>
<!-- Node37 -->
<g id="Node000037" class="node">
<title>Node37</title>
<g id="a_Node000037"><a xlink:href="class_linear_algebra_parameters.html" target="_top" xlink:title="The LinearAlgebraParameters class stores parameters for the &#39;Linear_algebra&#39; XML element.">
<polygon fill="white" stroke="#666666" points="291.5,-759 151.5,-759 151.5,-740 291.5,-740 291.5,-759"/>
<text text-anchor="middle" x="221.5" y="-747" font-family="Helvetica,sans-Serif" font-size="10.00">LinearAlgebraParameters</text>
</a>
</g>
</g>
<!-- Node1&#45;&gt;Node37 -->
<g id="edge28_Node000001_Node000037" class="edge">
<title>Node1&#45;&gt;Node37</title>
<g id="a_edge28_Node000001_Node000037"><a xlink:title=" ">
<path fill="none" stroke="#63b8ff" d="M53.58,-859.83C65.43,-834.82 89.97,-790.99 125,-768.5 132.97,-763.39 142.02,-759.6 151.3,-756.81"/>
<polygon fill="#63b8ff" stroke="#63b8ff" points="50.37,-858.44 49.41,-868.99 56.74,-861.34 50.37,-858.44"/>
</a>
</g>
</g>
<!-- Node38 -->
<g id="Node000038" class="node">
<title>Node38</title>
<g id="a_Node000038"><a xlink:href="class_linear_solver_parameters.html" target="_top" xlink:title="The LinearSolverParameters class stores parameters for the &#39;LS&#39; XML element.">
<polygon fill="white" stroke="#666666" points="288,-722 155,-722 155,-703 288,-703 288,-722"/>
<text text-anchor="middle" x="221.5" y="-710" font-family="Helvetica,sans-Serif" font-size="10.00">LinearSolverParameters</text>
</a>
</g>
</g>
<!-- Node1&#45;&gt;Node38 -->
<g id="edge29_Node000001_Node000038" class="edge">
<title>Node1&#45;&gt;Node38</title>
<g id="a_edge29_Node000001_Node000038"><a xlink:title=" ">
<path fill="none" stroke="#63b8ff" d="M50.33,-858.76C59.27,-826.67 81.56,-763.55 125,-731.5 133.71,-725.08 144.03,-720.68 154.61,-717.69"/>
<polygon fill="#63b8ff" stroke="#63b8ff" points="46.87,-858.15 47.72,-868.71 53.64,-859.93 46.87,-858.15"/>
</a>
</g>
</g>
<!-- Node39 -->
<g id="Node000039" class="node">
<title>Node39</title>
<g id="a_Node000039"><a xlink:href="class_mesh_parameters.html" target="_top" xlink:title="The MeshParameters class is used to store paramaters for the &#39;Add_mesh&#39; XML element.">
<polygon fill="white" stroke="#666666" points="270.5,-685 172.5,-685 172.5,-666 270.5,-666 270.5,-685"/>
<text text-anchor="middle" x="221.5" y="-673" font-family="Helvetica,sans-Serif" font-size="10.00">MeshParameters</text>
</a>
</g>
</g>
<!-- Node1&#45;&gt;Node39 -->
<g id="edge30_Node000001_Node000039" class="edge">
<title>Node1&#45;&gt;Node39</title>
<g id="a_edge30_Node000001_Node000039"><a xlink:title=" ">
<path fill="none" stroke="#63b8ff" d="M48.08,-858.24C54.1,-819.88 72.75,-736.72 125,-694.5 138.28,-683.77 155.95,-678.55 172.47,-676.16"/>
<polygon fill="#63b8ff" stroke="#63b8ff" points="44.55,-858.22 46.6,-868.61 51.48,-859.21 44.55,-858.22"/>
</a>
</g>
</g>
<!-- Node40 -->
<g id="Node000040" class="node">
<title>Node40</title>
<g id="a_Node000040"><a xlink:href="class_mooney_rivlin_parameters.html" target="_top" xlink:title=" ">
<polygon fill="white" stroke="#bfbfbf" points="291,-648 152,-648 152,-629 291,-629 291,-648"/>
<text text-anchor="middle" x="221.5" y="-636" font-family="Helvetica,sans-Serif" font-size="10.00">MooneyRivlinParameters</text>
</a>
</g>
</g>
<!-- Node1&#45;&gt;Node40 -->
<g id="edge31_Node000001_Node000040" class="edge">
<title>Node1&#45;&gt;Node40</title>
<g id="a_edge31_Node000001_Node000040"><a xlink:title=" ">
<path fill="none" stroke="#63b8ff" d="M46.41,-858.52C49.55,-814.83 63.45,-710.5 125,-657.5 132.69,-650.88 142.01,-646.32 151.79,-643.22"/>
<polygon fill="#63b8ff" stroke="#63b8ff" points="42.91,-858.5 45.8,-868.7 49.9,-858.92 42.91,-858.5"/>
</a>
</g>
</g>
<!-- Node41 -->
<g id="Node000041" class="node">
<title>Node41</title>
<g id="a_Node000041"><a xlink:href="class_neo_hookean_parameters.html" target="_top" xlink:title=" ">
<polygon fill="white" stroke="#bfbfbf" points="288.5,-611 154.5,-611 154.5,-592 288.5,-592 288.5,-611"/>
<text text-anchor="middle" x="221.5" y="-599" font-family="Helvetica,sans-Serif" font-size="10.00">NeoHookeanParameters</text>
</a>
</g>
</g>
<!-- Node1&#45;&gt;Node41 -->
<g id="edge32_Node000001_Node000041" class="edge">
<title>Node1&#45;&gt;Node41</title>
<g id="a_edge32_Node000001_Node000041"><a xlink:title=" ">
<path fill="none" stroke="#63b8ff" d="M45.22,-858.91C45.67,-810.52 53.97,-684.6 125,-620.5 133.28,-613.03 143.64,-608.14 154.46,-605.01"/>
<polygon fill="#63b8ff" stroke="#63b8ff" points="41.72,-858.99 45.24,-868.99 48.72,-858.98 41.72,-858.99"/>
</a>
</g>
</g>
<!-- Node42 -->
<g id="Node000042" class="node">
<title>Node42</title>
<g id="a_Node000042"><a xlink:href="class_output_parameters.html" target="_top" xlink:title="The OutputParameters class stores parameters for the Output XML element under Add_equation.">
<polygon fill="white" stroke="#666666" points="274,-574 169,-574 169,-555 274,-555 274,-574"/>
<text text-anchor="middle" x="221.5" y="-562" font-family="Helvetica,sans-Serif" font-size="10.00">OutputParameters</text>
</a>
</g>
</g>
<!-- Node1&#45;&gt;Node42 -->
<g id="edge33_Node000001_Node000042" class="edge">
<title>Node1&#45;&gt;Node42</title>
<g id="a_edge33_Node000001_Node000042"><a xlink:title=" ">
<path fill="none" stroke="#63b8ff" d="M48.06,-859.02C56.28,-799.54 83.88,-621.96 125,-583.5 136.73,-572.53 152.9,-567.09 168.61,-564.58"/>
<polygon fill="#63b8ff" stroke="#63b8ff" points="44.59,-858.6 46.72,-868.98 51.52,-859.54 44.59,-858.6"/>
</a>
</g>
</g>
<!-- Node43 -->
<g id="Node000043" class="node">
<title>Node43</title>
<g id="a_Node000043"><a xlink:href="class_precomputed_solution_parameters.html" target="_top" xlink:title="The PrecomputedSolutionParameters class stores parameters for the &#39;Precomputed_solution&#39; XML element ...">
<polygon fill="white" stroke="#666666" points="309.5,-537 133.5,-537 133.5,-518 309.5,-518 309.5,-537"/>
<text text-anchor="middle" x="221.5" y="-525" font-family="Helvetica,sans-Serif" font-size="10.00">PrecomputedSolutionParameters</text>
</a>
</g>
</g>
<!-- Node1&#45;&gt;Node43 -->
<g id="edge34_Node000001_Node000043" class="edge">
<title>Node1&#45;&gt;Node43</title>
<g id="a_edge34_Node000001_Node000043"><a xlink:title=" ">
<path fill="none" stroke="#63b8ff" d="M47.47,-858.73C54.31,-794.09 79.17,-590.59 125,-546.5 128.9,-542.75 133.31,-539.64 138.06,-537.07"/>
<polygon fill="#63b8ff" stroke="#63b8ff" points="43.97,-858.5 46.43,-868.81 50.94,-859.22 43.97,-858.5"/>
</a>
</g>
</g>
<!-- Node44 -->
<g id="Node000044" class="node">
<title>Node44</title>
<g id="a_Node000044"><a xlink:href="class_projection_parameters.html" target="_top" xlink:title="The ProjectionParameters class stores parameters for the &#39;Add_projection&#39; XML element used for fluid&#45;...">
<polygon fill="white" stroke="#666666" points="282,-500 161,-500 161,-481 282,-481 282,-500"/>
<text text-anchor="middle" x="221.5" y="-488" font-family="Helvetica,sans-Serif" font-size="10.00">ProjectionParameters</text>
</a>
</g>
</g>
<!-- Node1&#45;&gt;Node44 -->
<g id="edge35_Node000001_Node000044" class="edge">
<title>Node1&#45;&gt;Node44</title>
<g id="a_edge35_Node000001_Node000044"><a xlink:title=" ">
<path fill="none" stroke="#63b8ff" d="M46.95,-858.82C52.45,-789.67 74.34,-559.36 125,-509.5 134.64,-500.01 147.58,-494.6 160.82,-491.64"/>
<polygon fill="#63b8ff" stroke="#63b8ff" points="43.46,-858.57 46.18,-868.81 50.44,-859.11 43.46,-858.57"/>
</a>
</g>
</g>
<!-- Node45 -->
<g id="Node000045" class="node">
<title>Node45</title>
<g id="a_Node000045"><a xlink:href="class_r_i_s_projection_parameters.html" target="_top" xlink:title="The RISProjectionParameters class stores parameters for the &#39;Add_RIS_projection&#39; XML element used for...">
<polygon fill="white" stroke="#666666" points="290,-463 153,-463 153,-444 290,-444 290,-463"/>
<text text-anchor="middle" x="221.5" y="-451" font-family="Helvetica,sans-Serif" font-size="10.00">RISProjectionParameters</text>
</a>
</g>
</g>
<!-- Node1&#45;&gt;Node45 -->
<g id="edge36_Node000001_Node000045" class="edge">
<title>Node1&#45;&gt;Node45</title>
<g id="a_edge36_Node000001_Node000045"><a xlink:title=" ">
<path fill="none" stroke="#63b8ff" d="M46.53,-858.79C50.8,-785.24 69.52,-528.14 125,-472.5 132.64,-464.84 142.43,-459.82 152.81,-456.6"/>
<polygon fill="#63b8ff" stroke="#63b8ff" points="43.03,-858.78 45.97,-868.96 50.02,-859.17 43.03,-858.78"/>
</a>
</g>
</g>
<!-- Node46 -->
<g id="Node000046" class="node">
<title>Node46</title>
<g id="a_Node000046"><a xlink:href="class_remesher_parameters.html" target="_top" xlink:title="The RemesherParameters class stores parameters for the &#39;Remesher&#39; XML element used for remeshing.">
<polygon fill="white" stroke="#666666" points="282.5,-426 160.5,-426 160.5,-407 282.5,-407 282.5,-426"/>
<text text-anchor="middle" x="221.5" y="-414" font-family="Helvetica,sans-Serif" font-size="10.00">RemesherParameters</text>
</a>
</g>
</g>
<!-- Node1&#45;&gt;Node46 -->
<g id="edge37_Node000001_Node000046" class="edge">
<title>Node1&#45;&gt;Node46</title>
<g id="a_edge37_Node000001_Node000046"><a xlink:title=" ">
<path fill="none" stroke="#63b8ff" d="M46.19,-858.53C49.33,-780.43 64.74,-496.9 125,-435.5 134.35,-425.97 147.03,-420.51 160.09,-417.52"/>
<polygon fill="#63b8ff" stroke="#63b8ff" points="42.68,-858.75 45.8,-868.88 49.68,-859.02 42.68,-858.75"/>
</a>
</g>
</g>
<!-- Node47 -->
<g id="Node000047" class="node">
<title>Node47</title>
<g id="a_Node000047"><a xlink:href="class_solid_viscosity_newtonian_parameters.html" target="_top" xlink:title=" ">
<polygon fill="white" stroke="#bfbfbf" points="318,-389 125,-389 125,-370 318,-370 318,-389"/>
<text text-anchor="middle" x="221.5" y="-377" font-family="Helvetica,sans-Serif" font-size="10.00">SolidViscosityNewtonianParameters</text>
</a>
</g>
</g>
<!-- Node1&#45;&gt;Node47 -->
<g id="edge38_Node000001_Node000047" class="edge">
<title>Node1&#45;&gt;Node47</title>
<g id="a_edge38_Node000001_Node000047"><a xlink:title=" ">
<path fill="none" stroke="#63b8ff" d="M45.89,-858.47C47.93,-776.24 59.9,-465.74 125,-398.5 128.65,-394.74 132.81,-391.6 137.31,-389.01"/>
<polygon fill="#63b8ff" stroke="#63b8ff" points="42.39,-858.82 45.66,-868.89 49.38,-858.97 42.39,-858.82"/>
</a>
</g>
</g>
<!-- Node48 -->
<g id="Node000048" class="node">
<title>Node48</title>
<g id="a_Node000048"><a xlink:href="class_solid_viscosity_parameters.html" target="_top" xlink:title=" ">
<polygon fill="white" stroke="#bfbfbf" points="291.5,-352 151.5,-352 151.5,-333 291.5,-333 291.5,-352"/>
<text text-anchor="middle" x="221.5" y="-340" font-family="Helvetica,sans-Serif" font-size="10.00">SolidViscosityParameters</text>
</a>
</g>
</g>
<!-- Node1&#45;&gt;Node48 -->
<g id="edge39_Node000001_Node000048" class="edge">
<title>Node1&#45;&gt;Node48</title>
<g id="a_edge39_Node000001_Node000048"><a xlink:title=" ">
<path fill="none" stroke="#63b8ff" d="M45.63,-858.86C46.61,-773.38 54.91,-434.73 125,-361.5 132.13,-354.05 141.28,-349.07 151.09,-345.81"/>
<polygon fill="#63b8ff" stroke="#63b8ff" points="42.13,-858.96 45.54,-869 49.13,-859.03 42.13,-858.96"/>
</a>
</g>
</g>
<!-- Node49 -->
<g id="Node000049" class="node">
<title>Node49</title>
<g id="a_Node000049"><a xlink:href="class_solid_viscosity_potential_parameters.html" target="_top" xlink:title=" ">
<polygon fill="white" stroke="#bfbfbf" points="313.5,-315 129.5,-315 129.5,-296 313.5,-296 313.5,-315"/>
<text text-anchor="middle" x="221.5" y="-303" font-family="Helvetica,sans-Serif" font-size="10.00">SolidViscosityPotentialParameters</text>
</a>
</g>
</g>
<!-- Node1&#45;&gt;Node49 -->
<g id="edge40_Node000001_Node000049" class="edge">
<title>Node1&#45;&gt;Node49</title>
<g id="a_edge40_Node000001_Node000049"><a xlink:title=" ">
<path fill="none" stroke="#63b8ff" d="M45.41,-858.61C45.41,-768.97 50.09,-403.56 125,-324.5 128.49,-320.82 132.47,-317.74 136.78,-315.17"/>
<polygon fill="#63b8ff" stroke="#63b8ff" points="41.91,-858.76 45.43,-868.76 48.91,-858.75 41.91,-858.76"/>
</a>
</g>
</g>
<!-- Node50 -->
<g id="Node000050" class="node">
<title>Node50</title>
<g id="a_Node000050"><a xlink:href="class_st_venant_kirchhoff_parameters.html" target="_top" xlink:title=" ">
<polygon fill="white" stroke="#bfbfbf" points="301,-278 142,-278 142,-259 301,-259 301,-278"/>
<text text-anchor="middle" x="221.5" y="-266" font-family="Helvetica,sans-Serif" font-size="10.00">StVenantKirchhoffParameters</text>
</a>
</g>
</g>
<!-- Node1&#45;&gt;Node50 -->
<g id="edge41_Node000001_Node000050" class="edge">
<title>Node1&#45;&gt;Node50</title>
<g id="a_edge41_Node000001_Node000050"><a xlink:title=" ">
<path fill="none" stroke="#63b8ff" d="M45.21,-858.47C44.28,-764.98 45.23,-372.44 125,-287.5 129.74,-282.45 135.42,-278.53 141.6,-275.5"/>
<polygon fill="#63b8ff" stroke="#63b8ff" points="41.71,-858.61 45.33,-868.57 48.71,-858.53 41.71,-858.61"/>
</a>
</g>
</g>
<!-- Node51 -->
<g id="Node000051" class="node">
<title>Node51</title>
<g id="a_Node000051"><a xlink:href="class_stimulus_box_parameters.html" target="_top" xlink:title="Stores &lt;Box&gt; parameters for CEP stimulus spatial bounds.">
<polygon fill="white" stroke="#666666" points="288.5,-241 154.5,-241 154.5,-222 288.5,-222 288.5,-241"/>
<text text-anchor="middle" x="221.5" y="-229" font-family="Helvetica,sans-Serif" font-size="10.00">StimulusBoxParameters</text>
</a>
</g>
</g>
<!-- Node1&#45;&gt;Node51 -->
<g id="edge42_Node000001_Node000051" class="edge">
<title>Node1&#45;&gt;Node51</title>
<g id="a_edge42_Node000001_Node000051"><a xlink:title=" ">
<path fill="none" stroke="#63b8ff" d="M46.63,-858.88C52.67,-757.54 82.35,-296.27 125,-250.5 132.84,-242.09 143.25,-236.81 154.31,-233.58"/>
<polygon fill="#63b8ff" stroke="#63b8ff" points="43.14,-858.76 46.04,-868.95 50.12,-859.17 43.14,-858.76"/>
</a>
</g>
</g>
<!-- Node52 -->
<g id="Node000052" class="node">
<title>Node52</title>
<g id="a_Node000052"><a xlink:href="class_stimulus_parameters.html" target="_top" xlink:title="The StimulusParameters class stores parameters for &#39;Stimulus&#39; XML element used to parameters for pace...">
<polygon fill="white" stroke="#666666" points="279,-204 164,-204 164,-185 279,-185 279,-204"/>
<text text-anchor="middle" x="221.5" y="-192" font-family="Helvetica,sans-Serif" font-size="10.00">StimulusParameters</text>
</a>
</g>
</g>
<!-- Node1&#45;&gt;Node52 -->
<g id="edge43_Node000001_Node000052" class="edge">
<title>Node1&#45;&gt;Node52</title>
<g id="a_edge43_Node000001_Node000052"><a xlink:title=" ">
<path fill="none" stroke="#63b8ff" d="M46.5,-858.73C51.99,-753.5 79.9,-262.24 125,-213.5 134.99,-202.71 149.22,-197.05 163.65,-194.3"/>
<polygon fill="#63b8ff" stroke="#63b8ff" points="42.99,-858.72 45.98,-868.89 49.98,-859.08 42.99,-858.72"/>
</a>
</g>
</g>
<!-- Node53 -->
<g id="Node000053" class="node">
<title>Node53</title>
<g id="a_Node000053"><a xlink:href="class_stimulus_sphere_parameters.html" target="_top" xlink:title="Stores &lt;Sphere&gt; parameters for CEP stimulus spatial bounds.">
<polygon fill="white" stroke="#666666" points="296,-167 147,-167 147,-148 296,-148 296,-167"/>
<text text-anchor="middle" x="221.5" y="-155" font-family="Helvetica,sans-Serif" font-size="10.00">StimulusSphereParameters</text>
</a>
</g>
</g>
<!-- Node1&#45;&gt;Node53 -->
<g id="edge44_Node000001_Node000053" class="edge">
<title>Node1&#45;&gt;Node53</title>
<g id="a_edge44_Node000001_Node000053"><a xlink:title=" ">
<path fill="none" stroke="#63b8ff" d="M46.37,-858.66C51.32,-749.82 77.43,-228.22 125,-176.5 130.95,-170.03 138.42,-165.4 146.56,-162.14"/>
<polygon fill="#63b8ff" stroke="#63b8ff" points="42.86,-858.72 45.91,-868.87 49.86,-859.04 42.86,-858.72"/>
</a>
</g>
</g>
<!-- Node54 -->
<g id="Node000054" class="node">
<title>Node54</title>
<g id="a_Node000054"><a xlink:href="class_u_r_i_s_face_parameters.html" target="_top" xlink:title="The URISFaceParameters class is used to store parameters for the &#39;Add_URIS_face&#39; XML element.">
<polygon fill="white" stroke="#666666" points="280,-130 163,-130 163,-111 280,-111 280,-130"/>
<text text-anchor="middle" x="221.5" y="-118" font-family="Helvetica,sans-Serif" font-size="10.00">URISFaceParameters</text>
</a>
</g>
</g>
<!-- Node1&#45;&gt;Node54 -->
<g id="edge45_Node000001_Node000054" class="edge">
<title>Node1&#45;&gt;Node54</title>
<g id="a_edge45_Node000001_Node000054"><a xlink:title=" ">
<path fill="none" stroke="#63b8ff" d="M46.25,-858.68C50.69,-746.49 74.96,-194.22 125,-139.5 134.7,-128.9 148.48,-123.24 162.57,-120.41"/>
<polygon fill="#63b8ff" stroke="#63b8ff" points="42.75,-858.77 45.86,-868.89 49.74,-859.04 42.75,-858.77"/>
</a>
</g>
</g>
<!-- Node55 -->
<g id="Node000055" class="node">
<title>Node55</title>
<g id="a_Node000055"><a xlink:href="class_u_r_i_s_mesh_parameters.html" target="_top" xlink:title="The URISMeshParameters class is used to store paramaters for the &#39;Add_URIS_mesh&#39; XML element.">
<polygon fill="white" stroke="#666666" points="282.5,-93 160.5,-93 160.5,-74 282.5,-74 282.5,-93"/>
<text text-anchor="middle" x="221.5" y="-81" font-family="Helvetica,sans-Serif" font-size="10.00">URISMeshParameters</text>
</a>
</g>
</g>
<!-- Node1&#45;&gt;Node55 -->
<g id="edge46_Node000001_Node000055" class="edge">
<title>Node1&#45;&gt;Node55</title>
<g id="a_edge46_Node000001_Node000055"><a xlink:title=" ">
<path fill="none" stroke="#63b8ff" d="M46.14,-858.78C50.07,-743.52 72.46,-160.24 125,-102.5 134.1,-92.5 146.84,-86.89 160.06,-83.91"/>
<polygon fill="#63b8ff" stroke="#63b8ff" points="42.64,-858.84 45.8,-868.95 49.63,-859.08 42.64,-858.84"/>
</a>
</g>
</g>
<!-- Node56 -->
<g id="Node000056" class="node">
<title>Node56</title>
<g id="a_Node000056"><a xlink:href="class_variable_wall_props_parameters.html" target="_top" xlink:title="The VariableWallPropsParameters class stores parameters for variable wall properties for the CMM equa...">
<polygon fill="white" stroke="#666666" points="301.5,-56 141.5,-56 141.5,-37 301.5,-37 301.5,-56"/>
<text text-anchor="middle" x="221.5" y="-44" font-family="Helvetica,sans-Serif" font-size="10.00">VariableWallPropsParameters</text>
</a>
</g>
</g>
<!-- Node1&#45;&gt;Node56 -->
<g id="edge47_Node000001_Node000056" class="edge">
<title>Node1&#45;&gt;Node56</title>
<g id="a_edge47_Node000001_Node000056"><a xlink:title=" ">
<path fill="none" stroke="#63b8ff" d="M46.05,-858.58C49.52,-739.62 70.01,-126.22 125,-65.5 129.65,-60.36 135.26,-56.38 141.41,-53.32"/>
<polygon fill="#63b8ff" stroke="#63b8ff" points="42.55,-858.68 45.76,-868.78 49.54,-858.88 42.55,-858.68"/>
</a>
</g>
</g>
<!-- Node57 -->
<g id="Node000057" class="node">
<title>Node57</title>
<g id="a_Node000057"><a xlink:href="classsv_one_d_solver_interface_parameters.html" target="_top" xlink:title="Parameters for coupling to the svOneDSolver (1D blood&#45;flow solver).">
<polygon fill="white" stroke="#666666" points="314,-19 129,-19 129,0 314,0 314,-19"/>
<text text-anchor="middle" x="221.5" y="-7" font-family="Helvetica,sans-Serif" font-size="10.00">svOneDSolverInterfaceParameters</text>
</a>
</g>
</g>
<!-- Node1&#45;&gt;Node57 -->
<g id="edge48_Node000001_Node000057" class="edge">
<title>Node1&#45;&gt;Node57</title>
<g id="a_edge48_Node000001_Node000057"><a xlink:title=" ">
<path fill="none" stroke="#63b8ff" d="M45.96,-858.82C48.95,-737.3 67.48,-92.28 125,-28.5 128.28,-24.86 132.05,-21.8 136.14,-19.24"/>
<polygon fill="#63b8ff" stroke="#63b8ff" points="42.45,-858.82 45.71,-868.91 49.45,-858.99 42.45,-858.82"/>
</a>
</g>
</g>
</g>
</svg>
