<?xml version="1.0" encoding="UTF-8" standalone="no"?>
<!DOCTYPE svg PUBLIC "-//W3C//DTD SVG 1.1//EN"
 "http://www.w3.org/Graphics/SVG/1.1/DTD/svg11.dtd">
<!-- Generated by graphviz version 2.43.0 (0)
 -->
<!-- Title: ActiveStress Pages: 1 -->
<svg width="458pt" height="137pt"
 viewBox="0.00 0.00 458.00 137.00" xmlns="http://www.w3.org/2000/svg" xmlns:xlink="http://www.w3.org/1999/xlink">
<g id="graph0" class="graph" transform="scale(1 1) rotate(0) translate(4 133)">
<title>ActiveStress</title>
<!-- Node1 -->
<g id="Node000001" class="node">
<title>Node1</title>
<g id="a_Node000001"><a xlink:title="Abstract active stress class.">
<polygon fill="#999999" stroke="#666666" points="230.5,-129 153.5,-129 153.5,-110 230.5,-110 230.5,-129"/>
<text text-anchor="middle" x="192" y="-117" font-family="Helvetica,sans-Serif" font-size="10.00">ActiveStress</text>
</a>
</g>
</g>
<!-- Node2 -->
<g id="Node000002" class="node">
<title>Node2</title>
<g id="a_Node000002"><a xlink:href="class_active_stress_o_d_e.html" target="_top" xlink:title="Abstract ODE&#45;based active stress model.">
<polygon fill="white" stroke="#666666" points="98,-74 0,-74 0,-55 98,-55 98,-74"/>
<text text-anchor="middle" x="49" y="-62" font-family="Helvetica,sans-Serif" font-size="10.00">ActiveStressODE</text>
</a>
</g>
</g>
<!-- Node1&#45;&gt;Node2 -->
<g id="edge1_Node000001_Node000002" class="edge">
<title>Node1&#45;&gt;Node2</title>
<g id="a_edge1_Node000001_Node000002"><a xlink:title=" ">
<path fill="none" stroke="#63b8ff" d="M159.41,-106.42C132.88,-96.59 96.07,-82.95 72.39,-74.17"/>
<polygon fill="#63b8ff" stroke="#63b8ff" points="158.43,-109.79 169.02,-109.98 160.86,-103.23 158.43,-109.79"/>
</a>
</g>
</g>
<!-- Node4 -->
<g id="Node000004" class="node">
<title>Node4</title>
<g id="a_Node000004"><a xlink:href="class_uniform_steady_active_stress.html" target="_top" xlink:title="Uniform and steady active stress model.">
<polygon fill="white" stroke="#666666" points="267.5,-74 116.5,-74 116.5,-55 267.5,-55 267.5,-74"/>
<text text-anchor="middle" x="192" y="-62" font-family="Helvetica,sans-Serif" font-size="10.00">UniformSteadyActiveStress</text>
</a>
</g>
</g>
<!-- Node1&#45;&gt;Node4 -->
<g id="edge3_Node000001_Node000004" class="edge">
<title>Node1&#45;&gt;Node4</title>
<g id="a_edge3_Node000001_Node000004"><a xlink:title=" ">
<path fill="none" stroke="#63b8ff" d="M192,-99.66C192,-90.93 192,-80.99 192,-74.09"/>
<polygon fill="#63b8ff" stroke="#63b8ff" points="188.5,-99.75 192,-109.75 195.5,-99.75 188.5,-99.75"/>
</a>
</g>
</g>
<!-- Node5 -->
<g id="Node000005" class="node">
<title>Node5</title>
<g id="a_Node000005"><a xlink:href="class_uniform_unsteady_active_stress.html" target="_top" xlink:title="Uniform and time dependent active stress model.">
<polygon fill="white" stroke="#666666" points="450,-74 286,-74 286,-55 450,-55 450,-74"/>
<text text-anchor="middle" x="368" y="-62" font-family="Helvetica,sans-Serif" font-size="10.00">UniformUnsteadyActiveStress</text>
</a>
</g>
</g>
<!-- Node1&#45;&gt;Node5 -->
<g id="edge4_Node000001_Node000005" class="edge">
<title>Node1&#45;&gt;Node5</title>
<g id="a_edge4_Node000001_Node000005"><a xlink:title=" ">
<path fill="none" stroke="#63b8ff" d="M230,-107.06C262.9,-97.15 309.74,-83.04 339.5,-74.08"/>
<polygon fill="#63b8ff" stroke="#63b8ff" points="228.84,-103.75 220.28,-109.98 230.86,-110.45 228.84,-103.75"/>
</a>
</g>
</g>
<!-- Node3 -->
<g id="Node000003" class="node">
<title>Node3</title>
<g id="a_Node000003"><a xlink:href="class_nash_panfilov.html" target="_top" xlink:title="Nash&#45;Panfilov active stress model.">
<polygon fill="white" stroke="#666666" points="89,-19 9,-19 9,0 89,0 89,-19"/>
<text text-anchor="middle" x="49" y="-7" font-family="Helvetica,sans-Serif" font-size="10.00">NashPanfilov</text>
</a>
</g>
</g>
<!-- Node2&#45;&gt;Node3 -->
<g id="edge2_Node000002_Node000003" class="edge">
<title>Node2&#45;&gt;Node3</title>
<g id="a_edge2_Node000002_Node000003"><a xlink:title=" ">
<path fill="none" stroke="#63b8ff" d="M49,-44.66C49,-35.93 49,-25.99 49,-19.09"/>
<polygon fill="#63b8ff" stroke="#63b8ff" points="45.5,-44.75 49,-54.75 52.5,-44.75 45.5,-44.75"/>
</a>
</g>
</g>
</g>
</svg>
