<?xml version="1.0" encoding="UTF-8" standalone="no"?>
<!DOCTYPE svg PUBLIC "-//W3C//DTD SVG 1.1//EN"
 "http://www.w3.org/Graphics/SVG/1.1/DTD/svg11.dtd">
<!-- Generated by graphviz version 2.43.0 (0)
 -->
<!-- Title: Graphical Class Hierarchy Pages: 1 -->
<svg width="401pt" height="101pt"
 viewBox="0.00 0.00 401.00 101.00" xmlns="http://www.w3.org/2000/svg" xmlns:xlink="http://www.w3.org/1999/xlink">
<g id="graph0" class="graph" transform="scale(1 1) rotate(0) translate(4 97)">
<title>Graphical Class Hierarchy</title>
<!-- Node0 -->
<g id="Node000000" class="node">
<title>Node0</title>
<g id="a_Node000000"><a xlink:href="class_active_stress.html" target="_top" xlink:title="Abstract active stress class.">
<polygon fill="white" stroke="#666666" points="77,-56 0,-56 0,-37 77,-37 77,-56"/>
<text text-anchor="middle" x="38.5" y="-44" font-family="Helvetica,sans-Serif" font-size="10.00">ActiveStress</text>
</a>
</g>
</g>
<!-- Node1 -->
<g id="Node000001" class="node">
<title>Node1</title>
<g id="a_Node000001"><a xlink:href="class_active_stress_o_d_e.html" target="_top" xlink:title="Abstract ODE&#45;based active stress model.">
<polygon fill="white" stroke="#666666" points="244,-93 146,-93 146,-74 244,-74 244,-93"/>
<text text-anchor="middle" x="195" y="-81" font-family="Helvetica,sans-Serif" font-size="10.00">ActiveStressODE</text>
</a>
</g>
</g>
<!-- Node0&#45;&gt;Node1 -->
<g id="edge1_Node000000_Node000001" class="edge">
<title>Node0&#45;&gt;Node1</title>
<g id="a_edge1_Node000000_Node000001"><a xlink:title=" ">
<path fill="none" stroke="#63b8ff" d="M85.12,-58.55C94.33,-60.91 103.97,-63.33 113,-65.5 124.91,-68.36 137.84,-71.31 149.8,-73.96"/>
<polygon fill="#63b8ff" stroke="#63b8ff" points="85.88,-55.13 75.33,-56.02 84.13,-61.91 85.88,-55.13"/>
</a>
</g>
</g>
<!-- Node3 -->
<g id="Node000003" class="node">
<title>Node3</title>
<g id="a_Node000003"><a xlink:href="class_uniform_steady_active_stress.html" target="_top" xlink:title="Uniform and steady active stress model.">
<polygon fill="white" stroke="#666666" points="270.5,-56 119.5,-56 119.5,-37 270.5,-37 270.5,-56"/>
<text text-anchor="middle" x="195" y="-44" font-family="Helvetica,sans-Serif" font-size="10.00">UniformSteadyActiveStress</text>
</a>
</g>
</g>
<!-- Node0&#45;&gt;Node3 -->
<g id="edge3_Node000000_Node000003" class="edge">
<title>Node0&#45;&gt;Node3</title>
<g id="a_edge3_Node000000_Node000003"><a xlink:title=" ">
<path fill="none" stroke="#63b8ff" d="M87.53,-46.5C97.66,-46.5 108.58,-46.5 119.43,-46.5"/>
<polygon fill="#63b8ff" stroke="#63b8ff" points="87.29,-43 77.29,-46.5 87.29,-50 87.29,-43"/>
</a>
</g>
</g>
<!-- Node4 -->
<g id="Node000004" class="node">
<title>Node4</title>
<g id="a_Node000004"><a xlink:href="class_uniform_unsteady_active_stress.html" target="_top" xlink:title="Uniform and time dependent active stress model.">
<polygon fill="white" stroke="#666666" points="277,-19 113,-19 113,0 277,0 277,-19"/>
<text text-anchor="middle" x="195" y="-7" font-family="Helvetica,sans-Serif" font-size="10.00">UniformUnsteadyActiveStress</text>
</a>
</g>
</g>
<!-- Node0&#45;&gt;Node4 -->
<g id="edge4_Node000000_Node000004" class="edge">
<title>Node0&#45;&gt;Node4</title>
<g id="a_edge4_Node000000_Node000004"><a xlink:title=" ">
<path fill="none" stroke="#63b8ff" d="M87.16,-34.76C95.76,-32.66 104.64,-30.5 113,-28.5 125.92,-25.4 140.02,-22.08 152.77,-19.09"/>
<polygon fill="#63b8ff" stroke="#63b8ff" points="86.13,-31.4 77.25,-37.18 87.8,-38.2 86.13,-31.4"/>
</a>
</g>
</g>
<!-- Node2 -->
<g id="Node000002" class="node">
<title>Node2</title>
<g id="a_Node000002"><a xlink:href="class_nash_panfilov.html" target="_top" xlink:title="Nash&#45;Panfilov active stress model.">
<polygon fill="white" stroke="#666666" points="393,-93 313,-93 313,-74 393,-74 393,-93"/>
<text text-anchor="middle" x="353" y="-81" font-family="Helvetica,sans-Serif" font-size="10.00">NashPanfilov</text>
</a>
</g>
</g>
<!-- Node1&#45;&gt;Node2 -->
<g id="edge2_Node000001_Node000002" class="edge">
<title>Node1&#45;&gt;Node2</title>
<g id="a_edge2_Node000001_Node000002"><a xlink:title=" ">
<path fill="none" stroke="#63b8ff" d="M254.15,-83.5C273.77,-83.5 295.18,-83.5 312.97,-83.5"/>
<polygon fill="#63b8ff" stroke="#63b8ff" points="254.08,-80 244.08,-83.5 254.08,-87 254.08,-80"/>
</a>
</g>
</g>
</g>
</svg>
