<?xml version="1.0" encoding="UTF-8" standalone="no"?>
<!DOCTYPE svg PUBLIC "-//W3C//DTD SVG 1.1//EN"
 "http://www.w3.org/Graphics/SVG/1.1/DTD/svg11.dtd">
<!-- Generated by graphviz version 2.43.0 (0)
 -->
<!-- Title: Graphical Class Hierarchy Pages: 1 -->
<svg width="987pt" height="1512pt"
 viewBox="0.00 0.00 987.00 1511.50" xmlns="http://www.w3.org/2000/svg" xmlns:xlink="http://www.w3.org/1999/xlink">
<g id="graph0" class="graph" transform="scale(1 1) rotate(0) translate(4 1507.5)">
<title>Graphical Class Hierarchy</title>
<!-- Node0 -->
<g id="Node000000" class="node">
<title>Node0</title>
<g id="a_Node000000"><a xlink:title=" ">
<polygon fill="#e0e0e0" stroke="#999999" points="86,-809.5 0,-809.5 0,-790.5 86,-790.5 86,-809.5"/>
<text text-anchor="middle" x="43" y="-797.5" font-family="Helvetica,sans-Serif" font-size="10.00">std::exception</text>
</a>
</g>
</g>
<!-- Node1 -->
<g id="Node000001" class="node">
<title>Node1</title>
<g id="a_Node000001"><a xlink:href="class_boundary_condition_base_exception.html" target="_top" xlink:title="Base exception class for BC errors.">
<polygon fill="white" stroke="#666666" points="304,-1252.5 122,-1252.5 122,-1233.5 304,-1233.5 304,-1252.5"/>
<text text-anchor="middle" x="213" y="-1240.5" font-family="Helvetica,sans-Serif" font-size="10.00">BoundaryConditionBaseException</text>
</a>
</g>
</g>
<!-- Node0&#45;&gt;Node1 -->
<g id="edge70_Node000000_Node000001" class="edge">
<title>Node0&#45;&gt;Node1</title>
<g id="a_edge70_Node000000_Node000001"><a xlink:title=" ">
<path fill="none" stroke="#63b8ff" d="M51.21,-819.02C80.15,-895.33 187.29,-1177.85 208.38,-1233.46"/>
<polygon fill="#63b8ff" stroke="#63b8ff" points="54.48,-817.77 47.67,-809.66 47.94,-820.26 54.48,-817.77"/>
</a>
</g>
</g>
<!-- Node14 -->
<g id="Node000014" class="node">
<title>Node14</title>
<g id="a_Node000014"><a xlink:href="class_capping_surface_base_exception.html" target="_top" xlink:title="Base exception for capping surface (cap VTP) errors.">
<polygon fill="white" stroke="#666666" points="295.5,-809.5 130.5,-809.5 130.5,-790.5 295.5,-790.5 295.5,-809.5"/>
<text text-anchor="middle" x="213" y="-797.5" font-family="Helvetica,sans-Serif" font-size="10.00">CappingSurfaceBaseException</text>
</a>
</g>
</g>
<!-- Node0&#45;&gt;Node14 -->
<g id="edge83_Node000000_Node000014" class="edge">
<title>Node0&#45;&gt;Node14</title>
<g id="a_edge83_Node000000_Node000014"><a xlink:title=" ">
<path fill="none" stroke="#63b8ff" d="M96.44,-800C107.22,-800 118.8,-800 130.32,-800"/>
<polygon fill="#63b8ff" stroke="#63b8ff" points="96.39,-796.5 86.39,-800 96.39,-803.5 96.39,-796.5"/>
</a>
</g>
</g>
<!-- Node24 -->
<g id="Node000024" class="node">
<title>Node24</title>
<g id="a_Node000024"><a xlink:href="classsvmp_1_1_exception_base.html" target="_top" xlink:title=" ">
<polygon fill="white" stroke="#666666" points="274,-590.5 152,-590.5 152,-571.5 274,-571.5 274,-590.5"/>
<text text-anchor="middle" x="213" y="-578.5" font-family="Helvetica,sans-Serif" font-size="10.00">svmp::ExceptionBase</text>
</a>
</g>
</g>
<!-- Node0&#45;&gt;Node24 -->
<g id="edge93_Node000000_Node000024" class="edge">
<title>Node0&#45;&gt;Node24</title>
<g id="a_edge93_Node000000_Node000024"><a xlink:title=" ">
<path fill="none" stroke="#63b8ff" d="M57.65,-782.21C91.56,-738.01 178.76,-624.33 204.65,-590.58"/>
<polygon fill="#63b8ff" stroke="#63b8ff" points="54.75,-780.24 51.44,-790.31 60.3,-784.5 54.75,-780.24"/>
</a>
</g>
</g>
<!-- Node2 -->
<g id="Node000002" class="node">
<title>Node2</title>
<g id="a_Node000002"><a xlink:href="class_boundary_condition_array_exception.html" target="_top" xlink:title="Exception thrown when a requested array is not found.">
<polygon fill="white" stroke="#666666" points="528,-1503.5 344,-1503.5 344,-1484.5 528,-1484.5 528,-1503.5"/>
<text text-anchor="middle" x="436" y="-1491.5" font-family="Helvetica,sans-Serif" font-size="10.00">BoundaryConditionArrayException</text>
</a>
</g>
</g>
<!-- Node1&#45;&gt;Node2 -->
<g id="edge71_Node000001_Node000002" class="edge">
<title>Node1&#45;&gt;Node2</title>
<g id="a_edge71_Node000001_Node000002"><a xlink:title=" ">
<path fill="none" stroke="#63b8ff" d="M218.55,-1262.82C230.12,-1308.48 265.23,-1421.35 340,-1476 344.61,-1479.37 349.67,-1482.16 354.98,-1484.47"/>
<polygon fill="#63b8ff" stroke="#63b8ff" points="221.91,-1261.86 216.15,-1252.97 215.11,-1263.51 221.91,-1261.86"/>
</a>
</g>
</g>
<!-- Node3 -->
<g id="Node000003" class="node">
<title>Node3</title>
<g id="a_Node000003"><a xlink:href="class_boundary_condition_file_exception.html" target="_top" xlink:title="Exception thrown when VTP file cannot be read or is invalid.">
<polygon fill="white" stroke="#666666" points="523.5,-1466.5 348.5,-1466.5 348.5,-1447.5 523.5,-1447.5 523.5,-1466.5"/>
<text text-anchor="middle" x="436" y="-1454.5" font-family="Helvetica,sans-Serif" font-size="10.00">BoundaryConditionFileException</text>
</a>
</g>
</g>
<!-- Node1&#45;&gt;Node3 -->
<g id="edge72_Node000001_Node000003" class="edge">
<title>Node1&#45;&gt;Node3</title>
<g id="a_edge72_Node000001_Node000003"><a xlink:title=" ">
<path fill="none" stroke="#63b8ff" d="M220.48,-1262.37C234.95,-1302.45 273.95,-1394.45 340,-1439 345.01,-1442.38 350.49,-1445.16 356.21,-1447.45"/>
<polygon fill="#63b8ff" stroke="#63b8ff" points="223.71,-1261.02 217.11,-1252.73 217.1,-1263.32 223.71,-1261.02"/>
</a>
</g>
</g>
<!-- Node4 -->
<g id="Node000004" class="node">
<title>Node4</title>
<g id="a_Node000004"><a xlink:href="class_boundary_condition_flag_exception.html" target="_top" xlink:title="Exception thrown when a requested flag is not defined.">
<polygon fill="white" stroke="#666666" points="525.5,-1429.5 346.5,-1429.5 346.5,-1410.5 525.5,-1410.5 525.5,-1429.5"/>
<text text-anchor="middle" x="436" y="-1417.5" font-family="Helvetica,sans-Serif" font-size="10.00">BoundaryConditionFlagException</text>
</a>
</g>
</g>
<!-- Node1&#45;&gt;Node4 -->
<g id="edge73_Node000001_Node000004" class="edge">
<title>Node1&#45;&gt;Node4</title>
<g id="a_edge73_Node000001_Node000004"><a xlink:title=" ">
<path fill="none" stroke="#63b8ff" d="M223.37,-1262C241.11,-1295.84 282.99,-1366.24 340,-1401 346.32,-1404.85 353.27,-1407.94 360.45,-1410.42"/>
<polygon fill="#63b8ff" stroke="#63b8ff" points="226.31,-1260.07 218.65,-1252.76 220.08,-1263.25 226.31,-1260.07"/>
</a>
</g>
</g>
<!-- Node5 -->
<g id="Node000005" class="node">
<title>Node5</title>
<g id="a_Node000005"><a xlink:href="class_boundary_condition_global_node_id_exception.html" target="_top" xlink:title="Exception thrown when a global node ID is not found in the global&#45;to&#45;local map.">
<polygon fill="white" stroke="#666666" points="519.5,-1392 352.5,-1392 352.5,-1362 519.5,-1362 519.5,-1392"/>
<text text-anchor="start" x="360.5" y="-1380" font-family="Helvetica,sans-Serif" font-size="10.00">BoundaryConditionGlobalNode</text>
<text text-anchor="middle" x="436" y="-1369" font-family="Helvetica,sans-Serif" font-size="10.00">IdException</text>
</a>
</g>
</g>
<!-- Node1&#45;&gt;Node5 -->
<g id="edge74_Node000001_Node000005" class="edge">
<title>Node1&#45;&gt;Node5</title>
<g id="a_edge74_Node000001_Node000005"><a xlink:title=" ">
<path fill="none" stroke="#63b8ff" d="M228.88,-1260.36C250.75,-1284.76 293.98,-1328.89 340,-1353 346.48,-1356.39 353.46,-1359.33 360.6,-1361.85"/>
<polygon fill="#63b8ff" stroke="#63b8ff" points="231.3,-1257.81 222.07,-1252.62 226.04,-1262.44 231.3,-1257.81"/>
</a>
</g>
</g>
<!-- Node6 -->
<g id="Node000006" class="node">
<title>Node6</title>
<g id="a_Node000006"><a xlink:href="class_boundary_condition_node_count_exception.html" target="_top" xlink:title="Exception thrown when node count mismatch between VTP and face.">
<polygon fill="white" stroke="#666666" points="518,-1344 354,-1344 354,-1314 518,-1314 518,-1344"/>
<text text-anchor="start" x="362" y="-1332" font-family="Helvetica,sans-Serif" font-size="10.00">BoundaryConditionNodeCount</text>
<text text-anchor="middle" x="436" y="-1321" font-family="Helvetica,sans-Serif" font-size="10.00">Exception</text>
</a>
</g>
</g>
<!-- Node1&#45;&gt;Node6 -->
<g id="edge75_Node000001_Node000006" class="edge">
<title>Node1&#45;&gt;Node6</title>
<g id="a_edge75_Node000001_Node000006"><a xlink:title=" ">
<path fill="none" stroke="#63b8ff" d="M239.44,-1257.5C264.41,-1271.25 303.88,-1291.72 340,-1305 348.94,-1308.29 358.52,-1311.29 368.02,-1313.96"/>
<polygon fill="#63b8ff" stroke="#63b8ff" points="241.06,-1254.4 230.62,-1252.59 237.65,-1260.51 241.06,-1254.4"/>
</a>
</g>
</g>
<!-- Node7 -->
<g id="Node000007" class="node">
<title>Node7</title>
<g id="a_Node000007"><a xlink:href="class_boundary_condition_node_id_exception.html" target="_top" xlink:title="Exception thrown when a node ID is out of range.">
<polygon fill="white" stroke="#666666" points="532,-1295.5 340,-1295.5 340,-1276.5 532,-1276.5 532,-1295.5"/>
<text text-anchor="middle" x="436" y="-1283.5" font-family="Helvetica,sans-Serif" font-size="10.00">BoundaryConditionNodeIdException</text>
</a>
</g>
</g>
<!-- Node1&#45;&gt;Node7 -->
<g id="edge76_Node000001_Node000007" class="edge">
<title>Node1&#45;&gt;Node7</title>
<g id="a_edge76_Node000001_Node000007"><a xlink:title=" ">
<path fill="none" stroke="#63b8ff" d="M273.22,-1254.52C308.52,-1261.39 352.79,-1270 386.09,-1276.48"/>
<polygon fill="#63b8ff" stroke="#63b8ff" points="273.53,-1251.02 263.05,-1252.54 272.19,-1257.89 273.53,-1251.02"/>
</a>
</g>
</g>
<!-- Node8 -->
<g id="Node000008" class="node">
<title>Node8</title>
<g id="a_Node000008"><a xlink:href="class_boundary_condition_not_initialized_exception.html" target="_top" xlink:title="Exception thrown when BoundaryCondition is not properly initialized.">
<polygon fill="white" stroke="#666666" points="523.5,-1258 348.5,-1258 348.5,-1228 523.5,-1228 523.5,-1258"/>
<text text-anchor="start" x="356.5" y="-1246" font-family="Helvetica,sans-Serif" font-size="10.00">BoundaryConditionNotInitialized</text>
<text text-anchor="middle" x="436" y="-1235" font-family="Helvetica,sans-Serif" font-size="10.00">Exception</text>
</a>
</g>
</g>
<!-- Node1&#45;&gt;Node8 -->
<g id="edge77_Node000001_Node000008" class="edge">
<title>Node1&#45;&gt;Node8</title>
<g id="a_edge77_Node000001_Node000008"><a xlink:title=" ">
<path fill="none" stroke="#63b8ff" d="M314.51,-1243C325.79,-1243 337.21,-1243 348.29,-1243"/>
<polygon fill="#63b8ff" stroke="#63b8ff" points="314.21,-1239.5 304.21,-1243 314.21,-1246.5 314.21,-1239.5"/>
</a>
</g>
</g>
<!-- Node9 -->
<g id="Node000009" class="node">
<title>Node9</title>
<g id="a_Node000009"><a xlink:href="class_boundary_condition_null_face_exception.html" target="_top" xlink:title="Exception thrown when face_ is nullptr during distribute.">
<polygon fill="white" stroke="#666666" points="511.5,-1210 360.5,-1210 360.5,-1180 511.5,-1180 511.5,-1210"/>
<text text-anchor="start" x="368.5" y="-1198" font-family="Helvetica,sans-Serif" font-size="10.00">BoundaryConditionNullFace</text>
<text text-anchor="middle" x="436" y="-1187" font-family="Helvetica,sans-Serif" font-size="10.00">Exception</text>
</a>
</g>
</g>
<!-- Node1&#45;&gt;Node9 -->
<g id="edge78_Node000001_Node000009" class="edge">
<title>Node1&#45;&gt;Node9</title>
<g id="a_edge78_Node000001_Node000009"><a xlink:title=" ">
<path fill="none" stroke="#63b8ff" d="M268.03,-1231.26C297.53,-1224.86 334.36,-1216.86 365.92,-1210"/>
<polygon fill="#63b8ff" stroke="#63b8ff" points="266.96,-1227.92 257.93,-1233.46 268.44,-1234.76 266.96,-1227.92"/>
</a>
</g>
</g>
<!-- Node10 -->
<g id="Node000010" class="node">
<title>Node10</title>
<g id="a_Node000010"><a xlink:href="class_boundary_condition_point_not_found_exception.html" target="_top" xlink:title="Exception thrown when a point cannot be found in VTP file.">
<polygon fill="white" stroke="#666666" points="512,-1162 360,-1162 360,-1132 512,-1132 512,-1162"/>
<text text-anchor="start" x="368" y="-1150" font-family="Helvetica,sans-Serif" font-size="10.00">BoundaryConditionPointNot</text>
<text text-anchor="middle" x="436" y="-1139" font-family="Helvetica,sans-Serif" font-size="10.00">FoundException</text>
</a>
</g>
</g>
<!-- Node1&#45;&gt;Node10 -->
<g id="edge79_Node000001_Node000010" class="edge">
<title>Node1&#45;&gt;Node10</title>
<g id="a_edge79_Node000001_Node000010"><a xlink:title=" ">
<path fill="none" stroke="#63b8ff" d="M236.26,-1227.79C260.73,-1211.67 301.67,-1186.46 340,-1171 348.28,-1167.66 357.16,-1164.68 366.05,-1162.05"/>
<polygon fill="#63b8ff" stroke="#63b8ff" points="234.1,-1225.02 227.72,-1233.48 237.99,-1230.84 234.1,-1225.02"/>
</a>
</g>
</g>
<!-- Node11 -->
<g id="Node000011" class="node">
<title>Node11</title>
<g id="a_Node000011"><a xlink:href="class_boundary_condition_validation_exception.html" target="_top" xlink:title="Exception thrown when array validation fails.">
<polygon fill="white" stroke="#666666" points="515,-1114 357,-1114 357,-1084 515,-1084 515,-1114"/>
<text text-anchor="start" x="365" y="-1102" font-family="Helvetica,sans-Serif" font-size="10.00">BoundaryConditionValidation</text>
<text text-anchor="middle" x="436" y="-1091" font-family="Helvetica,sans-Serif" font-size="10.00">Exception</text>
</a>
</g>
</g>
<!-- Node1&#45;&gt;Node11 -->
<g id="edge80_Node000001_Node000011" class="edge">
<title>Node1&#45;&gt;Node11</title>
<g id="a_edge80_Node000001_Node000011"><a xlink:title=" ">
<path fill="none" stroke="#63b8ff" d="M227.61,-1225.15C248.73,-1198.73 292,-1149.49 340,-1123 346.26,-1119.55 353.02,-1116.58 359.95,-1114.04"/>
<polygon fill="#63b8ff" stroke="#63b8ff" points="224.74,-1223.14 221.32,-1233.17 230.25,-1227.46 224.74,-1223.14"/>
</a>
</g>
</g>
<!-- Node12 -->
<g id="Node000012" class="node">
<title>Node12</title>
<g id="a_Node000012"><a xlink:href="class_boundary_condition_vtp_array_dimension_exception.html" target="_top" xlink:title="Exception thrown when a VTP array has incorrect dimensions.">
<polygon fill="white" stroke="#666666" points="512,-1066 360,-1066 360,-1036 512,-1036 512,-1066"/>
<text text-anchor="start" x="368" y="-1054" font-family="Helvetica,sans-Serif" font-size="10.00">BoundaryConditionVtpArray</text>
<text text-anchor="middle" x="436" y="-1043" font-family="Helvetica,sans-Serif" font-size="10.00">DimensionException</text>
</a>
</g>
</g>
<!-- Node1&#45;&gt;Node12 -->
<g id="edge81_Node000001_Node000012" class="edge">
<title>Node1&#45;&gt;Node12</title>
<g id="a_edge81_Node000001_Node000012"><a xlink:title=" ">
<path fill="none" stroke="#63b8ff" d="M222.75,-1224.05C239.97,-1188.93 281.72,-1113.8 340,-1075 346.09,-1070.95 352.81,-1067.58 359.79,-1064.78"/>
<polygon fill="#63b8ff" stroke="#63b8ff" points="219.53,-1222.67 218.38,-1233.2 225.84,-1225.69 219.53,-1222.67"/>
</a>
</g>
</g>
<!-- Node13 -->
<g id="Node000013" class="node">
<title>Node13</title>
<g id="a_Node000013"><a xlink:href="class_boundary_condition_vtp_array_exception.html" target="_top" xlink:title="Exception thrown when a VTP file doesn&#39;t contain a required array.">
<polygon fill="white" stroke="#666666" points="512,-1018 360,-1018 360,-988 512,-988 512,-1018"/>
<text text-anchor="start" x="368" y="-1006" font-family="Helvetica,sans-Serif" font-size="10.00">BoundaryConditionVtpArray</text>
<text text-anchor="middle" x="436" y="-995" font-family="Helvetica,sans-Serif" font-size="10.00">Exception</text>
</a>
</g>
</g>
<!-- Node1&#45;&gt;Node13 -->
<g id="edge82_Node000001_Node000013" class="edge">
<title>Node1&#45;&gt;Node13</title>
<g id="a_edge82_Node000001_Node000013"><a xlink:title=" ">
<path fill="none" stroke="#63b8ff" d="M219.57,-1223.77C232.89,-1181.29 270.75,-1079.11 340,-1027 345.98,-1022.5 352.71,-1018.84 359.76,-1015.86"/>
<polygon fill="#63b8ff" stroke="#63b8ff" points="216.19,-1222.85 216.64,-1233.43 222.89,-1224.87 216.19,-1222.85"/>
</a>
</g>
</g>
<!-- Node15 -->
<g id="Node000015" class="node">
<title>Node15</title>
<g id="a_Node000015"><a xlink:href="class_capping_surface_assembly_exception.html" target="_top" xlink:title="Inconsistent cap connectivity or assembly indexing.">
<polygon fill="white" stroke="#666666" points="530.5,-969.5 341.5,-969.5 341.5,-950.5 530.5,-950.5 530.5,-969.5"/>
<text text-anchor="middle" x="436" y="-957.5" font-family="Helvetica,sans-Serif" font-size="10.00">CappingSurfaceAssemblyException</text>
</a>
</g>
</g>
<!-- Node14&#45;&gt;Node15 -->
<g id="edge84_Node000014_Node000015" class="edge">
<title>Node14&#45;&gt;Node15</title>
<g id="a_edge84_Node000014_Node000015"><a xlink:title=" ">
<path fill="none" stroke="#63b8ff" d="M224.63,-818.42C243.56,-849.38 286.2,-911.47 340,-942 345.99,-945.4 352.49,-948.17 359.2,-950.42"/>
<polygon fill="#63b8ff" stroke="#63b8ff" points="227.47,-816.33 219.34,-809.54 221.46,-819.92 227.47,-816.33"/>
</a>
</g>
</g>
<!-- Node16 -->
<g id="Node000016" class="node">
<title>Node16</title>
<g id="a_Node000016"><a xlink:href="class_capping_surface_copy_exception.html" target="_top" xlink:title="Failure copying a CappingSurface or its internal face.">
<polygon fill="white" stroke="#666666" points="519,-932.5 353,-932.5 353,-913.5 519,-913.5 519,-932.5"/>
<text text-anchor="middle" x="436" y="-920.5" font-family="Helvetica,sans-Serif" font-size="10.00">CappingSurfaceCopyException</text>
</a>
</g>
</g>
<!-- Node14&#45;&gt;Node16 -->
<g id="edge85_Node000014_Node000016" class="edge">
<title>Node14&#45;&gt;Node16</title>
<g id="a_edge85_Node000014_Node000016"><a xlink:title=" ">
<path fill="none" stroke="#63b8ff" d="M229.26,-817.04C251.29,-840.51 294.4,-882.32 340,-904 348.2,-907.9 357.17,-911 366.22,-913.46"/>
<polygon fill="#63b8ff" stroke="#63b8ff" points="231.73,-814.55 222.38,-809.57 226.58,-819.29 231.73,-814.55"/>
</a>
</g>
</g>
<!-- Node17 -->
<g id="Node000017" class="node">
<title>Node17</title>
<g id="a_Node000017"><a xlink:href="class_capping_surface_coupling_topology_exception.html" target="_top" xlink:title="Cap mesh shares no nodes with the coupled boundary face.">
<polygon fill="white" stroke="#666666" points="525.5,-895 346.5,-895 346.5,-865 525.5,-865 525.5,-895"/>
<text text-anchor="start" x="354.5" y="-883" font-family="Helvetica,sans-Serif" font-size="10.00">CappingSurfaceCouplingTopology</text>
<text text-anchor="middle" x="436" y="-872" font-family="Helvetica,sans-Serif" font-size="10.00">Exception</text>
</a>
</g>
</g>
<!-- Node14&#45;&gt;Node17 -->
<g id="edge86_Node000014_Node000017" class="edge">
<title>Node14&#45;&gt;Node17</title>
<g id="a_edge86_Node000014_Node000017"><a xlink:title=" ">
<path fill="none" stroke="#63b8ff" d="M242.1,-814.16C267.28,-826.43 305.45,-844.05 340,-856 349.41,-859.25 359.47,-862.27 369.41,-864.99"/>
<polygon fill="#63b8ff" stroke="#63b8ff" points="243.32,-810.85 232.8,-809.58 240.23,-817.13 243.32,-810.85"/>
</a>
</g>
</g>
<!-- Node18 -->
<g id="Node000018" class="node">
<title>Node18</title>
<g id="a_Node000018"><a xlink:href="class_capping_surface_file_exception.html" target="_top" xlink:title="Cap VTP file cannot be opened.">
<polygon fill="white" stroke="#666666" points="515,-846.5 357,-846.5 357,-827.5 515,-827.5 515,-846.5"/>
<text text-anchor="middle" x="436" y="-834.5" font-family="Helvetica,sans-Serif" font-size="10.00">CappingSurfaceFileException</text>
</a>
</g>
</g>
<!-- Node14&#45;&gt;Node18 -->
<g id="edge87_Node000014_Node000018" class="edge">
<title>Node14&#45;&gt;Node18</title>
<g id="a_edge87_Node000014_Node000018"><a xlink:title=" ">
<path fill="none" stroke="#63b8ff" d="M281.17,-811.25C312.07,-816.42 348.34,-822.49 377.9,-827.44"/>
<polygon fill="#63b8ff" stroke="#63b8ff" points="281.35,-807.73 270.91,-809.53 280.2,-814.63 281.35,-807.73"/>
</a>
</g>
</g>
<!-- Node19 -->
<g id="Node000019" class="node">
<title>Node19</title>
<g id="a_Node000019"><a xlink:href="class_capping_surface_geometry_exception.html" target="_top" xlink:title="Geometry or Jacobian error during cap surface integration.">
<polygon fill="white" stroke="#666666" points="531,-809.5 341,-809.5 341,-790.5 531,-790.5 531,-809.5"/>
<text text-anchor="middle" x="436" y="-797.5" font-family="Helvetica,sans-Serif" font-size="10.00">CappingSurfaceGeometryException</text>
</a>
</g>
</g>
<!-- Node14&#45;&gt;Node19 -->
<g id="edge88_Node000014_Node000019" class="edge">
<title>Node14&#45;&gt;Node19</title>
<g id="a_edge88_Node000014_Node000019"><a xlink:title=" ">
<path fill="none" stroke="#63b8ff" d="M305.79,-800C317.42,-800 329.33,-800 340.99,-800"/>
<polygon fill="#63b8ff" stroke="#63b8ff" points="305.66,-796.5 295.66,-800 305.66,-803.5 305.66,-796.5"/>
</a>
</g>
</g>
<!-- Node20 -->
<g id="Node000020" class="node">
<title>Node20</title>
<g id="a_Node000020"><a xlink:href="class_capping_surface_invalid_element_nodes_exception.html" target="_top" xlink:title="Cap VTP connectivity does not match expected TRI3 topology.">
<polygon fill="white" stroke="#666666" points="519.5,-772 352.5,-772 352.5,-742 519.5,-742 519.5,-772"/>
<text text-anchor="start" x="360.5" y="-760" font-family="Helvetica,sans-Serif" font-size="10.00">CappingSurfaceInvalidElement</text>
<text text-anchor="middle" x="436" y="-749" font-family="Helvetica,sans-Serif" font-size="10.00">NodesException</text>
</a>
</g>
</g>
<!-- Node14&#45;&gt;Node20 -->
<g id="edge89_Node000014_Node000020" class="edge">
<title>Node14&#45;&gt;Node20</title>
<g id="a_edge89_Node000014_Node000020"><a xlink:title=" ">
<path fill="none" stroke="#63b8ff" d="M273.13,-788.49C299.16,-783.43 330.07,-777.42 357.87,-772.01"/>
<polygon fill="#63b8ff" stroke="#63b8ff" points="272.19,-785.11 263.05,-790.46 273.53,-791.98 272.19,-785.11"/>
</a>
</g>
</g>
<!-- Node21 -->
<g id="Node000021" class="node">
<title>Node21</title>
<g id="a_Node000021"><a xlink:href="class_capping_surface_quadrature_exception.html" target="_top" xlink:title="Cap face quadrature (shape functions on TRI3) setup failed.">
<polygon fill="white" stroke="#666666" points="510,-724 362,-724 362,-694 510,-694 510,-724"/>
<text text-anchor="start" x="370" y="-712" font-family="Helvetica,sans-Serif" font-size="10.00">CappingSurfaceQuadrature</text>
<text text-anchor="middle" x="436" y="-701" font-family="Helvetica,sans-Serif" font-size="10.00">Exception</text>
</a>
</g>
</g>
<!-- Node14&#45;&gt;Node21 -->
<g id="edge90_Node000014_Node000021" class="edge">
<title>Node14&#45;&gt;Node21</title>
<g id="a_edge90_Node000014_Node000021"><a xlink:title=" ">
<path fill="none" stroke="#63b8ff" d="M238.03,-784.96C262.79,-770.01 302.9,-747.31 340,-733 348.57,-729.69 357.75,-726.72 366.91,-724.07"/>
<polygon fill="#63b8ff" stroke="#63b8ff" points="236.04,-782.07 229.33,-790.27 239.69,-788.05 236.04,-782.07"/>
</a>
</g>
</g>
<!-- Node22 -->
<g id="Node000022" class="node">
<title>Node22</title>
<g id="a_Node000022"><a xlink:href="class_capping_surface_unsupported_cell_exception.html" target="_top" xlink:title="Cap VTP uses an unsupported cell type (only TRI3 is supported).">
<polygon fill="white" stroke="#666666" points="513.5,-676 358.5,-676 358.5,-646 513.5,-646 513.5,-676"/>
<text text-anchor="start" x="366.5" y="-664" font-family="Helvetica,sans-Serif" font-size="10.00">CappingSurfaceUnsupported</text>
<text text-anchor="middle" x="436" y="-653" font-family="Helvetica,sans-Serif" font-size="10.00">CellException</text>
</a>
</g>
</g>
<!-- Node14&#45;&gt;Node22 -->
<g id="edge91_Node000014_Node000022" class="edge">
<title>Node14&#45;&gt;Node22</title>
<g id="a_edge91_Node000014_Node000022"><a xlink:title=" ">
<path fill="none" stroke="#63b8ff" d="M228.1,-782.54C249.55,-757.16 292.9,-710.34 340,-685 346.29,-681.61 353.08,-678.69 360.02,-676.18"/>
<polygon fill="#63b8ff" stroke="#63b8ff" points="225.38,-780.33 221.69,-790.26 230.77,-784.8 225.38,-780.33"/>
</a>
</g>
</g>
<!-- Node23 -->
<g id="Node000023" class="node">
<title>Node23</title>
<g id="a_Node000023"><a xlink:href="class_capping_surface_vtp_exception.html" target="_top" xlink:title="VTP read, parse, or validation error during cap load.">
<polygon fill="white" stroke="#666666" points="515,-627.5 357,-627.5 357,-608.5 515,-608.5 515,-627.5"/>
<text text-anchor="middle" x="436" y="-615.5" font-family="Helvetica,sans-Serif" font-size="10.00">CappingSurfaceVtpException</text>
</a>
</g>
</g>
<!-- Node14&#45;&gt;Node23 -->
<g id="edge92_Node000014_Node000023" class="edge">
<title>Node14&#45;&gt;Node23</title>
<g id="a_edge92_Node000014_Node000023"><a xlink:title=" ">
<path fill="none" stroke="#63b8ff" d="M222.73,-781.34C239.92,-746.82 281.62,-673.2 340,-637 346.15,-633.19 352.91,-630.12 359.91,-627.66"/>
<polygon fill="#63b8ff" stroke="#63b8ff" points="219.58,-779.82 218.37,-790.35 225.88,-782.88 219.58,-779.82"/>
</a>
</g>
</g>
<!-- Node25 -->
<g id="Node000025" class="node">
<title>Node25</title>
<g id="a_Node000025"><a xlink:href="classsvmp_1_1_core_exception.html" target="_top" xlink:title=" ">
<polygon fill="white" stroke="#666666" points="496,-590.5 376,-590.5 376,-571.5 496,-571.5 496,-590.5"/>
<text text-anchor="middle" x="436" y="-578.5" font-family="Helvetica,sans-Serif" font-size="10.00">svmp::CoreException</text>
</a>
</g>
</g>
<!-- Node24&#45;&gt;Node25 -->
<g id="edge94_Node000024_Node000025" class="edge">
<title>Node24&#45;&gt;Node25</title>
<g id="a_edge94_Node000024_Node000025"><a xlink:title=" ">
<path fill="none" stroke="#63b8ff" d="M284.3,-581C313.72,-581 347.54,-581 375.68,-581"/>
<polygon fill="#63b8ff" stroke="#63b8ff" points="284.1,-577.5 274.1,-581 284.1,-584.5 284.1,-577.5"/>
</a>
</g>
</g>
<!-- Node33 -->
<g id="Node000033" class="node">
<title>Node33</title>
<g id="a_Node000033"><a xlink:href="classsvmp_1_1_f_e_1_1_f_e_exception.html" target="_top" xlink:title="Base exception type for errors originating in the FE library.">
<polygon fill="white" stroke="#666666" points="500,-329.5 372,-329.5 372,-310.5 500,-310.5 500,-329.5"/>
<text text-anchor="middle" x="436" y="-317.5" font-family="Helvetica,sans-Serif" font-size="10.00">svmp::FE::FEException</text>
</a>
</g>
</g>
<!-- Node24&#45;&gt;Node33 -->
<g id="edge102_Node000024_Node000033" class="edge">
<title>Node24&#45;&gt;Node33</title>
<g id="a_edge102_Node000024_Node000033"><a xlink:title=" ">
<path fill="none" stroke="#63b8ff" d="M228.68,-563.66C271.27,-513.36 393.91,-368.53 426.8,-329.69"/>
<polygon fill="#63b8ff" stroke="#63b8ff" points="225.92,-561.51 222.13,-571.4 231.26,-566.03 225.92,-561.51"/>
</a>
</g>
</g>
<!-- Node26 -->
<g id="Node000026" class="node">
<title>Node26</title>
<g id="a_Node000026"><a xlink:href="classsvmp_1_1_dependency_exception.html" target="_top" xlink:title="A required dependency is missing or failed to load.">
<polygon fill="white" stroke="#666666" points="739,-720.5 581,-720.5 581,-701.5 739,-701.5 739,-720.5"/>
<text text-anchor="middle" x="660" y="-708.5" font-family="Helvetica,sans-Serif" font-size="10.00">svmp::DependencyException</text>
</a>
</g>
</g>
<!-- Node25&#45;&gt;Node26 -->
<g id="edge95_Node000025_Node000026" class="edge">
<title>Node25&#45;&gt;Node26</title>
<g id="a_edge95_Node000025_Node000026"><a xlink:title=" ">
<path fill="none" stroke="#63b8ff" d="M506.24,-586.26C515.61,-589.33 524.55,-593.73 532,-600 565.92,-628.53 534.05,-664.5 568,-693 571.95,-696.31 576.33,-699.08 580.98,-701.38"/>
<polygon fill="#63b8ff" stroke="#63b8ff" points="506.93,-582.82 496.36,-583.53 505.06,-589.57 506.93,-582.82"/>
</a>
</g>
</g>
<!-- Node27 -->
<g id="Node000027" class="node">
<title>Node27</title>
<g id="a_Node000027"><a xlink:href="classsvmp_1_1_file_format_exception.html" target="_top" xlink:title="An exception raised when a file cannot be parsed or has an invalid format.">
<polygon fill="white" stroke="#666666" points="734.5,-683.5 585.5,-683.5 585.5,-664.5 734.5,-664.5 734.5,-683.5"/>
<text text-anchor="middle" x="660" y="-671.5" font-family="Helvetica,sans-Serif" font-size="10.00">svmp::FileFormatException</text>
</a>
</g>
</g>
<!-- Node25&#45;&gt;Node27 -->
<g id="edge96_Node000025_Node000027" class="edge">
<title>Node25&#45;&gt;Node27</title>
<g id="a_edge96_Node000025_Node000027"><a xlink:title=" ">
<path fill="none" stroke="#63b8ff" d="M505.9,-587.89C515.16,-590.74 524.16,-594.66 532,-600 556.45,-616.67 543.54,-639.36 568,-656 573.33,-659.62 579.21,-662.55 585.35,-664.92"/>
<polygon fill="#63b8ff" stroke="#63b8ff" points="506.75,-584.5 496.19,-585.29 504.94,-591.26 506.75,-584.5"/>
</a>
</g>
</g>
<!-- Node28 -->
<g id="Node000028" class="node">
<title>Node28</title>
<g id="a_Node000028"><a xlink:href="classsvmp_1_1_file_not_found_exception.html" target="_top" xlink:title="An exception raised when a file cannot be opened.">
<polygon fill="white" stroke="#666666" points="740.5,-646.5 579.5,-646.5 579.5,-627.5 740.5,-627.5 740.5,-646.5"/>
<text text-anchor="middle" x="660" y="-634.5" font-family="Helvetica,sans-Serif" font-size="10.00">svmp::FileNotFoundException</text>
</a>
</g>
</g>
<!-- Node25&#45;&gt;Node28 -->
<g id="edge97_Node000025_Node000028" class="edge">
<title>Node25&#45;&gt;Node28</title>
<g id="a_edge97_Node000025_Node000028"><a xlink:title=" ">
<path fill="none" stroke="#63b8ff" d="M506.16,-592.39C514.96,-594.55 523.77,-597.07 532,-600 549.05,-606.06 550.95,-612.96 568,-619 577.41,-622.33 587.6,-625.11 597.64,-627.4"/>
<polygon fill="#63b8ff" stroke="#63b8ff" points="506.78,-588.94 496.25,-590.11 505.21,-595.77 506.78,-588.94"/>
</a>
</g>
</g>
<!-- Node29 -->
<g id="Node000029" class="node">
<title>Node29</title>
<g id="a_Node000029"><a xlink:href="classsvmp_1_1_index_out_of_range_exception.html" target="_top" xlink:title="An index is outside its valid range.">
<polygon fill="white" stroke="#666666" points="752,-609.5 568,-609.5 568,-590.5 752,-590.5 752,-609.5"/>
<text text-anchor="middle" x="660" y="-597.5" font-family="Helvetica,sans-Serif" font-size="10.00">svmp::IndexOutOfRangeException</text>
</a>
</g>
</g>
<!-- Node25&#45;&gt;Node29 -->
<g id="edge98_Node000025_Node000029" class="edge">
<title>Node25&#45;&gt;Node29</title>
<g id="a_edge98_Node000025_Node000029"><a xlink:title=" ">
<path fill="none" stroke="#63b8ff" d="M506.2,-586.92C525.69,-588.59 547.2,-590.43 567.78,-592.19"/>
<polygon fill="#63b8ff" stroke="#63b8ff" points="506.46,-583.43 496.2,-586.07 505.87,-590.41 506.46,-583.43"/>
</a>
</g>
</g>
<!-- Node30 -->
<g id="Node000030" class="node">
<title>Node30</title>
<g id="a_Node000030"><a xlink:href="classsvmp_1_1_internal_error_exception.html" target="_top" xlink:title="Internal error exception.">
<polygon fill="white" stroke="#666666" points="739,-572.5 581,-572.5 581,-553.5 739,-553.5 739,-572.5"/>
<text text-anchor="middle" x="660" y="-560.5" font-family="Helvetica,sans-Serif" font-size="10.00">svmp::InternalErrorException</text>
</a>
</g>
</g>
<!-- Node25&#45;&gt;Node30 -->
<g id="edge99_Node000025_Node000030" class="edge">
<title>Node25&#45;&gt;Node30</title>
<g id="a_edge99_Node000025_Node000030"><a xlink:title=" ">
<path fill="none" stroke="#63b8ff" d="M506.46,-575.37C530.04,-573.46 556.54,-571.31 580.76,-569.34"/>
<polygon fill="#63b8ff" stroke="#63b8ff" points="505.88,-571.9 496.2,-576.2 506.45,-578.88 505.88,-571.9"/>
</a>
</g>
</g>
<!-- Node31 -->
<g id="Node000031" class="node">
<title>Node31</title>
<g id="a_Node000031"><a xlink:href="classsvmp_1_1_not_implemented_exception.html" target="_top" xlink:title="A requested operation or feature is not implemented.">
<polygon fill="white" stroke="#666666" points="750,-535.5 570,-535.5 570,-516.5 750,-516.5 750,-535.5"/>
<text text-anchor="middle" x="660" y="-523.5" font-family="Helvetica,sans-Serif" font-size="10.00">svmp::NotImplementedException</text>
</a>
</g>
</g>
<!-- Node25&#45;&gt;Node31 -->
<g id="edge100_Node000025_Node000031" class="edge">
<title>Node25&#45;&gt;Node31</title>
<g id="a_edge100_Node000025_Node000031"><a xlink:title=" ">
<path fill="none" stroke="#63b8ff" d="M479.18,-568.69C504.77,-561.4 538.15,-552.21 568,-545 581.65,-541.7 596.53,-538.45 610.23,-535.6"/>
<polygon fill="#63b8ff" stroke="#63b8ff" points="478.07,-565.37 469.42,-571.48 480,-572.09 478.07,-565.37"/>
</a>
</g>
</g>
<!-- Node32 -->
<g id="Node000032" class="node">
<title>Node32</title>
<g id="a_Node000032"><a xlink:href="classsvmp_1_1_parse_exception.html" target="_top" xlink:title="A parsing or input&#45;format error.">
<polygon fill="white" stroke="#666666" points="722,-498.5 598,-498.5 598,-479.5 722,-479.5 722,-498.5"/>
<text text-anchor="middle" x="660" y="-486.5" font-family="Helvetica,sans-Serif" font-size="10.00">svmp::ParseException</text>
</a>
</g>
</g>
<!-- Node25&#45;&gt;Node32 -->
<g id="edge101_Node000025_Node000032" class="edge">
<title>Node25&#45;&gt;Node32</title>
<g id="a_edge101_Node000025_Node000032"><a xlink:title=" ">
<path fill="none" stroke="#63b8ff" d="M459.33,-565.78C484.63,-549.21 527.59,-523.08 568,-508 578.13,-504.22 589.19,-501.12 600,-498.6"/>
<polygon fill="#63b8ff" stroke="#63b8ff" points="457.24,-562.96 450.85,-571.41 461.12,-568.79 457.24,-562.96"/>
</a>
</g>
</g>
<!-- Node34 -->
<g id="Node000034" class="node">
<title>Node34</title>
<g id="a_Node000034"><a xlink:href="classsvmp_1_1_f_e_1_1_assembly_exception.html" target="_top" xlink:title="Global assembly failure.">
<polygon fill="white" stroke="#666666" points="742,-461.5 578,-461.5 578,-442.5 742,-442.5 742,-461.5"/>
<text text-anchor="middle" x="660" y="-449.5" font-family="Helvetica,sans-Serif" font-size="10.00">svmp::FE::AssemblyException</text>
</a>
</g>
</g>
<!-- Node33&#45;&gt;Node34 -->
<g id="edge103_Node000033_Node000034" class="edge">
<title>Node33&#45;&gt;Node34</title>
<g id="a_edge103_Node000033_Node000034"><a xlink:title=" ">
<path fill="none" stroke="#63b8ff" d="M451.68,-337.61C474.01,-363.16 519.11,-410.04 568,-434 574.94,-437.4 582.48,-440.16 590.15,-442.4"/>
<polygon fill="#63b8ff" stroke="#63b8ff" points="454.17,-335.14 445.01,-329.83 448.86,-339.7 454.17,-335.14"/>
</a>
</g>
</g>
<!-- Node35 -->
<g id="Node000035" class="node">
<title>Node35</title>
<g id="a_Node000035"><a xlink:href="classsvmp_1_1_f_e_1_1_backend_exception.html" target="_top" xlink:title="Failure reported by a linear&#45;algebra or solver backend.">
<polygon fill="white" stroke="#666666" points="738.5,-424.5 581.5,-424.5 581.5,-405.5 738.5,-405.5 738.5,-424.5"/>
<text text-anchor="middle" x="660" y="-412.5" font-family="Helvetica,sans-Serif" font-size="10.00">svmp::FE::BackendException</text>
</a>
</g>
</g>
<!-- Node33&#45;&gt;Node35 -->
<g id="edge104_Node000033_Node000035" class="edge">
<title>Node33&#45;&gt;Node35</title>
<g id="a_edge104_Node000033_Node000035"><a xlink:title=" ">
<path fill="none" stroke="#63b8ff" d="M458.36,-335.63C483.39,-353.2 526.71,-381.3 568,-397 576.88,-400.38 586.5,-403.15 596.05,-405.43"/>
<polygon fill="#63b8ff" stroke="#63b8ff" points="460.18,-332.63 450.01,-329.68 456.12,-338.33 460.18,-332.63"/>
</a>
</g>
</g>
<!-- Node36 -->
<g id="Node000036" class="node">
<title>Node36</title>
<g id="a_Node000036"><a xlink:href="classsvmp_1_1_f_e_1_1_convergence_exception.html" target="_top" xlink:title="Iterative process failed to converge.">
<polygon fill="white" stroke="#666666" points="749.5,-387.5 570.5,-387.5 570.5,-368.5 749.5,-368.5 749.5,-387.5"/>
<text text-anchor="middle" x="660" y="-375.5" font-family="Helvetica,sans-Serif" font-size="10.00">svmp::FE::ConvergenceException</text>
</a>
</g>
</g>
<!-- Node33&#45;&gt;Node36 -->
<g id="edge105_Node000033_Node000036" class="edge">
<title>Node33&#45;&gt;Node36</title>
<g id="a_edge105_Node000033_Node000036"><a xlink:title=" ">
<path fill="none" stroke="#63b8ff" d="M475.21,-332.79C501.19,-341.2 536.44,-352.08 568,-360 580.18,-363.06 593.39,-365.92 605.87,-368.43"/>
<polygon fill="#63b8ff" stroke="#63b8ff" points="475.98,-329.35 465.39,-329.58 473.81,-336.01 475.98,-329.35"/>
</a>
</g>
</g>
<!-- Node37 -->
<g id="Node000037" class="node">
<title>Node37</title>
<g id="a_Node000037"><a xlink:href="classsvmp_1_1_f_e_1_1_dof_exception.html" target="_top" xlink:title="Degree&#45;of&#45;freedom numbering or lookup failure.">
<polygon fill="white" stroke="#666666" points="726.5,-350.5 593.5,-350.5 593.5,-331.5 726.5,-331.5 726.5,-350.5"/>
<text text-anchor="middle" x="660" y="-338.5" font-family="Helvetica,sans-Serif" font-size="10.00">svmp::FE::DofException</text>
</a>
</g>
</g>
<!-- Node33&#45;&gt;Node37 -->
<g id="edge106_Node000033_Node000037" class="edge">
<title>Node33&#45;&gt;Node37</title>
<g id="a_edge106_Node000033_Node000037"><a xlink:title=" ">
<path fill="none" stroke="#63b8ff" d="M510.15,-326.92C537.05,-329.46 567.32,-332.33 593.5,-334.8"/>
<polygon fill="#63b8ff" stroke="#63b8ff" points="510.31,-323.42 500.02,-325.96 509.65,-330.39 510.31,-323.42"/>
</a>
</g>
</g>
<!-- Node38 -->
<g id="Node000038" class="node">
<title>Node38</title>
<g id="a_Node000038"><a xlink:href="classsvmp_1_1_f_e_1_1_invalid_argument_exception.html" target="_top" xlink:title="An argument failed validation.">
<polygon fill="white" stroke="#666666" points="734.5,-313 585.5,-313 585.5,-283 734.5,-283 734.5,-313"/>
<text text-anchor="start" x="593.5" y="-301" font-family="Helvetica,sans-Serif" font-size="10.00">svmp::FE::InvalidArgument</text>
<text text-anchor="middle" x="660" y="-290" font-family="Helvetica,sans-Serif" font-size="10.00">Exception</text>
</a>
</g>
</g>
<!-- Node33&#45;&gt;Node38 -->
<g id="edge107_Node000033_Node000038" class="edge">
<title>Node33&#45;&gt;Node38</title>
<g id="a_edge107_Node000033_Node000038"><a xlink:title=" ">
<path fill="none" stroke="#63b8ff" d="M510.17,-312.75C534.27,-310.36 561.07,-307.7 585.22,-305.31"/>
<polygon fill="#63b8ff" stroke="#63b8ff" points="509.63,-309.29 500.02,-313.75 510.32,-316.25 509.63,-309.29"/>
</a>
</g>
</g>
<!-- Node39 -->
<g id="Node000039" class="node">
<title>Node39</title>
<g id="a_Node000039"><a xlink:href="classsvmp_1_1_f_e_1_1_invalid_element_exception.html" target="_top" xlink:title="Unsupported or malformed element request.">
<polygon fill="white" stroke="#666666" points="730.5,-265 589.5,-265 589.5,-235 730.5,-235 730.5,-265"/>
<text text-anchor="start" x="597.5" y="-253" font-family="Helvetica,sans-Serif" font-size="10.00">svmp::FE::InvalidElement</text>
<text text-anchor="middle" x="660" y="-242" font-family="Helvetica,sans-Serif" font-size="10.00">Exception</text>
</a>
</g>
</g>
<!-- Node33&#45;&gt;Node39 -->
<g id="edge108_Node000033_Node000039" class="edge">
<title>Node33&#45;&gt;Node39</title>
<g id="a_edge108_Node000033_Node000039"><a xlink:title=" ">
<path fill="none" stroke="#63b8ff" d="M471.91,-306.89C498.16,-297.24 535.1,-284.1 568,-274 578,-270.93 588.68,-267.9 599.09,-265.07"/>
<polygon fill="#63b8ff" stroke="#63b8ff" points="470.57,-303.65 462.4,-310.4 473,-310.22 470.57,-303.65"/>
</a>
</g>
</g>
<!-- Node40 -->
<g id="Node000040" class="node">
<title>Node40</title>
<g id="a_Node000040"><a xlink:href="classsvmp_1_1_f_e_1_1_not_initialized_exception.html" target="_top" xlink:title="Required initialization step has not been performed.">
<polygon fill="white" stroke="#666666" points="726.5,-217 593.5,-217 593.5,-187 726.5,-187 726.5,-217"/>
<text text-anchor="start" x="601.5" y="-205" font-family="Helvetica,sans-Serif" font-size="10.00">svmp::FE::NotInitialized</text>
<text text-anchor="middle" x="660" y="-194" font-family="Helvetica,sans-Serif" font-size="10.00">Exception</text>
</a>
</g>
</g>
<!-- Node33&#45;&gt;Node40 -->
<g id="edge109_Node000033_Node000040" class="edge">
<title>Node33&#45;&gt;Node40</title>
<g id="a_edge109_Node000033_Node000040"><a xlink:title=" ">
<path fill="none" stroke="#63b8ff" d="M454.97,-303.79C479.03,-282.9 523.83,-246.8 568,-226 575.98,-222.24 584.65,-219 593.35,-216.23"/>
<polygon fill="#63b8ff" stroke="#63b8ff" points="452.55,-301.26 447.36,-310.49 457.17,-306.51 452.55,-301.26"/>
</a>
</g>
</g>
<!-- Node41 -->
<g id="Node000041" class="node">
<title>Node41</title>
<g id="a_Node000041"><a xlink:href="classsvmp_1_1_f_e_1_1_singular_mapping_exception.html" target="_top" xlink:title="Element geometric mapping is singular or inverted.">
<polygon fill="white" stroke="#666666" points="734.5,-169 585.5,-169 585.5,-139 734.5,-139 734.5,-169"/>
<text text-anchor="start" x="593.5" y="-157" font-family="Helvetica,sans-Serif" font-size="10.00">svmp::FE::SingularMapping</text>
<text text-anchor="middle" x="660" y="-146" font-family="Helvetica,sans-Serif" font-size="10.00">Exception</text>
</a>
</g>
</g>
<!-- Node33&#45;&gt;Node41 -->
<g id="edge110_Node000033_Node000041" class="edge">
<title>Node33&#45;&gt;Node41</title>
<g id="a_edge110_Node000033_Node000041"><a xlink:title=" ">
<path fill="none" stroke="#63b8ff" d="M448.51,-301.95C468.84,-271.59 514.09,-210.45 568,-178 573.74,-174.55 579.97,-171.58 586.4,-169.04"/>
<polygon fill="#63b8ff" stroke="#63b8ff" points="445.58,-300.04 443.02,-310.32 451.44,-303.88 445.58,-300.04"/>
</a>
</g>
</g>
<!-- Node42 -->
<g id="Node000042" class="node">
<title>Node42</title>
<g id="a_Node000042"><a xlink:href="classsvmp_1_1_f_e_1_1basis_1_1_basis_exception.html" target="_top" xlink:title="Base exception type for errors originating in the Basis module.">
<polygon fill="white" stroke="#666666" points="746.5,-120.5 573.5,-120.5 573.5,-101.5 746.5,-101.5 746.5,-120.5"/>
<text text-anchor="middle" x="660" y="-108.5" font-family="Helvetica,sans-Serif" font-size="10.00">svmp::FE::basis::BasisException</text>
</a>
</g>
</g>
<!-- Node33&#45;&gt;Node42 -->
<g id="edge111_Node000033_Node000042" class="edge">
<title>Node33&#45;&gt;Node42</title>
<g id="a_edge111_Node000033_Node000042"><a xlink:title=" ">
<path fill="none" stroke="#63b8ff" d="M444.53,-300.51C460.72,-261.4 502.72,-173.38 568,-130 573.78,-126.16 580.19,-123.07 586.84,-120.6"/>
<polygon fill="#63b8ff" stroke="#63b8ff" points="441.13,-299.58 440.65,-310.17 447.63,-302.19 441.13,-299.58"/>
</a>
</g>
</g>
<!-- Node43 -->
<g id="Node000043" class="node">
<title>Node43</title>
<g id="a_Node000043"><a xlink:href="classsvmp_1_1_f_e_1_1basis_1_1_basis_configuration_exception.html" target="_top" xlink:title="Invalid Basis request or configuration.">
<polygon fill="white" stroke="#666666" points="979,-222 788,-222 788,-192 979,-192 979,-222"/>
<text text-anchor="start" x="796" y="-210" font-family="Helvetica,sans-Serif" font-size="10.00">svmp::FE::basis::BasisConfiguration</text>
<text text-anchor="middle" x="883.5" y="-199" font-family="Helvetica,sans-Serif" font-size="10.00">Exception</text>
</a>
</g>
</g>
<!-- Node42&#45;&gt;Node43 -->
<g id="edge112_Node000042_Node000043" class="edge">
<title>Node42&#45;&gt;Node43</title>
<g id="a_edge112_Node000042_Node000043"><a xlink:title=" ">
<path fill="none" stroke="#63b8ff" d="M742.63,-124.61C745.89,-126.22 749.03,-128.01 752,-130 775.66,-145.84 764.68,-166.65 788,-183 792.85,-186.4 798.14,-189.32 803.66,-191.83"/>
<polygon fill="#63b8ff" stroke="#63b8ff" points="743.75,-121.29 733.18,-120.55 740.99,-127.72 743.75,-121.29"/>
</a>
</g>
</g>
<!-- Node44 -->
<g id="Node000044" class="node">
<title>Node44</title>
<g id="a_Node000044"><a xlink:href="classsvmp_1_1_f_e_1_1basis_1_1_basis_construction_exception.html" target="_top" xlink:title="Internal basis construction or transform setup failure.">
<polygon fill="white" stroke="#666666" points="977,-174 790,-174 790,-144 977,-144 977,-174"/>
<text text-anchor="start" x="798" y="-162" font-family="Helvetica,sans-Serif" font-size="10.00">svmp::FE::basis::BasisConstruction</text>
<text text-anchor="middle" x="883.5" y="-151" font-family="Helvetica,sans-Serif" font-size="10.00">Exception</text>
</a>
</g>
</g>
<!-- Node42&#45;&gt;Node44 -->
<g id="edge113_Node000042_Node000044" class="edge">
<title>Node42&#45;&gt;Node44</title>
<g id="a_edge113_Node000042_Node000044"><a xlink:title=" ">
<path fill="none" stroke="#63b8ff" d="M717.26,-122.63C728.76,-125.04 740.77,-127.58 752,-130 772.65,-134.45 795.1,-139.4 815.48,-143.93"/>
<polygon fill="#63b8ff" stroke="#63b8ff" points="717.82,-119.17 707.32,-120.55 716.39,-126.02 717.82,-119.17"/>
</a>
</g>
</g>
<!-- Node45 -->
<g id="Node000045" class="node">
<title>Node45</title>
<g id="a_Node000045"><a xlink:href="classsvmp_1_1_f_e_1_1basis_1_1_basis_element_compatibility_exception.html" target="_top" xlink:title="Requested element topology is incompatible with the basis family.">
<polygon fill="white" stroke="#666666" points="966.5,-126 800.5,-126 800.5,-96 966.5,-96 966.5,-126"/>
<text text-anchor="start" x="808.5" y="-114" font-family="Helvetica,sans-Serif" font-size="10.00">svmp::FE::basis::BasisElement</text>
<text text-anchor="middle" x="883.5" y="-103" font-family="Helvetica,sans-Serif" font-size="10.00">CompatibilityException</text>
</a>
</g>
</g>
<!-- Node42&#45;&gt;Node45 -->
<g id="edge114_Node000042_Node000045" class="edge">
<title>Node42&#45;&gt;Node45</title>
<g id="a_edge114_Node000042_Node000045"><a xlink:title=" ">
<path fill="none" stroke="#63b8ff" d="M756.65,-111C771.21,-111 786.13,-111 800.36,-111"/>
<polygon fill="#63b8ff" stroke="#63b8ff" points="756.64,-107.5 746.64,-111 756.64,-114.5 756.64,-107.5"/>
</a>
</g>
</g>
<!-- Node46 -->
<g id="Node000046" class="node">
<title>Node46</title>
<g id="a_Node000046"><a xlink:href="classsvmp_1_1_f_e_1_1basis_1_1_basis_evaluation_exception.html" target="_top" xlink:title="Basis evaluation request cannot be satisfied.">
<polygon fill="white" stroke="#666666" points="972,-78 795,-78 795,-48 972,-48 972,-78"/>
<text text-anchor="start" x="803" y="-66" font-family="Helvetica,sans-Serif" font-size="10.00">svmp::FE::basis::BasisEvaluation</text>
<text text-anchor="middle" x="883.5" y="-55" font-family="Helvetica,sans-Serif" font-size="10.00">Exception</text>
</a>
</g>
</g>
<!-- Node42&#45;&gt;Node46 -->
<g id="edge115_Node000042_Node000046" class="edge">
<title>Node42&#45;&gt;Node46</title>
<g id="a_edge115_Node000042_Node000046"><a xlink:title=" ">
<path fill="none" stroke="#63b8ff" d="M715.15,-99.26C744.72,-92.86 781.63,-84.86 813.26,-78"/>
<polygon fill="#63b8ff" stroke="#63b8ff" points="714.06,-95.92 705.03,-101.46 715.54,-102.76 714.06,-95.92"/>
</a>
</g>
</g>
<!-- Node47 -->
<g id="Node000047" class="node">
<title>Node47</title>
<g id="a_Node000047"><a xlink:href="classsvmp_1_1_f_e_1_1basis_1_1_basis_node_ordering_exception.html" target="_top" xlink:title="Public&#45;to&#45;canonical node ordering or coordinate lookup failure.">
<polygon fill="white" stroke="#666666" points="959,-30 808,-30 808,0 959,0 959,-30"/>
<text text-anchor="start" x="816" y="-18" font-family="Helvetica,sans-Serif" font-size="10.00">svmp::FE::basis::BasisNode</text>
<text text-anchor="middle" x="883.5" y="-7" font-family="Helvetica,sans-Serif" font-size="10.00">OrderingException</text>
</a>
</g>
</g>
<!-- Node42&#45;&gt;Node47 -->
<g id="edge116_Node000042_Node000047" class="edge">
<title>Node42&#45;&gt;Node47</title>
<g id="a_edge116_Node000042_Node000047"><a xlink:title=" ">
<path fill="none" stroke="#63b8ff" d="M683.46,-95.81C708.14,-79.71 749.42,-54.51 788,-39 796.32,-35.65 805.25,-32.66 814.18,-30.03"/>
<polygon fill="#63b8ff" stroke="#63b8ff" points="681.26,-93.06 674.85,-101.49 685.12,-98.9 681.26,-93.06"/>
</a>
</g>
</g>
</g>
</svg>
